<svg width="42" height="42" viewBox="0 0 42 42" fill="none" xmlns="http://www.w3.org/2000/svg">
<g clip-path="url(#clip0)">
<path d="M19.4584 41.1526C8.10703 23.8736 6 22.1003 6 15.75C6 7.05149 12.7157 0 21 0C29.2843 0 36 7.05149 36 15.75C36 22.1003 33.893 23.8736 22.5416 41.1526C21.7966 42.2825 20.2033 42.2824 19.4584 41.1526ZM21 22.3125C24.4518 22.3125 27.25 19.3744 27.25 15.75C27.25 12.1256 24.4518 9.1875 21 9.1875C17.5482 9.1875 14.75 12.1256 14.75 15.75C14.75 19.3744 17.5482 22.3125 21 22.3125Z" fill="black"/>
</g>
<defs>
<clipPath id="clip0">
<rect width="30" height="42" fill="white" transform="translate(6)"/>
</clipPath>
</defs>
</svg>
