<svg width="42" height="42" viewBox="0 0 42 42" fill="none" xmlns="http://www.w3.org/2000/svg">
<g clip-path="url(#clip0)">
<path d="M40.474 2.01776L31.9428 0.0490072C31.0158 -0.164274 30.0643 0.31971 29.6869 1.18924L25.7494 10.3767C25.4049 11.1806 25.6346 12.124 26.3154 12.6736L31.2865 16.7424C28.3334 23.0342 23.1736 28.2678 16.7506 31.2783L12.6818 26.3072C12.124 25.6264 11.1889 25.3967 10.3849 25.7412L1.19744 29.6787C0.319708 30.0642 -0.164276 31.0158 0.0490051 31.9428L2.01776 40.474C2.22283 41.3599 3.01033 41.9998 3.93729 41.9998C24.9455 41.9998 41.9998 24.9783 41.9998 3.93729C41.9998 3.01854 41.3682 2.22284 40.474 2.01776Z" fill="black"/>
</g>
<defs>
<clipPath id="clip0">
<rect width="42" height="42" fill="white"/>
</clipPath>
</defs>
</svg>
