<svg width="42" height="42" viewBox="0 0 42 42" fill="none" xmlns="http://www.w3.org/2000/svg">
<path d="M21 0.65625C9.75688 0.65625 0.65625 9.75507 0.65625 21C0.65625 32.2431 9.75507 41.3438 21 41.3438C24.9501 41.3438 28.821 40.1838 32.1077 38.0442C33.0925 37.4031 33.3074 36.0518 32.5631 35.1426L31.7283 34.1227C31.099 33.354 29.991 33.1656 29.1547 33.702C26.7356 35.2535 23.8969 36.0938 21 36.0938C12.6773 36.0938 5.90625 29.3227 5.90625 21C5.90625 12.6773 12.6773 5.90625 21 5.90625C29.2145 5.90625 36.0938 10.6328 36.0938 19.0312C36.0938 22.2129 34.3635 25.5726 31.322 25.8967C29.8988 25.8594 29.9348 24.842 30.2165 23.4338L32.1388 13.499C32.3739 12.2842 31.4432 11.1562 30.206 11.1562H26.5161C26.2437 11.1562 25.9808 11.2565 25.7775 11.438C25.5743 11.6194 25.445 11.8693 25.4143 12.1401L25.4134 12.1476C24.2078 10.6792 22.0954 10.3614 20.4939 10.3614C14.3761 10.3614 9.1875 15.4665 9.1875 22.7858C9.1875 28.1427 12.205 31.4705 17.0625 31.4705C19.276 31.4705 21.7686 30.1877 23.2141 28.326C23.9952 31.1236 26.5456 31.1235 29.0145 31.1235C37.9484 31.1235 41.3438 25.2491 41.3438 19.0312C41.3438 7.84654 32.3222 0.65625 21 0.65625ZM19.2216 25.629C17.3964 25.629 16.2627 24.3474 16.2627 22.2845C16.2627 18.5937 18.7875 16.3185 21.0722 16.3185C22.9008 16.3185 23.9926 17.5687 23.9926 19.6629C23.9926 23.3593 21.2138 25.629 19.2216 25.629Z" fill="black"/>
</svg>
