<svg width="42" height="42" viewBox="0 0 42 42" fill="none" xmlns="http://www.w3.org/2000/svg">
<path d="M33.834 3H8.16735C7.87568 3 7.5986 3.14062 7.43818 3.37969L0.146516 13.7297C-0.0649425 14.0391 -0.0430675 14.4469 0.197557 14.7281L20.3226 38.6906C20.6726 39.1055 21.3288 39.1055 21.6788 38.6906L41.8038 14.7281C42.0444 14.4398 42.0663 14.0391 41.8548 13.7297L34.5705 3.37969C34.4028 3.14062 34.133 3 33.834 3ZM32.4267 6.375L37.0423 13.125H32.0548L28.2851 6.375H32.4267V6.375ZM17.6903 6.375H24.3038L28.0736 13.125H13.9278L17.6903 6.375ZM9.57464 6.375H13.7163L9.94652 13.125H4.95902L9.57464 6.375ZM6.43922 16.5H10.1871L15.1673 27.75L6.43922 16.5V16.5ZM13.9423 16.5H28.059L21.0007 33.607L13.9423 16.5V16.5ZM26.834 27.75L31.8069 16.5H35.5548L26.834 27.75Z" fill="black"/>
</svg>
