<svg xmlns="http://www.w3.org/2000/svg" fill="none" viewBox="0 0 299 48">
  <path fill="#1F2733" d="M0 0h299v48H0V0Z"/>
  <path fill="#fff" d="M28.52 18.2 26.62 29h-2.71l-1.89-5.91L21 29h-2.71l1.9-10.8h2.79l1.86 5.52.98-5.52h2.7ZM36.27 29h-7.53l1.9-10.8h7.54l-.42 2.34h-4.83l-.35 2.03h4l-.43 2.34h-3.99l-.3 1.75h4.83L36.27 29Zm6.17-2.63 2.85-8.17h2.93L44.12 29h-4.8l-.12-10.8h2.94l-.04 8.18h.34ZM55.26 29h-7.53l1.9-10.8h7.53l-.42 2.34h-4.83l-.34 2.03h3.99l-.42 2.34h-4l-.3 1.75h4.84L55.26 29Zm114.51-3.07c0 .68.5 1.03 1.49 1.03 1 0 1.5-.31 1.5-.93 0-.33-.17-.6-.51-.81a4.96 4.96 0 0 0-1.25-.52c-.48-.14-.96-.3-1.45-.48a3.14 3.14 0 0 1-1.23-.88 2.2 2.2 0 0 1-.51-1.48c0-2.51 1.61-3.77 4.84-3.77 1.18 0 2.07.23 2.67.68.61.44.92 1.05.92 1.84a2.94 2.94 0 0 1-.35 1.4l-.12.18h-2.65c.22-.23.33-.52.33-.87 0-.65-.43-.98-1.28-.98-1.07 0-1.6.34-1.6 1.02 0 .34.17.62.5.82.35.2.76.36 1.24.48.49.1.98.25 1.47.41.49.18.9.46 1.24.86.34.39.51.9.51 1.53 0 1.27-.38 2.21-1.14 2.84-.76.6-1.93.91-3.5.91-1.59 0-2.67-.28-3.25-.84-.43-.42-.64-1-.64-1.74 0-.28.03-.58.09-.91l.04-.24h2.7l-.03.18-.03.27ZM181.9 29l.1-2.36h-2.51l-.74 2.36h-2.86l3.85-10.8h4.95l.06 10.8h-2.85Zm-.61-8.18-1.19 3.82h1.97l.16-3.82h-.94ZM193 29h-6.84l1.9-10.8h2.7l-1.48 8.46h4.14L193 29Zm8.73 0h-7.53l1.9-10.8h7.54l-.42 2.34h-4.83l-.35 2.03h4l-.43 2.34h-3.99l-.3 1.75h4.83l-.42 2.34Zm4.52-3.93h-2l1.09-7.93h2.55l-1.64 7.93Zm-2.9 3.06c0-.64.13-1.1.41-1.4.28-.3.73-.45 1.34-.45.84 0 1.26.38 1.26 1.11 0 .63-.15 1.1-.44 1.38-.28.3-.72.44-1.33.44-.83 0-1.25-.36-1.25-1.08Z"/>
  <path fill="#FFCB7C" d="M66.84 18.2c1.14 0 1.95.25 2.43.75.36.38.54.86.54 1.44 0 .2-.02.41-.06.63l-.13.72a2.5 2.5 0 0 1-.65 1.34c-.3.32-.58.48-.82.48l-.02.12c.28 0 .57.15.86.46.29.31.43.68.43 1.1 0 .17-.02.35-.06.54l-.09.46a3.26 3.26 0 0 1-1.15 2.03c-.6.48-1.44.73-2.52.73h-5.01l1.9-10.8h4.35Zm-1.35 6.39h-1.42l-.36 2.07h1.48c.46 0 .83-.1 1.1-.32a1 1 0 0 0 .4-.79c0-.64-.4-.96-1.2-.96Zm.41-4.05h-1.13l-.39 2.23h1.11c.96 0 1.44-.41 1.44-1.25a.95.95 0 0 0-.27-.71c-.17-.18-.42-.27-.76-.27ZM77.29 29h-6.84l1.9-10.8h2.7l-1.48 8.46h4.14L77.29 29Zm6.54 0 .09-2.36h-2.5L80.68 29h-2.86l3.85-10.8h4.95l.06 10.8h-2.85Zm-.61-8.18-1.19 3.82H84l.16-3.82h-.94Zm8.67 8.39c-1.43 0-2.42-.31-2.97-.93a2.73 2.73 0 0 1-.57-1.85c0-.34.04-.7.11-1.09l.61-3.45c.45-2.53 2.08-3.8 4.88-3.8 1.16 0 2.04.25 2.64.75.6.5.9 1.17.9 2.03 0 .4-.06.8-.18 1.2-.11.39-.22.68-.33.87l-.17.3h-2.65c.33-.38.5-.92.5-1.62 0-.37-.1-.66-.29-.87-.2-.22-.47-.33-.84-.33-1.01 0-1.61.56-1.8 1.68l-.53 3.03c-.05.26-.07.52-.07.77 0 .66.4.99 1.18.99.95 0 1.52-.54 1.71-1.61h2.7l-.07.43c-.4 2.34-1.99 3.5-4.76 3.5Zm16.4-11.01-3.44 5.45 1.53 5.35h-2.85l-1.13-3.96h-1.18l-.7 3.96h-2.7l1.9-10.8h2.7l-.8 4.5h.96l2.85-4.5h2.85Zm10.36 6.84h-3.99l-.69 3.96h-2.71l1.9-10.8h7.53l-.42 2.34h-4.83l-.37 2.16h3.99l-.4 2.34Zm7.89-6.84c1.14 0 1.95.25 2.43.75.36.38.54.86.54 1.44 0 .2-.02.41-.06.63l-.21 1.17a3.72 3.72 0 0 1-.63 1.57c-.3.4-.62.69-.98.86L129 29h-3.03l-1.26-4.04h-.93l-.62 4.04h-2.88l1.9-10.8h4.36Zm-.95 2.34h-1.12l-.4 2.61h1.06c.53 0 .9-.13 1.14-.38.23-.25.34-.6.34-1.02 0-.8-.34-1.21-1.02-1.21Zm9.14-2.34L132.84 29h-2.71l1.9-10.8h2.7Zm6.34 0c1.3 0 2.24.33 2.8.99.41.5.62 1.13.62 1.88 0 .27-.03.55-.08.85l-.59 3.34a4.52 4.52 0 0 1-1.47 2.72 4.44 4.44 0 0 1-3.03 1.02h-4.36l1.9-10.8h4.2Zm-.95 2.34h-.97l-1.07 6.12h1.42c.47 0 .84-.13 1.1-.38.27-.26.46-.68.56-1.26l.43-2.45c.04-.23.06-.43.06-.6 0-.95-.51-1.43-1.53-1.43ZM150.2 29l.1-2.36h-2.51l-.74 2.36h-2.86l3.85-10.8H153l.06 10.8h-2.85Zm-.61-8.18-1.19 3.82h1.97l.16-3.82h-.94Zm9.28 1.18 2.54-3.8h2.7l-4.62 6.64-.74 4.16h-2.71l.73-4.16-2.28-6.64h2.87l1.17 3.8h.34Z"/>
  <path fill="#fff" d="M274 17h8v8l-2-1v-3.08l-5.6 5.59-1.41-1.41 6.09-6.1H275l-1-2Zm3 12v-3l2-2v7h-11V20h8l-2 2h-4v7h7Z"/>
</svg>
