<svg xmlns="http://www.w3.org/2000/svg" width="384" height="384" viewBox="0 0 384 384" fill="none"><rect y=".556641" width="383.305" height="383.305" rx="43.1219" fill="#4c2dc1"/><path fill-rule="evenodd" clip-rule="evenodd" d="M112.512 145.942C111.653 143.158 113.084 139.991 116.063 138.965L136.996 131.758 143.625 142.588 117.118 151.714 112.512 145.942zm42.213 52.889-30.243-37.891L149.57 152.302l24.431 39.915L154.725 198.831zm21.459 26.887-14.093-17.657L179.948 201.934l11.903 19.448-12.311 4.239C178.456 225.994 177.286 226.028 176.184 225.718zm-72.313-90.602L98.5018 128.389C95.3442 124.433 90.8469 121.77 85.8598 120.904c-4.9872-.866-10.1188.125-14.4251 2.785l-19.87 12.275C48.952 137.578 48.1424 141.005 49.7564 143.617 51.3704 146.23 54.7967 147.039 57.4094 145.425l19.87-12.274C79.273 131.919 81.6487 131.46 83.9574 131.861 86.2661 132.262 88.3481 133.495 89.8099 135.326l13.0391 16.337C103.358 152.694 103.985 153.692 104.733 154.643l59.812 76.014C165.818 232.275 167.371 233.635 169.118 234.679 166.424 239.257 165.677 244.943 167.547 250.358 170.936 260.175 181.641 265.386 191.458 261.997l111.52-38.5C305.59 222.595 306.977 219.746 306.075 217.133 305.173 214.521 302.324 213.134 299.711 214.036l-111.52 38.5C183.6 254.121 178.593 251.684 177.007 247.092 175.651 243.163 177.24 238.93 180.603 236.797 181.468 236.645 182.323 236.425 183.16 236.136l99.278-34.183C285.726 200.821 288.58 198.693 290.604 195.866 292.628 193.039 293.722 189.652 293.734 186.175L294.033 99.5343C294.142 98.9197 294.149 98.2809 294.04 97.6428L294.068 89.4509C294.108 77.9251 282.765 69.8045 271.867 73.5569L112.443 128.45C108.718 129.733 105.806 132.141 103.871 135.116zM154.394 138.88 147.765 128.05l46.611-16.049L198.413 123.724 154.394 138.88zm54.534-18.776L204.891 108.38l45.68-15.7286L252.015 105.269l-43.087 14.835zm53.857-18.543L261.34 88.9434 275.488 84.072C279.15 82.8112 282.961 85.5397 282.948 89.4124L282.929 94.6256l-20.144 6.9354zM264.08 112.877l18.809-6.476L282.721 154.914l-13.306 4.566L264.08 112.877zm6.63 57.916 11.97-4.107L282.613 186.136C282.609 187.304 282.241 188.443 281.561 189.393S279.922 191.057 278.818 191.438L273.291 193.341 270.71 170.793zM262.516 196.997 262.522 197.048 238.294 205.391 231.065 184.395 259.939 174.488l2.572 22.469L262.516 196.997zM220.546 188.004l7.233 21.007L202.619 217.674 202.602 217.645C202.593 217.629 202.583 217.613 202.573 217.597l-11.85-19.36 29.823-10.233zm38.098-24.829-5.333-46.59-40.762 14.034 14.895 43.261 31.2-10.705zm-41.719 14.314-14.892-43.25-41.693 14.355 24.436 39.926 32.149-11.031zM218.594 297.493C211.9 302.347 202.538 300.854 197.685 294.16 192.831 287.465 194.324 278.104 201.018 273.25 207.713 268.397 217.074 269.889 221.928 276.584 226.781 283.278 225.289 292.64 218.594 297.493zm63.166-31.679C286.614 272.508 295.975 274.001 302.67 269.147 309.364 264.294 310.857 254.932 306.003 248.238 301.15 241.543 291.788 240.051 285.094 244.904 278.399 249.758 276.907 259.119 281.76 265.814zM151.789 299.639C152.5 300.502 154.296 299.683 154.111 298.58 153.198 293.153 152.372 284.907 154.328 279.048 156.377 272.911 160.398 267.87 162.969 265.086 163.641 264.359 162.995 262.943 162.005 262.973 158.218 263.089 151.775 262.818 145.798 260.34 140.093 257.974 134.409 251.943 130.91 247.695 130.199 246.832 128.403 247.651 128.588 248.754 129.5 254.181 130.327 262.427 128.371 268.286 126.322 274.423 122.3 279.464 119.729 282.248 119.057 282.976 119.702 284.392 120.692 284.362 124.48 284.246 130.924 284.516 136.901 286.994 142.606 289.359 148.289 295.391 151.789 299.639zM120.901 331.02C121.007 331.603 120.074 332.028 119.704 331.565 117.511 328.826 113.656 324.56 109.795 322.936 105.772 321.244 101.425 321.126 99.0792 321.219 98.557 321.24 98.2216 320.505 98.5799 320.124 100.189 318.415 102.95 315.055 104.311 310.909 105.617 306.929 104.925 301.221 104.295 297.769 104.188 297.186 105.121 296.76 105.492 297.223 107.685 299.962 111.54 304.229 115.401 305.853 119.424 307.544 123.77 307.663 126.116 307.57 126.638 307.549 126.973 308.284 126.615 308.665 125.006 310.374 122.245 313.734 120.885 317.879 119.578 321.859 120.271 327.568 120.901 331.02zm-11.623-51.629C109.653 279.833 110.554 279.423 110.466 278.849 109.992 275.743 109.548 270.576 110.999 266.901 112.456 263.208 115.166 260.127 116.835 258.463 117.218 258.082 116.861 257.3 116.323 257.338 113.971 257.507 109.868 257.532 106.125 256.211 102.399 254.896 98.7894 251.172 96.7555 248.777 96.3798 248.335 95.4794 248.746 95.5669 249.319 96.041 252.425 96.4853 257.592 95.0345 261.267 93.5767 264.96 90.8671 268.041 89.1971 269.706 88.8148 270.087 89.1713 270.869 89.7097 270.83 92.0617 270.661 96.1648 270.636 99.9086 271.958 103.635 273.273 107.244 276.996 109.278 279.391z" fill="#fff"/></svg>