<svg width="32" height="32" viewBox="0 0 32 32" fill="none" xmlns="http://www.w3.org/2000/svg">
<path d="M22.0126 26.611L17.0629 31.5608C16.4771 32.1466 15.5274 32.1466 14.9416 31.5608L9.99181 26.611C9.04687 25.6661 9.71612 24.0503 11.0525 24.0504H14.2501L14.2501 17.7501H7.9498V20.9477C7.9498 22.2841 6.33412 22.9533 5.38911 22.0084L0.43936 17.0586C-0.146453 16.4728 -0.146453 15.5231 0.43936 14.9373L5.38911 9.98756C6.33405 9.04262 7.9498 9.71187 7.9498 11.0482V14.2501H14.2501V7.9498H11.0482C9.71181 7.9498 9.04255 6.33412 9.98749 5.38911L14.9372 0.43936C15.5231 -0.146453 16.4728 -0.146453 17.0586 0.43936L22.0083 5.38911C22.9533 6.33405 22.284 7.9498 20.9476 7.9498H17.75V14.2501H24.0503V11.0524C24.0503 9.71606 25.6659 9.04681 26.6109 9.99174L31.5606 14.9415C32.1465 15.5273 32.1465 16.4771 31.5606 17.0628L26.6109 22.0126C25.6659 22.9575 24.0502 22.2883 24.0503 20.9519V17.7501H17.7501V24.0503H20.9519C22.2883 24.0503 22.9576 25.666 22.0126 26.611Z" fill="#0073AA"/>
</svg>
