<svg xmlns="http://www.w3.org/2000/svg" fill="none" viewBox="0 0 1007 149">
	<g clip-path="url(#a)">
		<rect width="1007" height="149" fill="#1F2733" rx="8"/>
		<path fill="#0073AA" d="m1094-26.6-72.7 21.1 72.7 21.1-75.8-.2 63.9 40.8-72.6-21.6 49.7 57.1-63.6-41 31.7 68.7L977.8 62l11 75-31.2-69-10.6 75-10.6-75-31.2 69 11-75-49.5 57.4 31.7-68.8-63.6 41.1 49.7-57L812 56.1l63.9-40.8-75.8.2 72.7-21.1-72.8-21 75.8.2-63.9-40.8 72.6 21.6-49.7-57.1 63.6 41-31.7-68.7L916.2-73l-11-75 31.2 69 10.6-75 10.6 75 31.2-69-11 75 49.5-57.4-31.7 68.8 63.6-41.1-49.7 57 72.6-21.5-63.8 40.8 75.7-.2Z"/>
		<path fill="#fff" d="M37.6 57.6c3.4 0 5.9.8 7.3 2.3a6 6 0 0 1 1.6 4.3l-.1 1.9-.5 2.1c-.3 1.7-1 3-1.9 4-1 1-1.7 1.5-2.5 1.5v.3c.8 0 1.7.5 2.6 1.4a5 5 0 0 1 1.3 3.3l-.2 1.6-.3 1.4a9.8 9.8 0 0 1-3.5 6A11.6 11.6 0 0 1 34 90H19l5.7-32.4h13Zm-4 19.2h-4.3l-1 6.2h4.4c1.3 0 2.4-.3 3.3-1a3 3 0 0 0 1.2-2.3c0-2-1.2-3-3.6-3Zm1.2-12.2h-3.4l-1.2 6.7h3.4c2.9 0 4.3-1.2 4.3-3.8 0-.8-.3-1.5-.8-2-.5-.6-1.3-.9-2.3-.9ZM69 90H48.4l5.7-32.4h8.1L57.8 83h12.4L69 90Zm19.6 0 .2-7h-7.5l-2.2 7h-8.6l11.6-32.4h14.8l.2 32.4h-8.5Zm-1.9-24.5-3.5 11.4H89l.5-11.4h-2.9Zm26.1 25.1c-4.3 0-7.3-.9-9-2.8a8.2 8.2 0 0 1-1.7-5.5c0-1 .2-2.1.4-3.3l1.8-10.3c1.4-7.6 6.2-11.4 14.6-11.4 3.5 0 6.2.7 8 2.2a7.4 7.4 0 0 1 2.7 6.1c0 1.2-.2 2.4-.6 3.6a12 12 0 0 1-1 2.6l-.5 1h-8c1-1.2 1.5-2.8 1.5-5 0-1-.2-2-.8-2.5-.6-.7-1.4-1-2.5-1-3 0-4.9 1.6-5.4 5l-1.6 9c-.2.9-.2 1.6-.2 2.4 0 2 1.2 3 3.5 3 2.9 0 4.6-1.7 5.2-4.9h8l-.2 1.3c-1.2 7-6 10.5-14.2 10.5Zm49.2-33-10.4 16.3 4.6 16.1h-8.5l-3.4-11.9h-3.6l-2 11.9h-8.2l5.7-32.4h8.1L142 71.1h3l8.5-13.5h8.5Zm31 20.5h-12L179 90h-8l5.7-32.4h22.6l-1.3 7h-14.5l-1.1 6.5h12l-1.3 7Zm23.7-20.5c3.4 0 5.8.8 7.3 2.3a6 6 0 0 1 1.6 4.3c0 .6 0 1.2-.2 1.9l-.6 3.5c-.4 2-1 3.5-1.9 4.7-.9 1.2-1.8 2-3 2.6l4.2 13.1H215l-3.8-12.1h-2.8L206.6 90h-8.7l5.7-32.4h13.1Zm-2.8 7h-3.4l-1.2 7.9h3.2c1.6 0 2.7-.4 3.4-1.2.7-.8 1-1.8 1-3 0-2.5-1-3.7-3-3.7Zm27.4-7L235.6 90h-8.1l5.7-32.4h8Zm19 0c4 0 6.7 1 8.4 3a8.6 8.6 0 0 1 1.8 5.6c0 .8 0 1.7-.2 2.6l-1.7 10A13.1 13.1 0 0 1 255.1 90H242l5.7-32.4h12.6Zm-2.9 7h-2.9L251.3 83h4.3c1.4 0 2.5-.4 3.3-1.1.8-.8 1.4-2 1.7-3.8l1.3-7.4.1-1.8c0-2.9-1.5-4.3-4.6-4.3ZM287.7 90l.3-7h-7.6l-2.2 7h-8.6l11.6-32.4h14.9l.1 32.4h-8.5Zm-1.9-24.5-3.5 11.4h5.9l.5-11.4h-2.9Zm27.9 3.5 7.6-11.4h8.1l-13.9 20-2.2 12.4h-8.1l2.2-12.5-6.8-19.9h8.6l3.5 11.4h1Z"/>
		<path fill="#FFCB7C" d="M353 80.1h-5.3l-1.8 9.9h-8l5.6-32.4h13.8c3.3 0 5.8.8 7.2 2.3 1 1.2 1.6 2.8 1.6 4.6 0 .7 0 1.3-.2 2l-1 5a9.6 9.6 0 0 1-3.9 6.3 13.3 13.3 0 0 1-8 2.3Zm1.4-15.5h-4l-1.5 8.5h4c2.4 0 3.9-1 4.3-3.3l.3-1.8v-1c0-.5-.2-1-.6-1.6-.5-.5-1.3-.8-2.5-.8Zm30.9-7c3.4 0 5.8.8 7.3 2.3a6 6 0 0 1 1.6 4.3c0 .6 0 1.2-.2 1.9l-.6 3.5c-.4 2-1 3.5-2 4.7-.8 1.2-1.8 2-2.8 2.6l4 13.1h-9l-3.8-12.1H377L375 90h-8.6l5.7-32.4h13Zm-2.9 7h-3.3l-1.2 7.9h3.1c1.6 0 2.8-.4 3.5-1.2.7-.8 1-1.8 1-3 0-2.5-1-3.7-3-3.7Zm27.5-7L404.2 90H396l5.8-32.4h8Zm14 24.5 8.5-24.5h8.8L428.9 90h-14.4l-.4-32.4h8.9l-.2 24.5h1Zm30.8 7.9.3-7h-7.5l-2.2 7h-8.6l11.5-32.4h14.9l.2 32.4h-8.6ZM453 65.5l-3.6 11.4h6l.4-11.4H453Zm44-.9h-11L481.5 90h-8.1l4.4-25.4h-11.1l1.3-7h30.3l-1.3 7ZM518.9 90h-22.6l5.7-32.4h22.6l-1.3 7h-14.5l-1 6h12l-1.3 7.1h-12l-.9 5.3h14.5l-1.2 7Zm24.6-9.2c0 2 1.4 3 4.4 3 3 0 4.5-.8 4.5-2.7 0-1-.5-1.8-1.5-2.4a12 12 0 0 0-3.8-1.6l-4.3-1.5A9.4 9.4 0 0 1 539 73a6.6 6.6 0 0 1-1.5-4.4c0-7.5 4.8-11.3 14.5-11.3 3.5 0 6.2.7 8 2a6.4 6.4 0 0 1 2.8 5.5 8.8 8.8 0 0 1-1 4.2l-.4.6h-8c.7-.7 1-1.6 1-2.6 0-2-1.3-3-3.8-3-3.3 0-4.9 1-4.9 3 0 1.1.6 2 1.6 2.5 1 .6 2.2 1.1 3.7 1.5l4.4 1.2c1.4.5 2.7 1.4 3.7 2.6 1 1.2 1.5 2.7 1.5 4.6 0 3.8-1.1 6.6-3.4 8.5-2.3 1.8-5.8 2.7-10.5 2.7-4.8 0-8-.8-9.7-2.5a7 7 0 0 1-2-5.2l.3-2.8.1-.7h8.1v.6l-.1.8Zm36.3 9.2.3-7h-7.5l-2.2 7h-8.6l11.6-32.4h14.8l.2 32.4h-8.6ZM578 65.5l-3.6 11.4h6l.4-11.4H578ZM613.2 90h-20.6l5.8-32.4h8L602 83h12.4l-1.2 7Zm26.2 0h-22.6l5.7-32.4H645l-1.3 7h-14.5l-1 6h12l-1.3 7.1h-12L626 83h14.5l-1.2 7Z"/>
		<rect width="235" height="29" x="9.5" y="9.5" stroke="#fff" stroke-dasharray="4.4 4.4" rx="5.5"/>
		<path fill="#fff" d="m24.7 20.7-.1.2h-4.7v2.4H23V25h-3.1v2.4h4.7V29h-6.7v-9.7l.1-.1h6.6v1.5Zm1 8.3c-.1 0-.1-.1 0-.2l2.6-4.7-2.7-4.7.1-.2h1.8l.2.1 1.9 3.2 1.9-3.2.2-.1h1.9v.2l-2.8 4.7 2.8 4.7c0 .2 0 .2-.2.2h-1.7l-.2-.1-1.9-3.2-1.9 3.2-.2.1h-1.8Zm12.2.1c-.7 0-1.4-.1-2-.4-.5-.3-.9-.7-1.2-1.2-.3-.5-.4-1.1-.4-1.8v-3.2c0-.7.1-1.3.4-1.8.3-.5.7-1 1.3-1.2.5-.3 1.2-.4 1.9-.4s1.3.1 1.9.4c.5.3 1 .6 1.3 1.1.3.5.4 1 .4 1.7l-.1.2h-1.9c0-.6-.1-1-.4-1.3-.3-.3-.7-.4-1.2-.4s-1 .1-1.2.4c-.3.3-.5.7-.5 1.2v3.4c0 .5.2.9.5 1.2.3.3.7.4 1.2.4s.9-.1 1.2-.4c.3-.3.4-.7.4-1.2l.2-.2 1.7.1.1.2c0 .6-.1 1.2-.4 1.7a3 3 0 0 1-1.3 1.1 4 4 0 0 1-1.9.4Zm5.2-.1-.1-.2v-9.5l.1-.1h1.7l.1.2v7.8l.1.1h4.7V29h-6.6Zm11.4.1a4 4 0 0 1-1.9-.4c-.5-.3-1-.7-1.2-1.2-.3-.5-.5-1-.5-1.7v-6.5l.2-.1h1.7v6.7c0 .5.2.9.5 1.2.3.3.7.4 1.2.4s1-.1 1.2-.4c.3-.3.5-.7.5-1.2v-6.5l.2-.1H58v6.6c0 .6 0 1.2-.4 1.7a3 3 0 0 1-1.3 1.2 4 4 0 0 1-1.9.4Zm8.6 0a5 5 0 0 1-2-.3 3 3 0 0 1-1.2-1 3 3 0 0 1-.5-1.6v-.4h2v.3c0 .4.2.7.6 1 .3.2.8.3 1.4.3.5 0 .8 0 1-.3.3-.2.5-.5.5-.8 0-.2-.1-.4-.3-.5-.1-.2-.3-.3-.6-.4a15 15 0 0 0-1.2-.5l-1.6-.7c-.4-.2-.8-.5-1-.9-.4-.4-.5-.9-.5-1.4 0-.6.1-1 .4-1.5a3 3 0 0 1 1.2-1c.5-.2 1.1-.3 1.8-.3a4 4 0 0 1 3.2 1.4c.3.5.5 1 .5 1.6v.2l-.1.1h-1.9v-.2c0-.4-.2-.7-.6-1a2 2 0 0 0-1.3-.4c-.4 0-.8 0-1 .3a1 1 0 0 0-.4.7c0 .3 0 .5.2.6l.7.5a30 30 0 0 0 2.8 1.1c.4.2.8.5 1 .8.4.4.5.9.5 1.5 0 .8-.3 1.5-1 2-.6.6-1.5.8-2.6.8Zm5.2-.1h-.1v-9.8H70V29h-1.7Zm6.1 0-.2-.1-2.9-9.5c0-.2 0-.2.2-.2h1.7l.2.1 1.9 6.9 2-6.9.1-.1h1.9v.2l-3 9.5-.1.1h-1.8Zm12.8-8.3v.2h-4.8v2.4h3.2V25h-3.2v2.4h4.7l.1.2V29h-6.7v-9.8h6.6l.1.2v1.3Zm4.4 8.3h-.2v-9.7l.2-.1H95c.7 0 1.3.1 1.8.4.5.2 1 .6 1.2 1 .3.5.5 1 .5 1.6V26a3 3 0 0 1-.5 1.6 3 3 0 0 1-1.2 1c-.5.3-1.1.4-1.8.4h-3.5Zm1.8-1.8v.1h1.7c.5 0 .8-.1 1-.4.3-.3.5-.7.5-1.2v-3.2c0-.5-.1-.9-.4-1.2-.3-.3-.6-.4-1-.4h-1.8v6.3Zm13.5-6.5-.1.2h-4.7v2.4h3.1V25h-3.1v2.4h4.7V29h-6.7v-9.7l.1-.1h6.6v1.5Zm7.6 8.3-.2-.1-.4-1.4h-3.6l-.4 1.4-.2.1h-1.9v-.2l3-9.5.2-.1h2.2l.1.1 3 9.5v.2h-1.8Zm-3.7-3.2v.1h2.5l-1.2-4.2-1.3 4.1Zm7 3.2h-.1v-9.8h1.8v8l.2.1h4.7V29h-6.6Zm17.4-8.3v.2h-4.7v2.4h3.1V25h-3.1v4h-.2v.1h-1.8v-9.7l.1-.1h6.5l.1.2v1.3Zm4.5 8.5a4 4 0 0 1-1.9-.5c-.5-.3-1-.7-1.3-1.2a4 4 0 0 1-.4-1.9v-3a3.3 3.3 0 0 1 1.7-3.1 4 4 0 0 1 2-.4 4 4 0 0 1 1.9.4 3.3 3.3 0 0 1 1.7 3.1v3a4 4 0 0 1-.4 1.9 3 3 0 0 1-1.3 1.2 4 4 0 0 1-2 .5Zm0-1.7c.6 0 1-.2 1.3-.5.3-.4.5-.8.5-1.3v-3.1c0-.6-.2-1-.5-1.3-.3-.4-.7-.5-1.3-.5-.5 0-.9.1-1.2.5-.3.3-.5.7-.5 1.3v3c0 .6.2 1 .5 1.4.3.3.7.5 1.2.5Zm10.6 1.5-.2-.1-1.7-3.9H147v3.8l-.1.2H145v-9.7l.1-.1h4a3 3 0 0 1 1.6.4c.4.2.8.6 1 1 .3.4.4 1 .4 1.6 0 .6-.1 1.1-.5 1.6-.3.4-.7.8-1.3 1l1.9 4c0 .2 0 .2-.2.2h-1.7Zm-3.3-8.1v2.5h1.8c.4 0 .7 0 1-.3.2-.3.4-.6.4-1 0-.3-.2-.6-.4-.8-.3-.3-.6-.4-1-.4H147Zm15-1.5v-.1l.1-.1h1.8V29h-1.7l-.2-.1-3.6-6h-.1v6l-.1.1h-1.8v-9.7l.1-.1h1.6l.2.1 3.6 6v-6Zm10.4 1.3v.2h-4.8v2.4h3.1l.1.2V25h-3.2v2.4h4.7V29h-6.6l-.1-.2v-9.5l.1-.1h6.6v1.5Zm4 8.3-.1-.1-3-9.5c0-.2.1-.2.2-.2h1.8l.2.1 1.8 6.9h.1l1.9-6.9.1-.1h1.9v.2l-3 9.5-.1.1h-1.8Zm12.9-8.3v.2h-4.8v2.4h3.1V25h-3.2v2.3l.1.1h4.7V29h-6.6l-.1-.2v-9.5l.1-.1h6.6v1.5Zm7.7 8.4c-.7 0-1.4-.1-2-.4-.4-.3-.9-.7-1.2-1.2a3 3 0 0 1-.4-1.7v-6.5l.1-.1h1.7l.1.2v6.4c0 .5.2.9.5 1.2.3.3.7.4 1.2.4s.9-.1 1.2-.4c.3-.3.5-.7.5-1.2v-6.5l.1-.1h1.7l.1.2v6.4c0 .6-.1 1.2-.4 1.7a3 3 0 0 1-1.3 1.2 4 4 0 0 1-1.9.4Zm8.6 0a5 5 0 0 1-2-.3 3 3 0 0 1-1.3-1 3 3 0 0 1-.4-1.6v-.4h1.9v.3c0 .4.2.7.5 1 .4.2.9.3 1.4.3.5 0 1 0 1.2-.3.2-.2.3-.5.3-.8 0-.2 0-.4-.2-.5l-.6-.4a15 15 0 0 0-1.2-.5l-1.6-.7c-.5-.2-.8-.5-1.1-.9-.3-.4-.5-.9-.5-1.4a2.8 2.8 0 0 1 1.6-2.4c.6-.3 1.2-.4 1.9-.4s1.3.1 1.8.4c.6.2 1 .6 1.3 1 .4.5.5 1 .5 1.6v.3h-1.9v-.2c0-.4-.2-.7-.5-1a2 2 0 0 0-1.3-.4c-.5 0-.8 0-1 .3a1 1 0 0 0-.4.7c0 .3 0 .5.2.6l.6.5a29.6 29.6 0 0 0 3 1.1l1 .8c.2.4.4.9.4 1.5 0 .8-.3 1.5-1 2-.6.6-1.5.8-2.6.8Zm11.8-8.4v.2h-4.8v2.4h3.1V25h-3.2v2.3l.1.1h4.7V29h-6.6l-.1-.2v-9.5l.1-.1h6.6v1.5Zm6.7 8.3-.2-.1-1.7-3.9h-1.4v3.8l-.1.2h-1.9v-9.7l.1-.1h4a3 3 0 0 1 1.6.4c.4.2.8.6 1 1 .3.4.4 1 .4 1.6 0 .6-.1 1.1-.5 1.6-.3.4-.7.8-1.3 1l1.9 4c0 .2 0 .2-.2.2h-1.7Zm-3.3-8.1v2.5h1.8c.4 0 .7 0 1-.3.2-.3.4-.6.4-1 0-.3-.2-.6-.4-.8-.3-.3-.6-.4-1-.4h-1.8Zm9.9 8.2a5 5 0 0 1-2-.3 3 3 0 0 1-1.3-1 3 3 0 0 1-.4-1.6v-.4h2v.3c0 .4.2.7.5 1 .4.2.9.3 1.4.3.5 0 1 0 1.2-.3.2-.2.3-.5.3-.8 0-.2 0-.4-.2-.5l-.6-.4a15 15 0 0 0-1.2-.5l-1.6-.7c-.5-.2-.8-.5-1.1-.9-.3-.4-.5-.9-.5-1.4a2.8 2.8 0 0 1 1.6-2.4c.6-.3 1.2-.4 1.9-.4s1.3.1 1.8.4c.6.2 1 .6 1.3 1 .4.5.5 1 .5 1.6v.3h-2v-.2c0-.4-.2-.7-.5-1a2 2 0 0 0-1.3-.4c-.5 0-.8 0-1 .3a1 1 0 0 0-.4.7c0 .3 0 .5.2.6l.6.5a30 30 0 0 0 3 1.1l1 .8c.2.4.4.9.4 1.5 0 .8-.3 1.5-1 2-.6.6-1.5.8-2.6.8ZM23.1 125.2c-1 0-2-.2-2.8-.6-.8-.4-1.4-1-2-1.7L20 121a3.8 3.8 0 0 0 3.2 1.9c.3 0 .6 0 .8-.2.3 0 .4-.1.6-.3l.2-.5c0-.2 0-.3-.2-.4a1 1 0 0 0-.3-.4l-.5-.2-.6-.2-.6-.2a8 8 0 0 1-1.6-.5c-.5-.2-.9-.4-1.2-.7a3 3 0 0 1-.9-2.3c0-.7.2-1.3.6-1.8.4-.5 1-1 1.6-1.2a5 5 0 0 1 2-.5c1.1 0 2 .2 2.7.6a4 4 0 0 1 1.6 1.4l-1.7 1.6-1.2-1a2.8 2.8 0 0 0-2.1-.1c-.2 0-.4.2-.5.3-.2.2-.2.3-.2.5l.1.5.5.3a3.8 3.8 0 0 0 1.3.4l1.6.5c.5.2.9.4 1.2.7.4.3.6.6.8 1a3.4 3.4 0 0 1-.3 3.3c-.3.5-.8 1-1.5 1.2-.7.3-1.4.5-2.3.5Zm10.7-.2v-5.2c0-.5-.1-.8-.3-1-.3-.2-.6-.3-1-.3-.5 0-.8 0-1.2.2l-.9.8L29 118c.5-.5 1-1 1.7-1.2a5.4 5.4 0 0 1 4.1-.2c.5.3.9.6 1.2 1 .3.5.4 1 .4 1.7v5.7h-2.5Zm-2.2.2c-.5 0-1-.1-1.4-.4a2 2 0 0 1-1-.8c-.3-.4-.4-.9-.4-1.4 0-.4 0-.8.2-1.1l.7-.9 1.2-.4a7 7 0 0 1 1.7-.2H35l-.1 1.6h-3a1 1 0 0 0-.4.2l-.3.3v.8l.4.3H33l.7-.5.5-.5.4 1.1a4.1 4.1 0 0 1-1.8 1.6l-1.2.3Zm9.2-.2-3.6-8.5h2.9l2 6.3h-.5l2.1-6.3h2.9l-3.8 8.5h-2Zm10.9.2c-1 0-1.8-.2-2.5-.6a4 4 0 0 1-2.1-3.8c0-.7 0-1.3.3-1.8a4.1 4.1 0 0 1 2.3-2.3 4.5 4.5 0 0 1 3.3 0 3.9 3.9 0 0 1 2.1 2.2c.2.5.3 1.1.3 1.7v.7h-6.8l-.3-1.4h5l-.3.3v-.4c0-.2 0-.5-.2-.7l-.6-.4c-.2-.2-.5-.2-.8-.2-.4 0-.7 0-1 .2-.3.2-.6.4-.7.7l-.2 1.2c0 .5 0 .9.3 1.2.2.4.5.6.8.8.4.2.9.3 1.4.3a2.7 2.7 0 0 0 1.9-.7L55 124l-1 .7a5 5 0 0 1-1.2.4l-1.2.2Zm15.6 0a3.8 3.8 0 0 1-2.8-1.2l-.4-.8.6-.2-.1 2h-2.4v-11.8h2.5v5.3l-.5-.2c0-.3.2-.5.4-.7l.7-.7a3.5 3.5 0 0 1 3.8 0c.6.4 1 1 1.4 1.6.3.6.5 1.4.5 2.3a5 5 0 0 1-.5 2.2 4 4 0 0 1-1.3 1.6c-.6.4-1.2.6-2 .6Zm-.7-2.2c.4 0 .7 0 1-.3.3-.2.5-.4.6-.8.2-.3.3-.7.3-1.1 0-.5 0-.9-.3-1.2-.1-.4-.3-.6-.6-.8-.3-.2-.6-.3-1-.3s-.7.1-1 .3c-.3.2-.5.4-.7.8-.2.3-.2.7-.2 1.2 0 .4 0 .8.2 1.1.2.4.4.6.7.8.3.2.6.3 1 .3Zm6.2 2v-8.5h2.6v8.5h-2.6Zm1.3-10.2c-.5 0-.9 0-1.1-.3-.3-.2-.4-.6-.4-1s.1-.7.4-1c.3-.2.6-.3 1.1-.3.5 0 .9 0 1.1.3.3.2.4.6.4 1s-.1.7-.4 1c-.2.2-.6.3-1 .3Zm7.6 13.9a7.3 7.3 0 0 1-3.7-1l.9-2c.3.3.7.5 1.1.6.5.2 1 .2 1.4.2.5 0 1 0 1.3-.2.4-.2.6-.4.8-.7l.2-1.2V123h.5c0 .4-.2.7-.5 1l-1.1.7c-.4.2-.9.2-1.4.2a4 4 0 0 1-2-.5 4 4 0 0 1-1.5-1.5 5 5 0 0 1-.5-2.2c0-.8.2-1.6.5-2.3a4 4 0 0 1 1.5-1.5 3.7 3.7 0 0 1 2.9-.5l.8.3.7.5.5.5.2.6-.5.1v-1.9h2.5v7.8a5 5 0 0 1-.3 1.9c-.2.5-.5 1-1 1.3-.3.4-.8.7-1.4.9-.5.2-1.2.3-1.9.3Zm0-5.8c.5 0 .8 0 1.1-.2.4-.2.6-.5.8-.8l.2-1.2c0-.4 0-.8-.2-1.1-.2-.4-.4-.6-.8-.8a2 2 0 0 0-1-.3c-.4 0-.8.1-1 .3-.4.2-.6.4-.8.8l-.2 1.1c0 .5 0 .9.2 1.2a1.9 1.9 0 0 0 1.8 1Zm13.8 2.1-2.8-8.5h2.7L97 122h-.4l1.8-4.3h1.5l1.9 4.2h-.4l1.6-5.4h2.7l-3 8.5H101l-1.9-4.5h.2l-1.8 4.5h-1.9Zm11.6 0v-8.5h2.6v8.5h-2.6Zm1.3-10.2c-.5 0-.8 0-1.1-.3-.3-.2-.4-.6-.4-1s.1-.7.4-1a2 2 0 0 1 1.1-.3c.5 0 .9 0 1.1.3.3.2.5.6.5 1s-.2.7-.5 1c-.2.2-.6.3-1 .3Zm4.4 10.2v-10.6h2.6V125h-2.6Zm-1.5-6.2v-2.3h5.7v2.3h-5.7Zm7.2 6.2v-11.8h2.6v5l-.6.2.7-1a3.5 3.5 0 0 1 2.4-1 3 3 0 0 1 1.6.3c.5.3.8.7 1 1.2.2.5.3 1.1.3 1.9v5.2H124v-5c0-.3 0-.6-.2-.9a1 1 0 0 0-.4-.5l-.7-.1a1.7 1.7 0 0 0-1.2.4 1.3 1.3 0 0 0-.4 1v5.1h-2.6Zm19.8 0v-5.2c0-.5 0-.8-.3-1-.3-.2-.6-.3-1-.3s-.8 0-1.1.2c-.4.2-.7.4-1 .8l-1.5-1.5c.5-.5 1-1 1.8-1.2a4.9 4.9 0 0 1 4-.1c.5.2.9.5 1.2 1 .3.4.4 1 .4 1.6v5.7h-2.5Zm-2.2.2c-.5 0-1-.1-1.4-.4a2 2 0 0 1-1-.8c-.3-.4-.4-.9-.4-1.4 0-.4 0-.8.2-1.1l.7-.9 1.2-.4a7 7 0 0 1 1.7-.2h2.5l-.1 1.6h-3a1 1 0 0 0-.4.2l-.3.3v.8l.4.3h1.3l.7-.5.5-.5.4 1.1a4.1 4.1 0 0 1-1.8 1.6l-1.2.3Z"/>
		<path stroke="#F5F5F5" stroke-dasharray="4 4" d="M148 130.5h132"/>
		<path fill="#FFCB7C" d="M148.2 124.8v-11.2h2.8v8.8h5v2.4h-7.8Zm9.7 0v-8.5h2.6v8.5h-2.6Zm1.3-10.1c-.5 0-.9-.2-1.2-.4-.2-.2-.4-.5-.4-1 0-.4.2-.7.4-1 .3-.2.7-.3 1.2-.3s.8.1 1 .4c.4.2.5.5.5 1 0 .3-.1.6-.4.9-.3.2-.6.4-1.1.4Zm4.2 10.1V116c0-.5.1-1 .4-1.5a2.8 2.8 0 0 1 2.5-1.4c.4 0 .8 0 1.1.2.4 0 .7.2 1 .4l-.8 2c-.1-.2-.3-.2-.4-.3a1.1 1.1 0 0 0-.8 0c-.2.1-.3.2-.3.4v9.1h-2.8Zm-1.2-6v-2.2h5.6v2.1h-5.6ZM173 125c-1 0-1.8-.2-2.5-.6a4 4 0 0 1-2.2-3.8l.3-1.8c.2-.5.5-1 1-1.4a3 3 0 0 1 1.3-.9 4.5 4.5 0 0 1 3.4 0 3.9 3.9 0 0 1 2 2.2c.3.6.4 1.1.3 1.7v.8H170l-.4-1.5h5l-.2.3v-.3a1 1 0 0 0-.3-.7 1 1 0 0 0-.6-.5l-.7-.2a2 2 0 0 0-1.1.3c-.3.1-.5.4-.7.7l-.2 1.1c0 .5.1.9.3 1.2.2.4.5.7.9.9.3.2.8.3 1.3.3a2.7 2.7 0 0 0 2-.8l1.1 1.7-1 .7a5 5 0 0 1-1.2.4l-1.2.2Zm6-.2v-10.6h2.6v10.6H179Zm-1.5-6.2v-2.3h5.7v2.3h-5.7Zm7.3 6.2v-8.5h2.6v8.5h-2.6Zm1.3-10.1c-.5 0-.9-.2-1.1-.4-.3-.2-.4-.5-.4-1 0-.4 0-.7.4-1 .2-.2.6-.3 1.1-.3.5 0 .8.1 1.1.4.3.2.4.5.4 1 0 .3-.1.6-.4.9-.3.2-.6.4-1 .4Zm3.7 10.1v-8.5h2.4l.1 1.6h-.3c0-.3.2-.5.4-.7l.7-.6a3.3 3.3 0 0 1 2.8-.2l.9.6.6 1.1h-.4l.1-.2.5-.7a3.6 3.6 0 0 1 2.4-1c.7 0 1.3.1 1.7.4.5.2.8.6 1 1.2.2.5.4 1.1.4 1.9v5.1h-2.6v-5c0-.4-.1-.8-.3-1-.2-.3-.6-.4-1-.4h-.6l-.5.4a1.4 1.4 0 0 0-.4 1v5h-2.6v-5c0-.4 0-.8-.3-1-.2-.3-.5-.4-1-.4h-.5l-.5.4a1.4 1.4 0 0 0-.4 1v5h-2.6Zm19.4.2c-.9 0-1.7-.2-2.4-.6a4 4 0 0 1-2.2-3.8l.3-1.8c.2-.5.5-1 1-1.4a3 3 0 0 1 1.3-.9 4.5 4.5 0 0 1 3.4 0 3.8 3.8 0 0 1 2 2.2c.3.6.4 1.1.4 1.7v.8h-6.8l-.4-1.5h5l-.2.3v-.3a1 1 0 0 0-.3-.7l-.5-.5-.8-.2a2 2 0 0 0-1.1.3c-.3.1-.5.4-.7.7l-.2 1.1c0 .5.1.9.3 1.2.2.4.5.7.9.9.4.2.8.3 1.3.3a2.7 2.7 0 0 0 2-.8l1.1 1.7-1 .7a5 5 0 0 1-1.2.4l-1.2.2Zm10.8-.2v-11.2h2.7v8.8h5v2.4H220Zm9.6 0v-8.5h2.6v8.5h-2.6Zm1.3-10.1c-.5 0-.9-.2-1.1-.4-.3-.2-.4-.5-.4-1 0-.4 0-.7.4-1 .2-.2.6-.3 1.1-.3.5 0 .8.1 1.1.4.3.2.4.5.4 1 0 .3-.1.6-.4.9-.3.2-.6.4-1.1.4Zm7.4 10.3c-.8 0-1.5-.2-2.2-.6-.6-.4-1.2-.9-1.5-1.6a4 4 0 0 1-.6-2.2c0-.9.2-1.6.6-2.3a4.1 4.1 0 0 1 3.7-2.1c.8 0 1.5.1 2.1.4.7.2 1.2.6 1.5 1l-1.4 1.8a2.5 2.5 0 0 0-2-1 2 2 0 0 0-1.7 1l-.3 1.2c0 .4.1.7.3 1 .2.4.4.7.7.8.3.2.7.3 1 .3h.8l.7-.4.5-.5 1.4 1.7c-.3.5-.9.8-1.5 1-.7.4-1.3.5-2 .5Zm9.1 0c-1 0-1.8-.2-2.5-.6a4 4 0 0 1-2.2-3.8c0-.6.1-1.2.4-1.8l.8-1.4a4.5 4.5 0 0 1 4.8-1 3.8 3.8 0 0 1 2.1 2.3c.2.6.3 1.1.3 1.7v.8h-6.8l-.4-1.5h5l-.2.3v-.3a1 1 0 0 0-.3-.7c0-.2-.3-.4-.5-.5l-.8-.2c-.4 0-.8.1-1 .3-.4.1-.6.4-.7.7a2 2 0 0 0-.3 1.1c0 .5.1.9.3 1.2.2.4.5.7.9.9.4.2.8.3 1.4.3a2.7 2.7 0 0 0 1.8-.8l1.2 1.7c-.3.3-.6.6-1 .7a5 5 0 0 1-1.2.4l-1.1.2Zm5.3-.2v-8.5h2.5v1.8l-.5.2c.1-.4.4-.8.7-1a3.5 3.5 0 0 1 2.4-1.1 3 3 0 0 1 1.6.4c.5.2.8.6 1 1.1.2.5.3 1.2.3 2v5.1h-2.5v-5c0-.3 0-.6-.2-.8a1 1 0 0 0-.4-.5l-.7-.2a1.7 1.7 0 0 0-1.2.5 1.3 1.3 0 0 0-.4 1v5h-2.6Zm13.1.2c-.9 0-1.6-.1-2.2-.4a4 4 0 0 1-1.6-1l1.6-1.4a3.2 3.2 0 0 0 2.7.9l.3-.1.1-.2.1-.3c0-.2 0-.4-.3-.5l-.4-.2-.9-.3a7 7 0 0 1-1.3-.4c-.4-.2-.7-.4-.9-.7l-.5-.7-.2-1a2.5 2.5 0 0 1 1.8-2.2c.5-.2 1-.3 1.6-.3a5.3 5.3 0 0 1 3.5 1.3L268 119a3.9 3.9 0 0 0-1.4-.8 1.9 1.9 0 0 0-1.1-.2c-.2 0-.3.1-.3.2l-.2.2v.6l.3.2.5.2 1 .3 1.2.5c.4.1.6.3.9.6l.3.6.2.8c0 .5-.2 1-.5 1.4a3 3 0 0 1-1.2 1 4 4 0 0 1-1.9.4Zm9.1 0c-1 0-1.8-.2-2.5-.6a4 4 0 0 1-2.2-3.8l.3-1.8c.2-.5.5-1 1-1.4a3 3 0 0 1 1.3-.9 4.5 4.5 0 0 1 3.4 0 3.9 3.9 0 0 1 2.1 2.2c.2.6.3 1.1.3 1.7v.8h-6.8l-.4-1.5h5l-.2.3v-.3a1 1 0 0 0-.3-.7l-.5-.5-.8-.2c-.4 0-.8.1-1 .3-.4.1-.6.4-.7.7a2 2 0 0 0-.3 1.1c0 .5.1.9.3 1.2.2.4.5.7.9.9.4.2.8.3 1.3.3a2.7 2.7 0 0 0 2-.8l1.1 1.7-1 .7a5 5 0 0 1-1.2.4l-1.1.2Z"/>
		<path fill="#fff" d="M289.5 125.2a4.2 4.2 0 0 1-4.3-4.4c0-.9.2-1.6.6-2.2a4 4 0 0 1 1.5-1.6c.7-.4 1.4-.6 2.2-.6a4.1 4.1 0 0 1 3.7 2.2c.4.6.6 1.3.6 2.2a4 4 0 0 1-.6 2.2 4.2 4.2 0 0 1-3.7 2.2Zm0-1.5a2.5 2.5 0 0 0 2.3-1.4l.3-1.5c0-.6 0-1-.3-1.5a2 2 0 0 0-1-1c-.3-.2-.8-.4-1.3-.4a2.5 2.5 0 0 0-2.3 1.4 3 3 0 0 0-.3 1.5l.3 1.5 1 1c.4.2.8.4 1.3.4Zm6.7 1.3v-9.3a2.3 2.3 0 0 1 1.2-2.2c.4-.2.8-.3 1.3-.3.3 0 .6 0 1 .2l.7.5-.6 1.2-.5-.3a1 1 0 0 0-.4 0h-.6l-.3.3-.1.6v9.3h-1.7Zm-1.4-6.7v-1.6h5v1.6h-5Zm11.5 6.7v-11.2h2.4l6 8h-.6a77.1 77.1 0 0 1-.3-5.3v-2.7h2.6V125H314l-6-8.2h.7a132.7 132.7 0 0 1 .4 4.5v3.7h-2.7Zm16.7.2c-1 0-1.8-.2-2.5-.6a4 4 0 0 1-2.1-3.8c0-.7 0-1.3.3-1.8a4.1 4.1 0 0 1 2.3-2.3 4.5 4.5 0 0 1 3.3 0 3.9 3.9 0 0 1 2.1 2.2c.2.5.3 1.1.3 1.7v.7h-6.8l-.3-1.4h5l-.3.3v-.4c0-.2 0-.5-.2-.7l-.6-.4c-.2-.2-.5-.2-.8-.2-.4 0-.7 0-1 .2-.3.2-.6.4-.7.7-.2.4-.2.7-.2 1.2s0 .9.3 1.2c.2.4.5.6.8.8.4.2.9.3 1.4.3a2.7 2.7 0 0 0 1.9-.7l1.2 1.7-1 .7-1.2.4-1.2.2Zm7.8-.2-3.5-8.5h2.8l2.1 6.3h-.6l2.2-6.3h2.8l-3.8 8.5h-2Zm10.9.2c-1 0-1.7-.2-2.4-.6a4 4 0 0 1-2.2-3.8c0-.7 0-1.3.3-1.8a4.1 4.1 0 0 1 2.3-2.3 4.5 4.5 0 0 1 3.3 0 3.8 3.8 0 0 1 2.2 2.2l.2 1.7v.7h-6.7l-.4-1.4h5l-.3.3v-.4c0-.2 0-.5-.2-.7l-.6-.4c-.2-.2-.5-.2-.7-.2-.5 0-.8 0-1.1.2l-.7.7-.2 1.2c0 .5 0 .9.3 1.2.2.4.5.6.8.8.4.2.9.3 1.4.3a2.7 2.7 0 0 0 1.9-.7l1.2 1.7-1 .7a5 5 0 0 1-1.2.4l-1.2.2Zm9.3-.2 4.5-11.2h2.3l4.4 11.2h-2.8l-2.1-5.7a19.4 19.4 0 0 0-.5-1.5 65.6 65.6 0 0 1-.4-1.5h.4a16.3 16.3 0 0 1-1 3l-2 5.7H351Zm2.1-2.1 1-2.1h5l.9 2h-7Zm13.9 5.8a7.3 7.3 0 0 1-3.7-1l1-2c.3.3.6.5 1 .6.5.2 1 .2 1.4.2.6 0 1 0 1.4-.2.3-.2.6-.4.7-.7.2-.3.3-.7.3-1.2V123h.5a2 2 0 0 1-.6 1l-1 .7c-.5.2-1 .2-1.4.2a4 4 0 0 1-2-.5 4 4 0 0 1-1.5-1.5 4 4 0 0 1-.5-2.2c0-.8.1-1.6.5-2.3a4 4 0 0 1 1.4-1.5 3.7 3.7 0 0 1 3-.5l.7.3.7.5.5.5.2.6-.5.1.1-1.9h2.5v7.8a5 5 0 0 1-.4 1.9 3 3 0 0 1-.9 1.3c-.4.4-.8.7-1.4.9a6 6 0 0 1-2 .3Zm.1-5.8c.4 0 .8 0 1-.2.4-.2.6-.5.8-.8.2-.3.3-.7.3-1.2a2 2 0 0 0-.3-1.1c-.2-.4-.4-.6-.7-.8a2 2 0 0 0-1-.3c-.5 0-.8.1-1.1.3-.3.2-.6.4-.7.8a2 2 0 0 0-.3 1.1c0 .5.1.9.3 1.2a1.9 1.9 0 0 0 1.7 1Zm10.9 2.3c-1 0-1.8-.2-2.5-.6a4 4 0 0 1-2.2-3.8c0-.7.1-1.3.3-1.8.2-.6.5-1 1-1.4.3-.4.8-.7 1.3-1a4.5 4.5 0 0 1 3.4 0 3.9 3.9 0 0 1 2 2.3c.3.5.4 1.1.3 1.7v.7H375l-.4-1.4h5l-.2.3v-.4a1 1 0 0 0-.3-.7c-.1-.2-.3-.3-.6-.4-.2-.2-.4-.2-.7-.2-.4 0-.8 0-1.1.2l-.7.7-.2 1.2c0 .5.1.9.3 1.2.2.4.5.6.9.8.3.2.8.3 1.3.3a2.7 2.7 0 0 0 2-.7l1.1 1.7-1 .7a5 5 0 0 1-1.2.4l-1.2.2Zm5.3-.2v-8.5h2.4l.1 1.7-.5.2c.1-.4.3-.7.6-1a3.5 3.5 0 0 1 2.5-1 3 3 0 0 1 1.6.3c.4.3.7.7 1 1.2.2.5.3 1.1.3 1.9v5.2h-2.6v-5l-.1-.9a1 1 0 0 0-.5-.5l-.7-.1a1.7 1.7 0 0 0-1.1.4 1.3 1.3 0 0 0-.4 1v5.1h-2.6Zm13.9.2a4 4 0 0 1-2.2-.6c-.7-.4-1.2-1-1.6-1.6-.4-.7-.5-1.4-.5-2.2a4.1 4.1 0 0 1 4.3-4.4 4.4 4.4 0 0 1 3.6 1.4l-1.4 1.7a2.5 2.5 0 0 0-2-1 2 2 0 0 0-1.8 1.1l-.2 1.1c0 .4 0 .8.2 1.1.2.4.5.6.8.8.3.2.6.3 1 .3l.8-.1.6-.3.6-.5 1.4 1.7a5.4 5.4 0 0 1-3.6 1.5Zm5.8 3.5 2-4.6v1.4l-4.1-9h2.9l1.8 4.3a6.1 6.1 0 0 1 .4 1.4l-.3.2.2-.6.3-.8 1.5-4.5h3L407 125l-1.5 3.7H403Zm14.2-3.7v-11.2h4.9c.7 0 1.3.2 1.9.5a3.6 3.6 0 0 1 1.8 3.2 4 4 0 0 1-.5 1.9 3.6 3.6 0 0 1-3.2 1.9H420v3.7h-2.8Zm2.7-6.2h1.8a1.2 1.2 0 0 0 1.1-.6l.2-.7c0-.3 0-.5-.2-.7a1.3 1.3 0 0 0-1-.6h-1.9v2.6Zm7.7 6.2v-11.8h2.5V125h-2.5Zm9.2 0v-5.2c0-.5-.1-.8-.4-1-.2-.2-.5-.3-1-.3-.4 0-.7 0-1 .2-.4.2-.7.4-1 .8l-1.5-1.5c.5-.5 1-1 1.7-1.2.7-.3 1.4-.5 2.2-.5a5 5 0 0 1 1.8.3c.6.3 1 .6 1.3 1 .2.5.4 1 .4 1.7v5.7h-2.5Zm-2.2.2c-.5 0-1-.1-1.5-.4l-1-.8c-.2-.4-.4-.9-.4-1.4 0-.4.1-.8.3-1.1.1-.4.4-.6.7-.9l1.2-.4a7 7 0 0 1 1.6-.2h2.6l-.1 1.6h-3a1 1 0 0 0-.4.2l-.3.3v.8l.4.3h1.3l.7-.5.4-.5.5 1.1a4.1 4.1 0 0 1-1.9 1.6 2 2 0 0 1-1.1.3Zm6.7-.2v-8.5h2.5v1.7l-.4.2c0-.4.3-.7.6-1a3.5 3.5 0 0 1 2.4-1 3 3 0 0 1 1.6.3c.5.3.8.7 1 1.2.2.5.4 1.1.4 1.9v5.2h-2.6v-5c0-.3 0-.6-.2-.9a1 1 0 0 0-.4-.5l-.7-.1a1.7 1.7 0 0 0-1.2.4 1.3 1.3 0 0 0-.4 1v5.1h-2.6Zm10.9.2c-.4 0-.6-.1-.8-.3-.2-.2-.3-.5-.3-1 0-.3.1-.6.3-.8.2-.2.5-.3.8-.3.4 0 .6 0 .8.3.2.2.3.5.3.9 0 .3-.1.6-.3.8a1 1 0 0 1-.8.4Zm12.8 0a6 6 0 0 1-2.3-.5c-.7-.3-1.4-.7-1.9-1.2a5.7 5.7 0 0 1-1.6-4.1 6 6 0 0 1 1.6-4.2 6.2 6.2 0 0 1 4.2-1.6 6 6 0 0 1 2.3.4 5.4 5.4 0 0 1 3 3 6 6 0 0 1 0 4.6 5.5 5.5 0 0 1-5.3 3.6Zm0-2.6 1.2-.3a2 2 0 0 0 1-.6l.6-1 .2-1.3c0-.5 0-1-.2-1.3a3 3 0 0 0-.7-1 2.7 2.7 0 0 0-2.1-1 2.9 2.9 0 0 0-2.2 1 3 3 0 0 0-.6 1c-.2.4-.2.8-.2 1.3 0 .6.1 1.1.4 1.6.2.5.6.9 1 1.2.5.2 1 .4 1.6.4Zm7.6 2.4v-8.5h2.4l.1 1.7-.5.2c.1-.4.3-.7.6-1a3.5 3.5 0 0 1 2.5-1 3 3 0 0 1 1.6.3c.4.3.8.7 1 1.2.2.5.3 1.1.3 1.9v5.2H478v-5l-.1-.9a1 1 0 0 0-.4-.5l-.8-.1a1.7 1.7 0 0 0-1.1.4 1.3 1.3 0 0 0-.4 1v5.1h-2.6Zm10.2 0v-11.8h2.5V125h-2.5Zm5.7 3.7 2-4.6v1.4l-4.2-9h3l1.7 4.3a6.1 6.1 0 0 1 .5 1.4l-.4.2.2-.6.3-.8 1.6-4.5h3l-3.7 8.5-1.4 3.7h-2.6Zm16.2-4.5v-9l.6 1.3-2.4 1.1-.5-2.4 3.2-1.6h1.8v10.6h-2.7Zm-2 .8v-2.4h6.8v2.4h-6.8Zm13 .2c-1 0-1.9-.3-2.6-.7a4.4 4.4 0 0 1-1.6-2c-.4-.9-.5-1.9-.5-3.1 0-1.2.1-2.2.5-3a4.5 4.5 0 0 1 4.2-2.8c1 0 1.8.3 2.5.7.8.5 1.3 1.1 1.7 2a9.6 9.6 0 0 1 0 6.2c-.4.9-1 1.5-1.7 2-.7.4-1.5.7-2.5.7Zm0-2.4c.7 0 1.2-.3 1.6-.9.3-.6.5-1.4.5-2.5a5 5 0 0 0-.5-2.6c-.4-.6-1-1-1.6-1-.7 0-1.2.4-1.6 1a5 5 0 0 0-.6 2.6c0 1.1.2 2 .6 2.5.4.6 1 1 1.6 1Zm10.7 2.4c-1 0-1.8-.3-2.5-.7a4.4 4.4 0 0 1-1.6-2c-.4-.9-.6-1.9-.6-3.1 0-1.2.2-2.2.6-3 .3-1 .9-1.6 1.6-2 .7-.5 1.5-.8 2.5-.8s1.9.3 2.6.7c.7.5 1.2 1.1 1.6 2 .4.9.6 1.9.6 3.1 0 1.2-.2 2.2-.6 3.1-.4.9-.9 1.5-1.6 2-.7.4-1.6.7-2.6.7Zm0-2.4c.7 0 1.2-.3 1.6-.9.4-.6.6-1.4.6-2.5a5 5 0 0 0-.6-2.6c-.4-.6-.9-1-1.6-1-.6 0-1.2.4-1.5 1a5 5 0 0 0-.6 2.6c0 1.1.2 2 .6 2.5.3.6.9 1 1.5 1ZM538 125v-11.8h2.6V125h-2.5Zm5 0v-8.5h2.6v8.5h-2.5Zm1.4-10.2c-.5 0-1 0-1.2-.3-.3-.2-.4-.6-.4-1s.1-.7.4-1c.3-.2.7-.3 1.2-.3.4 0 .8 0 1 .3.3.2.5.6.5 1s-.2.7-.4 1a2 2 0 0 1-1.1.3Zm7.4 10.4a4 4 0 0 1-2.2-.6c-.7-.4-1.2-1-1.6-1.6a5.4 5.4 0 0 1 0-4.5 4.1 4.1 0 0 1 3.8-2.2c.7 0 1.4.2 2 .4a5 5 0 0 1 1.6 1.1l-1.4 1.7a2.5 2.5 0 0 0-2-1 2 2 0 0 0-1.8 1.1l-.2 1.1c0 .4 0 .8.2 1.1.2.4.5.6.8.8.3.2.6.3 1 .3l.8-.1.6-.3.6-.5 1.4 1.7a4 4 0 0 1-1.5 1c-.7.3-1.4.5-2.1.5Zm9 0c-1 0-1.7-.2-2.4-.6a4 4 0 0 1-2.2-3.8c0-.7 0-1.3.3-1.8a4.1 4.1 0 0 1 2.3-2.3 4.5 4.5 0 0 1 3.4 0 3.9 3.9 0 0 1 2 2.2c.3.5.3 1.1.3 1.7v.7h-6.7l-.4-1.4h5l-.2.3v-.4l-.3-.7c-.1-.2-.3-.3-.6-.4-.2-.2-.4-.2-.7-.2-.5 0-.8 0-1.1.2l-.7.7-.2 1.2c0 .5.1.9.3 1.2.2.4.5.6.9.8.3.2.8.3 1.3.3a2.7 2.7 0 0 0 1.9-.7l1.2 1.7-1 .7-1.2.4-1.2.2Zm5.4-.2v-8.5h2.4l.1 1.7-.5.2c.1-.4.3-.7.6-1a3.6 3.6 0 0 1 2.5-1 3 3 0 0 1 1.6.3c.4.3.7.7 1 1.2.2.5.3 1.1.3 1.9v5.2h-2.6v-5l-.1-.9a1 1 0 0 0-.5-.5l-.7-.1a1.7 1.7 0 0 0-1.1.4 1.3 1.3 0 0 0-.5 1v5.1h-2.5Zm13 .2c-.8 0-1.5-.2-2.2-.4a4 4 0 0 1-1.5-1.1l1.6-1.4a3.2 3.2 0 0 0 2.6 1l.3-.2.2-.2v-.3c0-.2 0-.3-.2-.4l-.5-.2-.8-.3a7 7 0 0 1-1.4-.5c-.3-.1-.6-.3-.8-.6-.3-.2-.4-.4-.5-.7-.2-.3-.2-.6-.2-1 0-.5.2-1 .5-1.3a4 4 0 0 1 1.2-1 5.3 5.3 0 0 1 5.2 1l-1.4 1.5a3.9 3.9 0 0 0-1.4-.8 1.9 1.9 0 0 0-1 0h-.4l-.2.3v.5l.3.3a15 15 0 0 0 1.5.5l1.2.4 1 .7.3.6.1.8c0 .5-.1 1-.4 1.4a3 3 0 0 1-1.3 1c-.5.2-1.1.4-1.8.4Zm9.1 0c-1 0-1.8-.2-2.5-.6a4 4 0 0 1-2.1-3.8c0-.7 0-1.3.3-1.8a4.1 4.1 0 0 1 2.3-2.3 4.5 4.5 0 0 1 3.3 0 3.9 3.9 0 0 1 2.1 2.2c.2.5.3 1.1.3 1.7v.7h-6.7l-.4-1.4h5l-.3.3v-.4c0-.2 0-.5-.2-.7l-.6-.4c-.2-.2-.5-.2-.7-.2-.5 0-.8 0-1.1.2l-.7.7-.2 1.2c0 .5 0 .9.3 1.2.2.4.5.6.8.8.4.2.9.3 1.4.3a2.7 2.7 0 0 0 1.9-.7l1.2 1.7-1 .7a5 5 0 0 1-1.2.4l-1.2.2Zm8.2 0c-.8 0-1.5-.2-2.2-.4a4 4 0 0 1-1.5-1.1l1.6-1.4a3.2 3.2 0 0 0 2.6 1l.3-.2.2-.2v-.3c0-.2 0-.3-.2-.4 0-.1-.2-.2-.5-.2l-.8-.3a7 7 0 0 1-1.3-.5 2 2 0 0 1-1-.6l-.4-.7-.2-1c0-.5.2-1 .5-1.3a4 4 0 0 1 1.2-1 5.3 5.3 0 0 1 5.2 1l-1.4 1.5a3.9 3.9 0 0 0-1.4-.8 1.9 1.9 0 0 0-1 0h-.4l-.1.3-.1.2v.3l.3.3a15 15 0 0 0 1.5.5l1.3.4.8.7c.2.1.3.3.4.6l.1.8c0 .5-.1 1-.4 1.4a3 3 0 0 1-1.3 1c-.5.2-1.1.4-1.8.4Zm5.3 3-.8-.9a3 3 0 0 0 1-.7c.4-.3.5-.6.5-.8v-.3l-.4-.4-.6-.5v-.6c0-.4 0-.6.3-.8.2-.2.5-.3 1-.3.2 0 .5 0 .8.3.2.1.4.4.5.7.2.3.3.6.3 1s0 .7-.2 1a3.6 3.6 0 0 1-1.4 1.8l-1 .5Zm10-3.2v-9c0-.5.2-1 .4-1.4a2.8 2.8 0 0 1 2.5-1.5c.4 0 .8 0 1.1.2l1 .5-.8 1.9-.4-.2a1.1 1.1 0 0 0-.8 0l-.3.3v9.2h-2.8Zm-1.2-6.1v-2.2h5.6v2.2h-5.6Zm10.7 6.3c-.9 0-1.7-.2-2.4-.6a4.3 4.3 0 0 1-2.2-3.8c0-.9.2-1.7.6-2.3.4-.7 1-1.2 1.6-1.6.7-.4 1.5-.6 2.4-.6.9 0 1.6.2 2.3.6.7.4 1.3.9 1.7 1.6.4.6.6 1.4.6 2.3a4.3 4.3 0 0 1-2.2 3.8 5 5 0 0 1-2.4.6Zm0-2.2c.4 0 .7-.1 1-.3l.7-.8c.2-.4.2-.7.2-1.1 0-.5 0-.9-.2-1.2l-.7-.8c-.3-.2-.6-.3-1-.3s-.7.1-1 .3a2 2 0 0 0-.7.8c-.2.3-.3.7-.3 1.2 0 .4 0 .7.3 1 .1.4.4.7.7.9.3.2.6.3 1 .3Zm6.2 2v-8.5h2.5v2.8l-.4-.6.6-1.2 1-.9a2.7 2.7 0 0 1 1.9-.2h.4l-.7 3-.5-.2-.6-.1a1.7 1.7 0 0 0-1.1.4l-.4.6v4.9h-2.7Zm17 0v-5.2c0-.5-.2-.8-.4-1-.2-.2-.6-.3-1-.3s-.8 0-1.1.2l-1 .8-1.5-1.5c.5-.5 1.1-1 1.8-1.2a4.9 4.9 0 0 1 4-.1c.5.2 1 .5 1.2 1 .3.4.4 1 .4 1.6v5.7h-2.4Zm-2.2.2c-.6 0-1-.1-1.5-.4-.4-.2-.8-.5-1-.8-.3-.4-.4-.9-.4-1.4 0-.4 0-.8.2-1.1l.7-.9 1.2-.4a7 7 0 0 1 1.7-.2h2.6l-.2 1.6h-2.9a1 1 0 0 0-.5.2l-.2.3-.1.4.1.4.3.3h1.3l.7-.5.5-.5.4 1.1a4.1 4.1 0 0 1-1.8 1.6c-.4.2-.7.3-1.1.3Zm11.8-.2v-11.8h2.6V125H654Zm5 0v-8.5h2.6v8.5H659Zm1.3-10.2c-.5 0-.9 0-1.1-.3-.3-.2-.4-.6-.4-1s0-.7.4-1c.2-.2.6-.3 1.1-.3.5 0 .8 0 1.1.3.3.2.4.6.4 1s-.1.7-.4 1c-.3.2-.6.3-1.1.3ZM664 125v-8.5h2.5l.1 1.5h-.3l.4-.7.7-.5a3.3 3.3 0 0 1 1.6-.5l1.2.2.9.7.6 1.1h-.4l.1-.3.5-.7a3.6 3.6 0 0 1 2.4-1c.7 0 1.3.2 1.7.4.5.3.8.7 1 1.2.2.5.4 1.2.4 2v5.1h-2.6v-5c0-.5-.1-.9-.3-1.1-.2-.3-.6-.4-1-.4l-.6.1-.5.3a1.4 1.4 0 0 0-.4 1v5.1h-2.6v-5c0-.5 0-.8-.3-1.1-.2-.3-.5-.4-1-.4l-.5.1-.5.3a1.4 1.4 0 0 0-.4 1v5.1H664Zm15.6 0v-8.5h2.6v8.5h-2.6Zm1.3-10.2c-.5 0-.8 0-1.1-.3-.3-.2-.4-.6-.4-1s.1-.7.4-1a2 2 0 0 1 1.1-.3c.5 0 .9 0 1.1.3.3.2.5.6.5 1s-.2.7-.5 1c-.2.2-.6.3-1 .3Zm4.4 10.2v-10.6h2.6V125h-2.6Zm-1.5-6.2v-2.3h5.7v2.3h-5.7Zm11.2 6.4c-1 0-1.8-.2-2.5-.6a4 4 0 0 1-2.1-3.8c0-.7 0-1.3.3-1.8a4.1 4.1 0 0 1 2.3-2.3 4.5 4.5 0 0 1 3.3 0 3.9 3.9 0 0 1 2.1 2.2c.2.5.3 1.1.3 1.7v.7h-6.8l-.3-1.4h5l-.3.3v-.4c0-.2 0-.5-.2-.7l-.6-.4c-.2-.2-.5-.2-.8-.2-.4 0-.7 0-1 .2-.3.2-.6.4-.7.7-.2.4-.2.7-.2 1.2s0 .9.3 1.2c.2.4.5.6.8.8.4.2.9.3 1.4.3a2.7 2.7 0 0 0 1.9-.7l1.2 1.7-1 .7-1.2.4-1.2.2Zm8.6 0a3.6 3.6 0 0 1-3.4-2.2 5.2 5.2 0 0 1 0-4.5 4 4 0 0 1 1.4-1.6 3.5 3.5 0 0 1 3-.4 3.3 3.3 0 0 1 1.8 1.2l.3.8-.6.1v-5.4h2.5V125h-2.4l-.1-2 .5.2c0 .2-.1.5-.3.7-.1.3-.4.5-.7.7a3.7 3.7 0 0 1-2 .6Zm.6-2.2c.4 0 .7 0 1-.2l.7-.8c.2-.4.2-.8.2-1.2 0-.5 0-1-.2-1.3a1.8 1.8 0 0 0-1.7-1 1.8 1.8 0 0 0-1.7 1l-.2 1.3c0 .4 0 .8.2 1.2l.7.8 1 .2Zm12.4 2v-10.6h2.6V125h-2.6Zm-1.5-6.2v-2.3h5.7v2.3h-5.7Zm7.4 6.2v-8.5h2.5v8.5h-2.5Zm1.2-10.2c-.4 0-.8 0-1.1-.3-.3-.2-.4-.6-.4-1s.1-.7.4-1a2 2 0 0 1 1.1-.3c.5 0 .9 0 1.2.3.2.2.4.6.4 1s-.2.7-.4 1c-.3.2-.7.3-1.2.3Zm3.7 10.2v-8.5h2.5v1.5h-.3l.5-.7.7-.5a3.3 3.3 0 0 1 1.6-.5l1.1.2 1 .7c.2.2.4.6.5 1.1h-.4l.1-.3.6-.7a3.6 3.6 0 0 1 2.4-1c.6 0 1.2.2 1.7.4.4.3.7.7 1 1.2.2.5.3 1.2.3 2v5.1h-2.6v-5c0-.5 0-.9-.3-1.1-.2-.3-.5-.4-1-.4l-.6.1-.4.3a1.4 1.4 0 0 0-.4 1v5.1h-2.6v-5c0-.5-.1-.8-.4-1.1-.2-.3-.5-.4-.9-.4l-.6.1-.5.3a1.4 1.4 0 0 0-.4 1v5.1h-2.6Zm19.5.2c-1 0-1.8-.2-2.5-.6a4 4 0 0 1-2.2-3.8c0-.7.2-1.3.4-1.8a4.1 4.1 0 0 1 2.3-2.3 4.5 4.5 0 0 1 3.3 0 3.9 3.9 0 0 1 2.1 2.2c.2.5.3 1.1.3 1.7v.7h-6.8l-.4-1.4h5l-.2.3v-.4c0-.2 0-.5-.2-.7l-.6-.4c-.2-.2-.5-.2-.8-.2-.4 0-.8 0-1 .2-.3.2-.6.4-.7.7-.2.4-.2.7-.2 1.2s0 .9.3 1.2c.2.4.4.6.8.8.4.2.9.3 1.4.3a2.7 2.7 0 0 0 1.9-.7l1.2 1.7-1 .7a5 5 0 0 1-1.2.4l-1.2.2Zm5.8-4.2a92.5 92.5 0 0 1-.5-6.2v-1.2h2.7v1.2a27.6 27.6 0 0 1-.3 4.1c0 .7-.2 1.4-.3 2h-1.6Zm.8 4.2c-.4 0-.8-.1-1-.4-.2-.2-.4-.6-.4-1 0-.5.2-.8.4-1.1.3-.3.6-.4 1-.4.5 0 .8.1 1 .4.3.2.4.6.4 1 0 .5-.1.8-.4 1-.2.3-.6.5-1 .5Z"/>
	</g>
	<rect width="1005" height="147" x="1" y="1" stroke="#1F2733" stroke-width="2" rx="7"/>
	<defs>
		<clipPath id="a">
			<rect width="1007" height="149" fill="#fff" rx="8"/>
		</clipPath>
	</defs>
</svg>
