<svg width="32" height="33" viewBox="0 0 32 33" fill="none" xmlns="http://www.w3.org/2000/svg">
<path d="M16 0.499878C7.16342 0.499878 0 7.6633 0 16.4999C0 25.3365 7.16342 32.4999 16 32.4999C24.8366 32.4999 32 25.3365 32 16.4999C32 7.6633 24.8366 0.499878 16 0.499878ZM27.2062 8.21336L23.1159 12.3036C22.4071 11.1063 21.3953 10.0938 20.1963 9.38394L24.2865 5.29368C25.3978 6.11826 26.3816 7.10204 27.2062 8.21336ZM16 22.6934C12.5794 22.6934 9.80645 19.9205 9.80645 16.4999C9.80645 13.0793 12.5794 10.3063 16 10.3063C19.4206 10.3063 22.1935 13.0793 22.1935 16.4999C22.1935 19.9205 19.4206 22.6934 16 22.6934ZM7.71348 5.29368L11.8037 9.38394C10.6064 10.0928 9.59394 11.1046 8.88406 12.3036L4.79381 8.21336C5.61836 7.10203 6.60215 6.11824 7.71348 5.29368ZM4.79381 24.7864L8.88406 20.6961C9.5929 21.8935 10.6047 22.9059 11.8037 23.6158L7.71348 27.7061C6.60216 26.8815 5.61838 25.8977 4.79381 24.7864ZM24.2865 27.7061L20.1963 23.6158C21.3936 22.907 22.4061 21.8952 23.1159 20.6961L27.2062 24.7864C26.3816 25.8977 25.3978 26.8815 24.2865 27.7061Z" fill="#0073AA"/>
</svg>
