<svg width="32" height="29" viewBox="0 0 32 29" fill="none" xmlns="http://www.w3.org/2000/svg">
<path d="M29 28.5H3C1.34312 28.5 0 27.1569 0 25.5V3.5C0 1.84312 1.34312 0.5 3 0.5H29C30.6569 0.5 32 1.84312 32 3.5V25.5C32 27.1569 30.6569 28.5 29 28.5ZM8 6C6.61931 6 5.5 7.11931 5.5 8.5C5.5 9.88069 6.61931 11 8 11C9.38069 11 10.5 9.88069 10.5 8.5C10.5 7.11931 9.38069 6 8 6ZM8 12C6.61931 12 5.5 13.1193 5.5 14.5C5.5 15.8807 6.61931 17 8 17C9.38069 17 10.5 15.8807 10.5 14.5C10.5 13.1193 9.38069 12 8 12ZM8 18C6.61931 18 5.5 19.1193 5.5 20.5C5.5 21.8807 6.61931 23 8 23C9.38069 23 10.5 21.8807 10.5 20.5C10.5 19.1193 9.38069 18 8 18ZM26 9.5V7.5C26 7.08581 25.6642 6.75 25.25 6.75H12.75C12.3358 6.75 12 7.08581 12 7.5V9.5C12 9.91419 12.3358 10.25 12.75 10.25H25.25C25.6642 10.25 26 9.91419 26 9.5ZM26 15.5V13.5C26 13.0858 25.6642 12.75 25.25 12.75H12.75C12.3358 12.75 12 13.0858 12 13.5V15.5C12 15.9142 12.3358 16.25 12.75 16.25H25.25C25.6642 16.25 26 15.9142 26 15.5ZM26 21.5V19.5C26 19.0858 25.6642 18.75 25.25 18.75H12.75C12.3358 18.75 12 19.0858 12 19.5V21.5C12 21.9142 12.3358 22.25 12.75 22.25H25.25C25.6642 22.25 26 21.9142 26 21.5Z" fill="#0073AA"/>
</svg>
