<svg width="24" height="33" viewBox="0 0 24 33" fill="none" xmlns="http://www.w3.org/2000/svg">
<path d="M14 9.40631V0.906311H1.5C0.66875 0.906311 0 1.57506 0 2.40631V31.4063C0 32.2376 0.66875 32.9063 1.5 32.9063H22.5C23.3312 32.9063 24 32.2376 24 31.4063V10.9063H15.5C14.675 10.9063 14 10.2313 14 9.40631ZM18 24.1563C18 24.5688 17.6625 24.9063 17.25 24.9063H6.75C6.3375 24.9063 6 24.5688 6 24.1563V23.6563C6 23.2438 6.3375 22.9063 6.75 22.9063H17.25C17.6625 22.9063 18 23.2438 18 23.6563V24.1563ZM18 20.1563C18 20.5688 17.6625 20.9063 17.25 20.9063H6.75C6.3375 20.9063 6 20.5688 6 20.1563V19.6563C6 19.2438 6.3375 18.9063 6.75 18.9063H17.25C17.6625 18.9063 18 19.2438 18 19.6563V20.1563ZM18 15.6563V16.1563C18 16.5688 17.6625 16.9063 17.25 16.9063H6.75C6.3375 16.9063 6 16.5688 6 16.1563V15.6563C6 15.2438 6.3375 14.9063 6.75 14.9063H17.25C17.6625 14.9063 18 15.2438 18 15.6563ZM24 8.52506V8.90631H16V0.906311H16.3813C16.7812 0.906311 17.1625 1.06256 17.4438 1.34381L23.5625 7.46881C23.8438 7.75006 24 8.13131 24 8.52506Z" fill="#0073AA"/>
</svg>
