<svg width="34" height="34" viewBox="0 0 34 34" fill="none" xmlns="http://www.w3.org/2000/svg">
<path d="M0 0H34V34H0V0Z" fill="white"/>
<path fill-rule="evenodd" clip-rule="evenodd" d="M9.70053 22.3379C12.9529 25.5903 18.0887 25.8115 21.5972 23.0014L24.6614 26.0656C25.1667 26.5709 26.008 26.574 26.525 26.057C27.0456 25.5364 27.0458 24.7056 26.5336 24.1934L23.3998 21.0596C25.7817 17.5803 25.4277 12.7905 22.3378 9.70059C18.8481 6.21089 13.1902 6.21089 9.70053 9.70059C6.21083 13.1903 6.21083 18.8482 9.70053 22.3379ZM20.6997 11.3388C23.2846 13.9237 23.2846 18.1148 20.6997 20.6997C18.1147 23.2847 13.9237 23.2847 11.3387 20.6997C8.75375 18.1148 8.75375 13.9237 11.3387 11.3388C13.9237 8.75379 18.1147 8.75379 20.6997 11.3388Z" fill="#616161"/>
</svg>
