<svg width="32" height="29" viewBox="0 0 32 29" fill="none" xmlns="http://www.w3.org/2000/svg">
<path d="M9.33331 2.4552V7.4552C9.33331 8.28364 8.66175 8.9552 7.83331 8.9552H1.5C0.671562 8.9552 0 8.28364 0 7.4552V2.4552C0 1.62676 0.671562 0.9552 1.5 0.9552H7.83331C8.66175 0.9552 9.33331 1.62676 9.33331 2.4552ZM20.6667 17.4552V12.4552C20.6667 11.6268 19.9951 10.9552 19.1667 10.9552H12.8333C12.0049 10.9552 11.3333 11.6268 11.3333 12.4552V17.4552C11.3333 18.2836 12.0049 18.9552 12.8333 18.9552H19.1666C19.9951 18.9552 20.6667 18.2836 20.6667 17.4552ZM22.6667 2.4552V7.4552C22.6667 8.28364 23.3382 8.9552 24.1667 8.9552H30.5C31.3284 8.9552 32 8.28364 32 7.4552V2.4552C32 1.62676 31.3284 0.9552 30.5 0.9552H24.1667C23.3382 0.9552 22.6667 1.62676 22.6667 2.4552ZM20.6667 7.4552V2.4552C20.6667 1.62676 19.9951 0.9552 19.1667 0.9552H12.8333C12.0049 0.9552 11.3333 1.62676 11.3333 2.4552V7.4552C11.3333 8.28364 12.0049 8.9552 12.8333 8.9552H19.1666C19.9951 8.9552 20.6667 8.28364 20.6667 7.4552ZM7.83331 10.9552H1.5C0.671562 10.9552 0 11.6268 0 12.4552V17.4552C0 18.2836 0.671562 18.9552 1.5 18.9552H7.83331C8.66175 18.9552 9.33331 18.2836 9.33331 17.4552V12.4552C9.33331 11.6268 8.66175 10.9552 7.83331 10.9552ZM0 22.4552V27.4552C0 28.2836 0.671562 28.9552 1.5 28.9552H7.83331C8.66175 28.9552 9.33331 28.2836 9.33331 27.4552V22.4552C9.33331 21.6268 8.66175 20.9552 7.83331 20.9552H1.5C0.671562 20.9552 0 21.6268 0 22.4552ZM24.1667 18.9552H30.5C31.3284 18.9552 32 18.2836 32 17.4552V12.4552C32 11.6268 31.3284 10.9552 30.5 10.9552H24.1667C23.3382 10.9552 22.6667 11.6268 22.6667 12.4552V17.4552C22.6667 18.2836 23.3382 18.9552 24.1667 18.9552ZM24.1667 28.9552H30.5C31.3284 28.9552 32 28.2836 32 27.4552V22.4552C32 21.6268 31.3284 20.9552 30.5 20.9552H24.1667C23.3382 20.9552 22.6667 21.6268 22.6667 22.4552V27.4552C22.6667 28.2836 23.3382 28.9552 24.1667 28.9552ZM11.3333 22.4552V27.4552C11.3333 28.2836 12.0049 28.9552 12.8333 28.9552H19.1666C19.9951 28.9552 20.6666 28.2836 20.6666 27.4552V22.4552C20.6666 21.6268 19.9951 20.9552 19.1666 20.9552H12.8333C12.0049 20.9552 11.3333 21.6268 11.3333 22.4552Z" fill="#0073AA"/>
</svg>
