<svg xmlns="http://www.w3.org/2000/svg" width="150" height="60" viewBox="0 0 150 60"><defs><style>.a{fill:#0085ba;}.b{fill:#fff;}</style></defs><title>text_mode_light</title><rect class="a" width="150" height="60"/><path class="b" d="M39.65,37.83H24.13L21.07,45h-6L29.1,14h5.67L48.79,45h-6Zm-1.91-4.52L31.89,19.74,26.08,33.31Z"/><path class="b" d="M71.52,22.58a10.86,10.86,0,0,1,4.28,4.25,12.76,12.76,0,0,1,1.55,6.35,12.86,12.86,0,0,1-1.55,6.36,10.81,10.81,0,0,1-4.28,4.28,12.53,12.53,0,0,1-6.19,1.51,11.54,11.54,0,0,1-4.46-.84A8.75,8.75,0,0,1,57.48,42V45H52.2V12.11h5.55V24.22a9.14,9.14,0,0,1,3.35-2.35,10.77,10.77,0,0,1,4.23-.8A12.53,12.53,0,0,1,71.52,22.58Zm-1.77,16a7.41,7.41,0,0,0,2-5.36,7.42,7.42,0,0,0-2-5.37,6.72,6.72,0,0,0-5-2,7.07,7.07,0,0,0-3.59.91,6.5,6.5,0,0,0-2.53,2.59,8,8,0,0,0-.93,3.91,7.92,7.92,0,0,0,.93,3.9,6.5,6.5,0,0,0,2.53,2.59,7.07,7.07,0,0,0,3.59.91A6.72,6.72,0,0,0,69.75,38.54Z"/><path class="b" d="M86.89,43.78a11.42,11.42,0,0,1-4.57-4.33,12,12,0,0,1-1.64-6.27,11.94,11.94,0,0,1,1.64-6.26,11.43,11.43,0,0,1,4.55-4.3,13.75,13.75,0,0,1,6.63-1.55,12.74,12.74,0,0,1,6.14,1.42,9.16,9.16,0,0,1,4,4.08l-4.26,2.48a6.81,6.81,0,0,0-2.55-2.46,7.44,7.44,0,0,0-8.49,1.2,7.23,7.23,0,0,0-2,5.39,7.32,7.32,0,0,0,2,5.39,7,7,0,0,0,5.17,2,7,7,0,0,0,3.35-.82,6.66,6.66,0,0,0,2.55-2.46l4.26,2.49a9.64,9.64,0,0,1-4,4.1,12.52,12.52,0,0,1-6.09,1.44A13.93,13.93,0,0,1,86.89,43.78Z"/><path class="b" d="M131.24,12.11V45h-5.32V42a8.71,8.71,0,0,1-3.4,2.53,11.46,11.46,0,0,1-4.45.84,12.46,12.46,0,0,1-6.15-1.51,10.88,10.88,0,0,1-4.28-4.28,12.86,12.86,0,0,1-1.55-6.36,12.76,12.76,0,0,1,1.55-6.35,10.93,10.93,0,0,1,4.28-4.25,12.46,12.46,0,0,1,6.15-1.51,11.12,11.12,0,0,1,4.3.8,8.71,8.71,0,0,1,3.33,2.39V12.11Zm-8.91,27.56a6.55,6.55,0,0,0,2.52-2.59,7.92,7.92,0,0,0,.93-3.9,8,8,0,0,0-.93-3.91,6.55,6.55,0,0,0-2.52-2.59,7.56,7.56,0,0,0-7.19,0,6.57,6.57,0,0,0-2.53,2.59,8,8,0,0,0-.93,3.91,7.92,7.92,0,0,0,.93,3.9,6.57,6.57,0,0,0,2.53,2.59,7.56,7.56,0,0,0,7.19,0Z"/></svg>