<?xml version="1.0" encoding="UTF-8"?>
<svg width="100px" height="100px" viewBox="0 0 100 100" version="1.1" xmlns="http://www.w3.org/2000/svg" xmlns:xlink="http://www.w3.org/1999/xlink">
    <!-- Generator: Sketch 51.3 (57544) - http://www.bohemiancoding.com/sketch -->
    <title>wc-layout-left-grid</title>
    <desc>Created with Sketch.</desc>
    <defs></defs>
    <g id="wc-layout-left-grid" stroke="none" stroke-width="1" fill="none" fill-rule="evenodd">
        <rect id="Wrapper" stroke="#0085BA" fill="#FFFFFF" fill-rule="nonzero" x="0.5" y="0.5" width="99" height="99"></rect>
        <g id="Image-1" transform="translate(7.000000, 8.000000)" fill-rule="nonzero">
            <rect id="Rectangle" fill="#0085BA" x="0" y="0" width="28" height="40"></rect>
            <path d="M17.2086808,17 L11.7917176,17 C11.3550743,17 11,17.3245641 11,17.7242912 L11,22.276523 C11,22.6757788 11.3550743,23 11.7917176,23 L17.2086573,23 C17.6453006,23 18,22.6757788 18,22.276523 L18,17.7242912 C18.0000234,17.3245641 17.645324,17 17.2086808,17 Z M15.5265709,18.0771593 C15.9488265,18.0771593 16.2912707,18.3903032 16.2912707,18.7763819 C16.2912707,19.1624606 15.9488031,19.4756045 15.5265709,19.4756045 C15.1041981,19.4756045 14.7618711,19.1624606 14.7618711,18.7763819 C14.7618711,18.3903032 15.1041981,18.0771593 15.5265709,18.0771593 Z M16.9603888,22.3308169 L14.4999414,22.3308169 L12.1491117,22.3308169 C11.9379136,22.3308169 11.8438551,22.1910967 11.9390618,22.0187229 L13.2514286,19.6419146 C13.3465181,19.4695623 13.5277459,19.4541783 13.6560863,19.6075256 L14.9757171,21.1844082 C15.1040575,21.3377769 15.3283779,21.3508254 15.4768469,21.2134192 L15.799678,20.9145023 C15.9480298,20.7770961 16.1666092,20.7941085 16.2876855,20.9522553 L17.1236438,22.044113 C17.2444858,22.2024954 17.171587,22.3308169 16.9603888,22.3308169 Z" id="Shape" fill-opacity="0.6" fill="#FFFFFF"></path>
        </g>
        <g id="Image-1-Copy-3" transform="translate(7.000000, 52.000000)" fill-rule="nonzero">
            <rect id="Rectangle" fill="#0085BA" x="0" y="0" width="28" height="41"></rect>
            <path d="M17.2086808,17 L11.7917176,17 C11.3550743,17 11,17.3245641 11,17.7242912 L11,22.276523 C11,22.6757788 11.3550743,23 11.7917176,23 L17.2086573,23 C17.6453006,23 18,22.6757788 18,22.276523 L18,17.7242912 C18.0000234,17.3245641 17.645324,17 17.2086808,17 Z M15.5265709,18.0771593 C15.9488265,18.0771593 16.2912707,18.3903032 16.2912707,18.7763819 C16.2912707,19.1624606 15.9488031,19.4756045 15.5265709,19.4756045 C15.1041981,19.4756045 14.7618711,19.1624606 14.7618711,18.7763819 C14.7618711,18.3903032 15.1041981,18.0771593 15.5265709,18.0771593 Z M16.9603888,22.3308169 L14.4999414,22.3308169 L12.1491117,22.3308169 C11.9379136,22.3308169 11.8438551,22.1910967 11.9390618,22.0187229 L13.2514286,19.6419146 C13.3465181,19.4695623 13.5277459,19.4541783 13.6560863,19.6075256 L14.9757171,21.1844082 C15.1040575,21.3377769 15.3283779,21.3508254 15.4768469,21.2134192 L15.799678,20.9145023 C15.9480298,20.7770961 16.1666092,20.7941085 16.2876855,20.9522553 L17.1236438,22.044113 C17.2444858,22.2024954 17.171587,22.3308169 16.9603888,22.3308169 Z" id="Shape" fill-opacity="0.6" fill="#FFFFFF"></path>
        </g>
        <g id="Image-1-Copy" transform="translate(38.000000, 8.000000)" fill-rule="nonzero">
            <rect id="Rectangle" fill="#0085BA" x="0" y="0" width="28" height="40"></rect>
            <path d="M17.2086808,17 L11.7917176,17 C11.3550743,17 11,17.3245641 11,17.7242912 L11,22.276523 C11,22.6757788 11.3550743,23 11.7917176,23 L17.2086573,23 C17.6453006,23 18,22.6757788 18,22.276523 L18,17.7242912 C18.0000234,17.3245641 17.645324,17 17.2086808,17 Z M15.5265709,18.0771593 C15.9488265,18.0771593 16.2912707,18.3903032 16.2912707,18.7763819 C16.2912707,19.1624606 15.9488031,19.4756045 15.5265709,19.4756045 C15.1041981,19.4756045 14.7618711,19.1624606 14.7618711,18.7763819 C14.7618711,18.3903032 15.1041981,18.0771593 15.5265709,18.0771593 Z M16.9603888,22.3308169 L14.4999414,22.3308169 L12.1491117,22.3308169 C11.9379136,22.3308169 11.8438551,22.1910967 11.9390618,22.0187229 L13.2514286,19.6419146 C13.3465181,19.4695623 13.5277459,19.4541783 13.6560863,19.6075256 L14.9757171,21.1844082 C15.1040575,21.3377769 15.3283779,21.3508254 15.4768469,21.2134192 L15.799678,20.9145023 C15.9480298,20.7770961 16.1666092,20.7941085 16.2876855,20.9522553 L17.1236438,22.044113 C17.2444858,22.2024954 17.171587,22.3308169 16.9603888,22.3308169 Z" id="Shape" fill-opacity="0.6" fill="#FFFFFF"></path>
        </g>
        <g id="Image-1-Copy-2" transform="translate(38.000000, 52.000000)" fill-rule="nonzero">
            <rect id="Rectangle" fill="#0085BA" x="0" y="0" width="28" height="41"></rect>
            <path d="M17.2086808,17 L11.7917176,17 C11.3550743,17 11,17.3245641 11,17.7242912 L11,22.276523 C11,22.6757788 11.3550743,23 11.7917176,23 L17.2086573,23 C17.6453006,23 18,22.6757788 18,22.276523 L18,17.7242912 C18.0000234,17.3245641 17.645324,17 17.2086808,17 Z M15.5265709,18.0771593 C15.9488265,18.0771593 16.2912707,18.3903032 16.2912707,18.7763819 C16.2912707,19.1624606 15.9488031,19.4756045 15.5265709,19.4756045 C15.1041981,19.4756045 14.7618711,19.1624606 14.7618711,18.7763819 C14.7618711,18.3903032 15.1041981,18.0771593 15.5265709,18.0771593 Z M16.9603888,22.3308169 L14.4999414,22.3308169 L12.1491117,22.3308169 C11.9379136,22.3308169 11.8438551,22.1910967 11.9390618,22.0187229 L13.2514286,19.6419146 C13.3465181,19.4695623 13.5277459,19.4541783 13.6560863,19.6075256 L14.9757171,21.1844082 C15.1040575,21.3377769 15.3283779,21.3508254 15.4768469,21.2134192 L15.799678,20.9145023 C15.9480298,20.7770961 16.1666092,20.7941085 16.2876855,20.9522553 L17.1236438,22.044113 C17.2444858,22.2024954 17.171587,22.3308169 16.9603888,22.3308169 Z" id="Shape" fill-opacity="0.6" fill="#FFFFFF"></path>
        </g>
        <rect id="Rectangle-6-Copy-2" fill="#D8D8D8" fill-rule="nonzero" x="70" y="8" width="24" height="26"></rect>
        <rect id="Rectangle-6-Copy-3" fill="#D8D8D8" fill-rule="nonzero" x="70" y="37" width="24" height="56"></rect>
    </g>
</svg>