<svg width="32" height="32" viewBox="0 0 65 65" xmlns="http://www.w3.org/2000/svg"><path d="M45.8,26c-0.62-1.81-1.55-3.4-2.74-4.72c-1.21-1.33-2.7-2.38-4.45-3.12C36.88,17.43,34.86,17,32.63,17H24.2 c-1.77,0-3.2,1.43-3.2,3.2v23.6c0,1.77,1.43,3.2,3.2,3.2h8.43c2.26,0,4.31-0.59,6.06-1.35c1.76-0.77,3.26-1.84,4.45-3.19 c1.18-1.34,2.08-2.94,2.69-4.74c0.6-1.78,0.88-3.63,0.88-5.71C46.71,29.88,46.42,27.78,45.8,26z M41.52,35.88 c-0.38,1.19-0.94,2.23-1.67,3.1c-0.72,0.86-1.64,1.55-2.72,2.04c-1.09,0.5-2.37,0.97-3.81,0.97H26V22h7.31 c1.42,0,2.69,0.36,3.77,0.83c1.07,0.47,1.99,1.14,2.72,1.99c0.74,0.86,1.31,1.9,1.7,3.08C42.39,30.6,41.9,34.67,41.52,35.88z M58.92,33.46C58.97,32.87,59,32.31,59,32C59,17.09,46.91,5,32,5C16.07,5,3.36,18.8,5.17,35.1C6.56,47.56,16.63,57.55,29.1,58.85 c6.61,0.69,12.78-1.02,17.79-4.34c-0.86-2.04-0.64-4.47,0.78-6.38l2.78-3.72c0.66-0.88,1.91-1.07,2.79-0.41l2.73-3.65 c0.49-0.66,1.43-0.79,2.09-0.3s0.79,1.43,0.3,2.09l-2.73,3.65l2.39,1.79l2.73-3.65c0.49-0.66,1.43-0.79,2.09-0.3 c0.66,0.49,0.79,1.43,0.3,2.09l-2.73,3.65c0.88,0.66,1.05,1.91,0.39,2.8l-2.78,3.72c-1.77,2.37-4.85,3.17-7.48,2.17 C45.33,61.79,38.92,64,32,64C13.58,64-1.21,48.43,0.08,29.73C1.17,13.95,13.95,1.17,29.73,0.08C48.43-1.21,64,13.58,64,32 c0,0.39-0.04,1.08-0.09,1.82c-0.1,1.45-1.42,2.51-2.86,2.3C59.75,35.93,58.82,34.77,58.92,33.46z"></path></svg>
