<svg width="1267" height="479" viewBox="0 0 1267 479" fill="none" xmlns="http://www.w3.org/2000/svg">
<g style="mix-blend-mode:screen" opacity="0.116225">
<path fill-rule="evenodd" clip-rule="evenodd" d="M623.5 31.121C616.123 31.121 610.121 37.1232 610.121 44.5C610.121 51.8768 616.123 57.879 623.5 57.879C630.877 57.879 636.879 51.8768 636.879 44.5C636.879 37.1232 630.877 31.121 623.5 31.121ZM623.5 64C612.748 64 604 55.2522 604 44.5C604 33.7478 612.748 25 623.5 25C634.252 25 643 33.7478 643 44.5C643 55.2522 634.252 64 623.5 64Z" fill="#64645E"/>
<path fill-rule="evenodd" clip-rule="evenodd" d="M873 479H922V471H873V479Z" fill="#64645E"/>
<path fill-rule="evenodd" clip-rule="evenodd" d="M930 479H943V471H930V479Z" fill="#64645E"/>
<path fill-rule="evenodd" clip-rule="evenodd" d="M538 152H574V144H538V152Z" fill="#64645E"/>
<path fill-rule="evenodd" clip-rule="evenodd" d="M559 131H608V123H559V131Z" fill="#64645E"/>
<path fill-rule="evenodd" clip-rule="evenodd" d="M1047 314.469C1044.5 314.469 1042.47 316.502 1042.47 319.002C1042.47 321.498 1044.5 323.531 1047 323.531C1049.5 323.531 1051.53 321.498 1051.53 319.002C1051.53 316.502 1049.5 314.469 1047 314.469ZM1047 330C1040.93 330 1036 325.068 1036 319.002C1036 312.936 1040.93 308 1047 308C1053.06 308 1058 312.936 1058 319.002C1058 325.068 1053.06 330 1047 330Z" fill="#64645E"/>
<path fill-rule="evenodd" clip-rule="evenodd" d="M482 398.233C477.717 398.233 474.234 401.72 474.234 406.002C474.234 410.284 477.717 413.767 482 413.767C486.283 413.767 489.766 410.284 489.766 406.002C489.766 401.72 486.283 398.233 482 398.233ZM482 420C474.281 420 468 413.72 468 406.002C468 398.28 474.281 392 482 392C489.719 392 496 398.28 496 406.002C496 413.72 489.719 420 482 420Z" fill="#64645E"/>
<path fill-rule="evenodd" clip-rule="evenodd" d="M463 323H493V315H463V323Z" fill="#64645E"/>
<path fill-rule="evenodd" clip-rule="evenodd" d="M163 126H186V118H163V126Z" fill="#64645E"/>
<path fill-rule="evenodd" clip-rule="evenodd" d="M906 265H933V257H906V265Z" fill="#64645E"/>
<path fill-rule="evenodd" clip-rule="evenodd" d="M980 359H1014V351H980V359Z" fill="#64645E"/>
<path fill-rule="evenodd" clip-rule="evenodd" d="M93 94H120V86H93V94Z" fill="#64645E"/>
<path fill-rule="evenodd" clip-rule="evenodd" d="M3 205H31V197H3V205Z" fill="#64645E"/>
<path fill-rule="evenodd" clip-rule="evenodd" d="M911 244H954V236H911V244Z" fill="#64645E"/>
<path fill-rule="evenodd" clip-rule="evenodd" d="M436 472H482V464H436V472Z" fill="#64645E"/>
<path fill-rule="evenodd" clip-rule="evenodd" d="M507 467H518V459H507V467Z" fill="#64645E"/>
<path fill-rule="evenodd" clip-rule="evenodd" d="M491 467H502V459H491V467Z" fill="#64645E"/>
<path fill-rule="evenodd" clip-rule="evenodd" d="M896 11H930V3H896V11Z" fill="#64645E"/>
<path fill-rule="evenodd" clip-rule="evenodd" d="M660 99H683.362V91H660V99ZM688.638 99H712V91H688.638V99Z" fill="#64645E"/>
<path fill-rule="evenodd" clip-rule="evenodd" d="M402 341H438V333H402V341Z" fill="#64645E"/>
<path fill-rule="evenodd" clip-rule="evenodd" d="M366 341H376.8V333H366V341ZM382.2 341H393V333H382.2V341Z" fill="#64645E"/>
<path fill-rule="evenodd" clip-rule="evenodd" d="M990.879 202.303L999.303 210.121L1007.12 201.697L998.697 193.879L990.879 202.303ZM999.632 219L982 202.632L998.368 185L1016 201.368L999.632 219Z" fill="#64645E"/>
<path fill-rule="evenodd" clip-rule="evenodd" d="M995 195H1003V185H995V195Z" fill="#64645E"/>
<path fill-rule="evenodd" clip-rule="evenodd" d="M995 223H1003V213H995V223Z" fill="#64645E"/>
<path fill-rule="evenodd" clip-rule="evenodd" d="M978 207H988V199H978V207Z" fill="#64645E"/>
<path fill-rule="evenodd" clip-rule="evenodd" d="M1007 207H1017V199H1007V207Z" fill="#64645E"/>
<path fill-rule="evenodd" clip-rule="evenodd" d="M408.878 432.301L417.301 440.124L425.122 431.699L416.699 423.876L408.878 432.301ZM417.633 449L400 432.633L416.367 415L434 431.37L417.633 449Z" fill="#64645E"/>
<path fill-rule="evenodd" clip-rule="evenodd" d="M414 424H422V414H414V424Z" fill="#64645E"/>
<path fill-rule="evenodd" clip-rule="evenodd" d="M414 455H422V445H414V455Z" fill="#64645E"/>
<path fill-rule="evenodd" clip-rule="evenodd" d="M398 439H408V431H398V439Z" fill="#64645E"/>
<path fill-rule="evenodd" clip-rule="evenodd" d="M427 439H437V431H427V439Z" fill="#64645E"/>
<path fill-rule="evenodd" clip-rule="evenodd" d="M535.875 278.301L544.299 286.124L552.121 277.699L543.697 269.876L535.875 278.301ZM544.632 295L527 278.63L543.368 261L561 277.367L544.632 295Z" fill="#64645E"/>
<path fill-rule="evenodd" clip-rule="evenodd" d="M540 270H548V260H540V270Z" fill="#64645E"/>
<path fill-rule="evenodd" clip-rule="evenodd" d="M540 300H548V290H540V300Z" fill="#64645E"/>
<path fill-rule="evenodd" clip-rule="evenodd" d="M523 284H533V276H523V284Z" fill="#64645E"/>
<path fill-rule="evenodd" clip-rule="evenodd" d="M553 284H563V276H553V284Z" fill="#64645E"/>
<path fill-rule="evenodd" clip-rule="evenodd" d="M359.878 76.3028L368.303 84.1214L376.125 75.6972L367.699 67.8786L359.878 76.3028ZM368.633 93L351 76.6315L367.369 59L385 75.3685L368.633 93Z" fill="#64645E"/>
<path fill-rule="evenodd" clip-rule="evenodd" d="M366 67H374V57H366V67Z" fill="#64645E"/>
<path fill-rule="evenodd" clip-rule="evenodd" d="M366 96H374V86H366V96Z" fill="#64645E"/>
<path fill-rule="evenodd" clip-rule="evenodd" d="M350 81H360V73H350V81Z" fill="#64645E"/>
<path fill-rule="evenodd" clip-rule="evenodd" d="M378 81H388V73H378V81Z" fill="#64645E"/>
<path fill-rule="evenodd" clip-rule="evenodd" d="M823.466 294L819 289.512L834.534 274L839 278.488L823.466 294Z" fill="#64645E"/>
<path fill-rule="evenodd" clip-rule="evenodd" d="M834.741 294L817 278.669L821.259 274L839 289.331L834.741 294Z" fill="#64645E"/>
<path fill-rule="evenodd" clip-rule="evenodd" d="M222.466 269L218 264.515L233.534 249L238 253.485L222.466 269Z" fill="#64645E"/>
<path fill-rule="evenodd" clip-rule="evenodd" d="M235.74 267L218 251.67L222.26 247L240 262.334L235.74 267Z" fill="#64645E"/>
<path fill-rule="evenodd" clip-rule="evenodd" d="M884.197 125L880 120.786L898.803 102L903 106.218L884.197 125Z" fill="#64645E"/>
<path fill-rule="evenodd" clip-rule="evenodd" d="M902.709 125L880 106.448L884.295 102L907 120.552L902.709 125Z" fill="#64645E"/>
<path fill-rule="evenodd" clip-rule="evenodd" d="M1212.2 376L1208 371.786L1226.8 353L1231 357.218L1212.2 376Z" fill="#64645E"/>
<path fill-rule="evenodd" clip-rule="evenodd" d="M1228.71 376L1206 357.445L1210.29 353L1233 371.552L1228.71 376Z" fill="#64645E"/>
<path fill-rule="evenodd" clip-rule="evenodd" d="M326.5 239.252C323.054 239.252 320.25 242.056 320.25 245.5C320.25 248.948 323.054 251.752 326.5 251.752C329.946 251.752 332.749 248.948 332.749 245.5C332.749 242.056 329.946 239.252 326.5 239.252ZM326.5 258C319.607 258 314 252.395 314 245.5C314 238.609 319.607 233 326.5 233C333.392 233 339 238.609 339 245.5C339 252.395 333.392 258 326.5 258Z" fill="#64645E"/>
<path fill-rule="evenodd" clip-rule="evenodd" d="M997.519 88C986.756 88 978 79.4777 978 69.0019C978 58.526 986.756 50 997.519 50C1000.09 50 1002.59 50.4809 1004.95 51.4278L1007.96 52.632L1005.48 58.4962L1002.47 57.2883C1000.9 56.662 999.235 56.3414 997.519 56.3414C990.349 56.3414 984.515 62.0192 984.515 69.0019C984.515 75.9808 990.349 81.6586 997.519 81.6586C1002.1 81.6586 1006.4 79.2689 1008.73 75.4216L1010.39 72.6889L1016 75.9099L1014.35 78.6426C1010.84 84.4136 1004.4 88 997.519 88Z" fill="#64645E"/>
<path fill-rule="evenodd" clip-rule="evenodd" d="M673.502 275.178C667.811 275.178 663.181 279.809 663.181 285.5C663.181 291.191 667.811 295.822 673.502 295.822C679.189 295.822 683.819 291.191 683.819 285.5C683.819 279.809 679.189 275.178 673.502 275.178ZM673.502 302C664.402 302 657 294.6 657 285.5C657 276.403 664.402 269 673.502 269C682.598 269 690 276.403 690 285.5C690 294.6 682.598 302 673.502 302Z" fill="#64645E"/>
<path fill-rule="evenodd" clip-rule="evenodd" d="M60.5002 108.004C57.4692 108.004 55.0033 110.468 55.0033 113.5C55.0033 116.532 57.4692 118.996 60.5002 118.996C63.5311 118.996 65.9967 116.532 65.9967 113.5C65.9967 110.468 63.5311 108.004 60.5002 108.004ZM60.5002 125C54.159 125 49 119.843 49 113.5C49 107.161 54.159 102 60.5002 102C66.8413 102 72 107.161 72 113.5C72 119.843 66.8413 125 60.5002 125Z" fill="#64645E"/>
<path fill-rule="evenodd" clip-rule="evenodd" d="M1052.5 368.331C1046.89 368.331 1042.33 372.895 1042.33 378.5C1042.33 384.109 1046.89 388.672 1052.5 388.672C1058.11 388.672 1062.67 384.109 1062.67 378.5C1062.67 372.895 1058.11 368.331 1052.5 368.331ZM1052.5 395C1043.4 395 1036 387.6 1036 378.5C1036 369.403 1043.4 362 1052.5 362C1061.6 362 1069 369.403 1069 378.5C1069 387.6 1061.6 395 1052.5 395Z" fill="#64645E"/>
<path fill-rule="evenodd" clip-rule="evenodd" d="M0 282H47V274H0V282Z" fill="#64645E"/>
<path fill-rule="evenodd" clip-rule="evenodd" d="M58 265H66V257H58V265Z" fill="#64645E"/>
<path fill-rule="evenodd" clip-rule="evenodd" d="M30 265H47V257H30V265Z" fill="#64645E"/>
<path fill-rule="evenodd" clip-rule="evenodd" d="M23 295H61V287H23V295Z" fill="#64645E"/>
<path fill-rule="evenodd" clip-rule="evenodd" d="M415 365H468V357H415V365Z" fill="#64645E"/>
<path fill-rule="evenodd" clip-rule="evenodd" d="M339 365H391V357H339V365Z" fill="#64645E"/>
<path fill-rule="evenodd" clip-rule="evenodd" d="M371 386H437V378H371V386Z" fill="#64645E"/>
<path fill-rule="evenodd" clip-rule="evenodd" d="M968 146H976V123H968V146Z" fill="#64645E"/>
<path fill-rule="evenodd" clip-rule="evenodd" d="M959 141H984V133H959V141Z" fill="#64645E"/>
<path fill-rule="evenodd" clip-rule="evenodd" d="M1080 74H1088V41H1080V74Z" fill="#64645E"/>
<path fill-rule="evenodd" clip-rule="evenodd" d="M1068 61H1102V53H1068V61Z" fill="#64645E"/>
<path fill-rule="evenodd" clip-rule="evenodd" d="M754 25H762V-2H754V25Z" fill="#64645E"/>
<path fill-rule="evenodd" clip-rule="evenodd" d="M744 17H772V9H744V17Z" fill="#64645E"/>
<path fill-rule="evenodd" clip-rule="evenodd" d="M46 64H54V47H46V64Z" fill="#64645E"/>
<path fill-rule="evenodd" clip-rule="evenodd" d="M38 59H58V51H38V59Z" fill="#64645E"/>
<path fill-rule="evenodd" clip-rule="evenodd" d="M113 156H121V139H113V156Z" fill="#64645E"/>
<path fill-rule="evenodd" clip-rule="evenodd" d="M105 154H125V146H105V154Z" fill="#64645E"/>
<path fill-rule="evenodd" clip-rule="evenodd" d="M163 194H171V177H163V194Z" fill="#64645E"/>
<path fill-rule="evenodd" clip-rule="evenodd" d="M158 191H178V183H158V191Z" fill="#64645E"/>
<path fill-rule="evenodd" clip-rule="evenodd" d="M61 230H69V213H61V230Z" fill="#64645E"/>
<path fill-rule="evenodd" clip-rule="evenodd" d="M55 227H75V219H55V227Z" fill="#64645E"/>
<path fill-rule="evenodd" clip-rule="evenodd" d="M397.998 148C395.792 148 394 146.617 394 144.911V126.085C394 124.379 395.792 123 397.998 123C400.208 123 402 124.379 402 126.085V144.911C402 146.617 400.208 148 397.998 148Z" fill="#64645E"/>
<path fill-rule="evenodd" clip-rule="evenodd" d="M409.747 139H389.253C387.458 139 386 137.212 386 135C386 132.788 387.458 131 389.253 131H409.747C411.542 131 413 132.788 413 135C413 137.212 411.542 139 409.747 139Z" fill="#64645E"/>
<path fill-rule="evenodd" clip-rule="evenodd" d="M478 171H486V149H478V171Z" fill="#64645E"/>
<path fill-rule="evenodd" clip-rule="evenodd" d="M472 164H495V156H472V164Z" fill="#64645E"/>
<path fill-rule="evenodd" clip-rule="evenodd" d="M916 76H924V54H916V76Z" fill="#64645E"/>
<path fill-rule="evenodd" clip-rule="evenodd" d="M906 69H929V61H906V69Z" fill="#64645E"/>
<path fill-rule="evenodd" clip-rule="evenodd" d="M1176 255H1184V233H1176V255Z" fill="#64645E"/>
<path fill-rule="evenodd" clip-rule="evenodd" d="M1168 249H1191V241H1168V249Z" fill="#64645E"/>
<path fill-rule="evenodd" clip-rule="evenodd" d="M1115 312H1123V290H1115V312Z" fill="#64645E"/>
<path fill-rule="evenodd" clip-rule="evenodd" d="M1106 307H1129V299H1106V307Z" fill="#64645E"/>
<path fill-rule="evenodd" clip-rule="evenodd" d="M279 503H287V478H279V503Z" fill="#64645E"/>
<path fill-rule="evenodd" clip-rule="evenodd" d="M804 496H812V471H804V496Z" fill="#64645E"/>
<path fill-rule="evenodd" clip-rule="evenodd" d="M862 35H867V12H862V35Z" fill="#64645E"/>
<path fill-rule="evenodd" clip-rule="evenodd" d="M853 26H878V21H853V26Z" fill="#64645E"/>
<path fill-rule="evenodd" clip-rule="evenodd" d="M72 80H102V72H72V80Z" fill="#64645E"/>
<path fill-rule="evenodd" clip-rule="evenodd" d="M89 69H119V61H89V69Z" fill="#64645E"/>
<path fill-rule="evenodd" clip-rule="evenodd" d="M337.206 441.694H347.794V431.306H337.206V441.694ZM331 448H354V425H331V448Z" fill="#64645E"/>
<path fill-rule="evenodd" clip-rule="evenodd" d="M1008.29 272.712H1022.71V258.288H1008.29V272.712ZM1002 279H1029V252H1002V279Z" fill="#64645E"/>
<path fill-rule="evenodd" clip-rule="evenodd" d="M643 142H671V134H643V142Z" fill="#64645E"/>
<path fill-rule="evenodd" clip-rule="evenodd" d="M681 55H703V47H681V55Z" fill="#64645E"/>
<path fill-rule="evenodd" clip-rule="evenodd" d="M113 232H140V224H113V232Z" fill="#64645E"/>
<path fill-rule="evenodd" clip-rule="evenodd" d="M20 399H47V391H20V399Z" fill="#64645E"/>
<path fill-rule="evenodd" clip-rule="evenodd" d="M328 298H355V290H328V298Z" fill="#64645E"/>
<path fill-rule="evenodd" clip-rule="evenodd" d="M33 167H66V159H33V167Z" fill="#64645E"/>
<path fill-rule="evenodd" clip-rule="evenodd" d="M331 22H353.777V14H331V22ZM358.916 22H367V14H358.916V22Z" fill="#64645E"/>
<path fill-rule="evenodd" clip-rule="evenodd" d="M732.002 409.084C727.085 409.084 723.084 413.085 723.084 418.002C723.084 422.915 727.085 426.916 732.002 426.916C736.915 426.916 740.916 422.915 740.916 418.002C740.916 413.085 736.915 409.084 732.002 409.084ZM732.002 433C723.731 433 717 426.272 717 418.002C717 409.731 723.731 403 732.002 403C740.272 403 747 409.731 747 418.002C747 426.272 740.272 433 732.002 433Z" fill="#64645E"/>
<path fill-rule="evenodd" clip-rule="evenodd" d="M750.998 329.347C748.433 329.347 746.346 331.433 746.346 333.998C746.346 336.567 748.433 338.654 750.998 338.654C753.567 338.654 755.653 336.567 755.653 333.998C755.653 331.433 753.567 329.347 750.998 329.347ZM750.998 345C744.932 345 740 340.065 740 333.998C740 327.935 744.932 323 750.998 323C757.065 323 762 327.935 762 333.998C762 340.065 757.065 345 750.998 345Z" fill="#64645E"/>
<path fill-rule="evenodd" clip-rule="evenodd" d="M971.5 404.445C962.095 404.445 954.445 412.095 954.445 421.5C954.445 430.902 962.095 438.555 971.5 438.555C980.905 438.555 988.555 430.902 988.555 421.5C988.555 412.095 980.905 404.445 971.5 404.445ZM971.5 445C958.543 445 948 434.457 948 421.5C948 408.539 958.543 398 971.5 398C984.457 398 995 408.539 995 421.5C995 434.457 984.457 445 971.5 445Z" fill="#64645E"/>
<path fill-rule="evenodd" clip-rule="evenodd" d="M276.5 15.3606C268.704 15.3606 262.361 21.7026 262.361 29.5C262.361 37.2974 268.704 43.6394 276.5 43.6394C284.296 43.6394 290.639 37.2974 290.639 29.5C290.639 21.7026 284.296 15.3606 276.5 15.3606ZM276.5 50C265.196 50 256 40.8032 256 29.5C256 18.1968 265.196 9 276.5 9C287.804 9 297 18.1968 297 29.5C297 40.8032 287.804 50 276.5 50Z" fill="#64645E"/>
<path fill-rule="evenodd" clip-rule="evenodd" d="M278.5 293.202C271.168 293.202 265.202 299.167 265.202 306.5C265.202 313.833 271.168 319.798 278.5 319.798C285.832 319.798 291.798 313.833 291.798 306.5C291.798 299.167 285.832 293.202 278.5 293.202ZM278.5 326C267.748 326 259 317.251 259 306.5C259 295.749 267.748 287 278.5 287C289.252 287 298 295.749 298 306.5C298 317.251 289.252 326 278.5 326Z" fill="#64645E"/>
<path fill-rule="evenodd" clip-rule="evenodd" d="M222 427.544C212.926 427.544 205.544 434.927 205.544 444C205.544 453.073 212.926 460.456 222 460.456C231.074 460.456 238.456 453.073 238.456 444C238.456 434.927 231.074 427.544 222 427.544ZM222 467C209.318 467 199 456.684 199 444C199 431.316 209.318 421 222 421C234.682 421 245 431.316 245 444C245 456.684 234.682 467 222 467Z" fill="#64645E"/>
<path fill-rule="evenodd" clip-rule="evenodd" d="M1237.5 269.194C1234.57 269.194 1232.19 271.573 1232.19 274.498C1232.19 277.424 1234.57 279.806 1237.5 279.806C1240.43 279.806 1242.81 277.424 1242.81 274.498C1242.81 271.573 1240.43 269.194 1237.5 269.194ZM1237.5 286C1231.16 286 1226 280.841 1226 274.498C1226 268.159 1231.16 263 1237.5 263C1243.84 263 1249 268.159 1249 274.498C1249 280.841 1243.84 286 1237.5 286Z" fill="#64645E"/>
<path fill-rule="evenodd" clip-rule="evenodd" d="M1164 -10.6433C1159.23 -10.6433 1155.36 -6.76567 1155.36 -2.00187C1155.36 2.76567 1159.23 6.64327 1164 6.64327C1168.77 6.64327 1172.64 2.76567 1172.64 -2.00187C1172.64 -6.76567 1168.77 -10.6433 1164 -10.6433ZM1164 13C1155.73 13 1149 6.26935 1149 -2.00187C1149 -10.2731 1155.73 -17 1164 -17C1172.27 -17 1179 -10.2731 1179 -2.00187C1179 6.26935 1172.27 13 1164 13Z" fill="#64645E"/>
<path fill-rule="evenodd" clip-rule="evenodd" d="M609.5 158.874C608.052 158.874 606.874 160.052 606.874 161.5C606.874 162.948 608.052 164.126 609.5 164.126C610.948 164.126 612.126 162.948 612.126 161.5C612.126 160.052 610.948 158.874 609.5 158.874ZM609.5 170C604.815 170 601 166.189 601 161.5C601 156.815 604.815 153 609.5 153C614.189 153 618 156.815 618 161.5C618 166.189 614.189 170 609.5 170Z" fill="#64645E"/>
<path fill-rule="evenodd" clip-rule="evenodd" d="M599 228.289C594.197 228.289 590.29 232.196 590.29 236.998C590.29 241.804 594.197 245.711 599 245.711C603.803 245.711 607.71 241.804 607.71 236.998C607.71 232.196 603.803 228.289 599 228.289ZM599 252C590.73 252 584 245.27 584 236.998C584 228.73 590.73 222 599 222C607.27 222 614 228.73 614 236.998C614 245.27 607.27 252 599 252Z" fill="#64645E"/>
<path fill-rule="evenodd" clip-rule="evenodd" d="M1005.5 -8.79653C1002.03 -8.79653 999.203 -5.97212 999.203 -2.50182C999.203 0.972121 1002.03 3.79653 1005.5 3.79653C1008.97 3.79653 1011.8 0.972121 1011.8 -2.50182C1011.8 -5.97212 1008.97 -8.79653 1005.5 -8.79653ZM1005.5 10C998.608 10 993 4.39133 993 -2.50182C993 -9.39498 998.608 -15 1005.5 -15C1012.39 -15 1018 -9.39498 1018 -2.50182C1018 4.39133 1012.39 10 1005.5 10Z" fill="#64645E"/>
<path fill-rule="evenodd" clip-rule="evenodd" d="M552.498 196.926C551.08 196.926 549.926 198.08 549.926 199.498C549.926 200.92 551.08 202.074 552.498 202.074C553.92 202.074 555.074 200.92 555.074 199.498C555.074 198.08 553.92 196.926 552.498 196.926ZM552.498 208C547.813 208 544 204.187 544 199.498C544 194.813 547.813 191 552.498 191C557.187 191 561 194.813 561 199.498C561 204.187 557.187 208 552.498 208Z" fill="#64645E"/>
<path fill-rule="evenodd" clip-rule="evenodd" d="M289 375.063C284.072 375.063 280.062 379.071 280.062 384C280.062 388.929 284.072 392.937 289 392.937C293.928 392.937 297.938 388.929 297.938 384C297.938 379.071 293.928 375.063 289 375.063ZM289 399C280.729 399 274 392.27 274 384C274 375.73 280.729 369 289 369C297.271 369 304 375.73 304 384C304 392.27 297.271 399 289 399Z" fill="#64645E"/>
<path fill-rule="evenodd" clip-rule="evenodd" d="M925 185.225C920.712 185.225 917.225 188.715 917.225 193C917.225 197.288 920.712 200.775 925 200.775C929.285 200.775 932.775 197.288 932.775 193C932.775 188.715 929.285 185.225 925 185.225ZM925 207C917.28 207 911 200.72 911 193C911 185.28 917.28 179 925 179C932.72 179 939 185.28 939 193C939 200.72 932.72 207 925 207Z" fill="#64645E"/>
<path fill-rule="evenodd" clip-rule="evenodd" d="M944.998 296.268C940.183 296.268 936.268 300.187 936.268 305.002C936.268 309.817 940.183 313.732 944.998 313.732C949.813 313.732 953.732 309.817 953.732 305.002C953.732 300.187 949.813 296.268 944.998 296.268ZM944.998 320C936.729 320 930 313.271 930 305.002C930 296.729 936.729 290 944.998 290C953.268 290 960 296.729 960 305.002C960 313.271 953.268 320 944.998 320Z" fill="#64645E"/>
<path fill-rule="evenodd" clip-rule="evenodd" d="M654.968 194.095L664.04 202.89C664.788 203.616 665.127 204.656 664.952 205.677L662.812 218.097L674.028 212.233C674.947 211.752 676.049 211.752 676.972 212.233L688.188 218.097L686.048 205.677C685.873 204.656 686.212 203.616 686.956 202.89L696.032 194.095L683.491 192.284C682.459 192.133 681.57 191.488 681.108 190.559L675.498 179.261L669.892 190.559C669.43 191.488 668.537 192.133 667.506 192.284L654.968 194.095ZM658.605 227C657.95 227 657.295 226.796 656.744 226.4C655.768 225.693 655.281 224.501 655.485 223.32L658.43 206.244L645.956 194.15C645.092 193.313 644.783 192.066 645.155 190.926C645.528 189.786 646.518 188.953 647.709 188.782L664.948 186.291L672.662 170.755C673.194 169.681 674.296 169 675.498 169C676.704 169 677.806 169.681 678.338 170.755L686.048 186.291L703.291 188.782C704.482 188.953 705.472 189.786 705.845 190.926C706.217 192.062 705.908 193.313 705.044 194.15L692.57 206.244L695.515 223.32C695.716 224.501 695.228 225.693 694.253 226.4C693.281 227.103 691.986 227.196 690.921 226.637L675.498 218.575L660.079 226.637C659.614 226.881 659.108 227 658.605 227Z" fill="#64645E"/>
<path fill-rule="evenodd" clip-rule="evenodd" d="M187.5 61.7083C188.006 61.7083 188.513 61.8278 188.974 62.0741L196.476 66.0231L195.043 57.6548C194.867 56.6246 195.208 55.5758 195.954 54.8442L202.024 48.917L193.637 47.6965C192.605 47.5472 191.712 46.8977 191.251 45.9609L187.5 38.3465L183.749 45.9609C183.288 46.8977 182.395 47.5472 181.363 47.6965L172.977 48.917L179.046 54.8442C179.792 55.5758 180.133 56.6246 179.957 57.6548L178.524 66.0231L186.026 62.0741C186.487 61.8278 186.994 61.7083 187.5 61.7083ZM200.683 74.9998C200.179 74.9998 199.673 74.8804 199.21 74.634L187.5 68.4679L175.79 74.634C174.723 75.1976 173.43 75.1043 172.454 74.3951C171.478 73.6822 170.99 72.4804 171.194 71.2897L173.43 58.2259L163.957 48.9767C163.093 48.1332 162.783 46.8716 163.155 45.722C163.528 44.5724 164.519 43.7363 165.713 43.5609L178.804 41.6535L184.659 29.7692C185.193 28.6868 186.294 28 187.5 28C188.706 28 189.807 28.6868 190.341 29.7692L196.196 41.6535L209.287 43.5609C210.481 43.7363 211.472 44.5724 211.845 45.722C212.217 46.8716 211.907 48.1332 211.043 48.9767L201.57 58.2259L203.806 71.2897C204.01 72.4804 203.522 73.6822 202.546 74.3951C201.994 74.7945 201.34 74.9998 200.683 74.9998Z" fill="#64645E"/>
<path fill-rule="evenodd" clip-rule="evenodd" d="M68.8263 473.026L75.7386 479.799C76.4735 480.518 76.8093 481.554 76.6357 482.572L75.004 492.133L83.548 487.62C84.4569 487.14 85.5427 487.14 86.4523 487.62L94.9957 492.133L93.3643 482.572C93.1907 481.554 93.5261 480.518 94.2614 479.799L101.174 473.026L91.6213 471.633C90.6049 471.485 89.7265 470.844 89.2719 469.918L85 461.22L80.7282 469.918C80.2735 470.844 79.3951 471.485 78.3787 471.633L68.8263 473.026ZM70.8602 501C70.2133 501 69.5693 500.797 69.0259 500.403C68.0649 499.698 67.5835 498.511 67.7845 497.335L70.2074 483.136L59.9424 473.085C59.0919 472.252 58.7858 471.006 59.1528 469.87C59.5197 468.735 60.4961 467.909 61.6718 467.735L75.8578 465.663L82.2018 452.748C82.7276 451.678 83.8122 451 85 451C86.1878 451 87.2728 451.678 87.7982 452.748L94.1422 465.663L108.328 467.735C109.504 467.909 110.48 468.735 110.847 469.87C111.214 471.006 110.908 472.252 110.058 473.085L99.7922 483.136L102.215 497.335C102.417 498.511 101.935 499.698 100.974 500.403C100.013 501.103 98.7395 501.195 97.6879 500.638L85 493.935L72.3118 500.638C71.8553 500.882 71.357 501 70.8602 501Z" fill="#64645E"/>
<path fill-rule="evenodd" clip-rule="evenodd" d="M438.498 195.391C434.58 195.391 431.392 198.579 431.392 202.5C431.392 206.417 434.58 209.609 438.498 209.609C442.42 209.609 445.608 206.417 445.608 202.5C445.608 198.579 442.42 195.391 438.498 195.391ZM438.498 216C431.053 216 425 209.944 425 202.5C425 195.056 431.053 189 438.498 189C445.943 189 452 195.056 452 202.5C452 209.944 445.943 216 438.498 216Z" fill="#64645E"/>
<path fill-rule="evenodd" clip-rule="evenodd" d="M436.919 301L435.904 297.952C434.516 293.791 433.207 291.405 429.51 289.071C426.956 287.46 424.267 286.121 421.422 284.707C417.02 282.52 412.47 280.259 408.411 276.881C401.497 271.125 397.257 262.706 397.072 254.359L397 251.144L403.409 251L403.485 254.215C403.628 260.629 407.083 267.418 412.508 271.934C415.99 274.831 420.011 276.828 424.27 278.946C427.134 280.372 430.095 281.843 432.928 283.629C438.183 286.946 440.227 290.644 441.985 295.913L443 298.961L436.919 301Z" fill="#64645E"/>
<path fill-rule="evenodd" clip-rule="evenodd" d="M440.084 301L434 298.961L435.018 295.913C436.776 290.644 438.821 286.949 444.075 283.629C446.908 281.843 449.869 280.372 452.732 278.946C456.991 276.828 461.012 274.831 464.493 271.934C469.917 267.418 473.373 260.629 473.516 254.215L473.588 251L480 251.144L479.928 254.359C479.74 262.706 475.504 271.125 468.59 276.881C464.531 280.259 459.982 282.52 455.58 284.707C452.736 286.121 450.046 287.46 447.493 289.071C443.796 291.405 442.487 293.791 441.099 297.952L440.084 301Z" fill="#64645E"/>
<path fill-rule="evenodd" clip-rule="evenodd" d="M436 298H444V213H436V298Z" fill="#64645E"/>
<path fill-rule="evenodd" clip-rule="evenodd" d="M419 233H457V225H419V233Z" fill="#64645E"/>
<path fill-rule="evenodd" clip-rule="evenodd" d="M482.222 268L476.813 256.355L467.015 264.472L463 259.336L479.099 246L488 265.158L482.222 268Z" fill="#64645E"/>
<path fill-rule="evenodd" clip-rule="evenodd" d="M394.779 268L389 265.158L397.898 246L414 259.336L409.988 264.472L400.189 256.355L394.779 268Z" fill="#64645E"/>
<path fill-rule="evenodd" clip-rule="evenodd" d="M882.069 429C880.033 429 878.125 428.896 876.912 428.814C872.2 428.488 866.047 427.7 863.477 425.772L861 423.913L864.812 419.088L867.282 420.94C867.87 421.337 871.057 422.29 877.191 422.727C882.4 423.1 886.09 422.838 887.175 422.527C889.347 420.306 893.769 407.215 893.754 404.679L893.397 401.713L899.602 401L899.97 404.024C900.319 406.94 897.562 414.728 897.003 416.257C893.361 426.281 891.034 427.46 890.159 427.904C888.443 428.771 885.112 429 882.069 429Z" fill="#64645E"/>
<path fill-rule="evenodd" clip-rule="evenodd" d="M854.419 440C850.974 440 847.443 438.189 845.507 435.016L837.201 421.418L837.452 420.939L837 420.176L838.326 419.367C838.692 418.899 839.262 418.448 840.14 418.267L842.223 417L844.682 421.156L844.46 421.574L850.691 431.767C851.773 433.546 854.433 434.384 855.96 433.43L874.795 421.632L878 426.881L859.165 438.675C857.728 439.575 856.082 440 854.419 440Z" fill="#64645E"/>
<path fill-rule="evenodd" clip-rule="evenodd" d="M896.292 417L893 411.78L910.305 401.274C911.007 400.848 911.507 400.022 911.68 398.996C911.868 397.895 911.654 396.722 911.11 395.856L902.335 381.928L901.993 381.43L903.717 380.285L903.971 380.036C904.31 379.7 904.755 379.426 905.255 379.271L907.178 378L910.338 382.614L910.205 382.751L916.428 392.628C917.767 394.755 918.286 397.448 917.848 400.011C917.377 402.776 915.825 405.141 913.593 406.495L896.292 417Z" fill="#64645E"/>
<path fill-rule="evenodd" clip-rule="evenodd" d="M846.384 425L799.723 420.577L798.976 419.975C798.668 419.729 791.454 413.867 791.356 406.327C791.323 403.585 792.19 401.033 793.939 398.706C790.242 395.634 786.905 390.59 786.154 384.772C785.61 380.536 786.271 374.501 791.998 368.756C789.99 365.155 788.83 360.045 790.095 354.822C791.191 350.307 794.472 344.151 803.739 339.658C803.758 335.616 805.383 331.461 808.299 328.168C811.246 324.839 816.823 320.875 826.672 321.003L829.862 321.04L829.787 327.28L826.597 327.243C826.484 327.243 826.372 327.24 826.263 327.24C819.079 327.24 815.157 329.956 813.122 332.254C810.427 335.297 809.857 338.821 810.225 341.108L810.607 343.505L808.325 344.459C801.659 347.245 797.504 351.327 796.303 356.265C795.226 360.714 796.735 365.067 798.6 367.226L800.665 369.623L798.21 371.63C793.819 375.224 791.893 379.383 792.486 383.99C793.222 389.683 797.433 394.055 800.188 395.347L804.595 397.407L800.898 400.523C798.747 402.337 797.711 404.209 797.737 406.25C797.782 409.836 800.95 413.228 802.358 414.557L847 418.789L846.384 425Z" fill="#64645E"/>
<path fill-rule="evenodd" clip-rule="evenodd" d="M904.694 390L898.865 387.677L900.015 384.733C905.174 371.556 913.529 349.992 914.122 347.944L914.207 347.542L914.432 347.137C915.136 345.864 914.742 342.42 912.522 339.911C910.192 337.28 906.796 336.803 902.7 338.538L899.215 340.008L898.426 336.278C897.759 333.114 895.281 326.969 890.241 323.983C886.753 321.921 882.498 321.653 877.587 323.187L875.05 323.98L873.86 321.579C873.03 319.907 870.541 315.883 865.39 314.659C860.586 313.516 854.89 315.314 848.909 319.851L846.834 321.426L844.916 319.662C842.671 317.596 839.88 316.762 837.052 317.309C832.804 318.135 828.881 321.888 826.005 327.873L824.637 330.721L819 327.963L820.364 325.115C824.121 317.287 829.63 312.31 835.868 311.096C839.78 310.333 843.759 311.167 847.103 313.386C855.675 307.568 862.5 307.471 866.825 308.498C871.448 309.596 875.463 312.455 878.159 316.49C883.844 315.21 888.965 315.895 893.412 318.526C898.614 321.605 901.914 326.85 903.607 331.61C908.92 330.386 913.75 331.8 917.197 335.698C920.807 339.777 922.031 345.938 920.069 349.91C918.705 354.109 909.794 376.972 905.848 387.059L904.694 390Z" fill="#64645E"/>
<path fill-rule="evenodd" clip-rule="evenodd" d="M858.005 387L853 379.455L858.995 376L864 383.545L858.005 387Z" fill="#64645E"/>
<path fill-rule="evenodd" clip-rule="evenodd" d="M851.67 374L823 327.321L828.334 324L857 370.679L851.67 374Z" fill="#64645E"/>
<path fill-rule="evenodd" clip-rule="evenodd" d="M850.616 395L844 389.576L848.384 384L855 389.429L850.616 395Z" fill="#64645E"/>
<path fill-rule="evenodd" clip-rule="evenodd" d="M841.44 383C828.927 370.287 803.258 344.676 803 344.417L807.519 340C807.777 340.259 833.468 365.892 846 378.627L841.44 383Z" fill="#64645E"/>
<path fill-rule="evenodd" clip-rule="evenodd" d="M866.857 379L866.211 375.594C866.159 375.341 866.104 375.038 866.074 374.702C866.063 374.665 866.048 374.624 866.037 374.579L865 371.296L870.925 369L871.959 372.287C872.14 372.852 872.332 373.466 872.347 374.141C872.347 374.145 872.35 374.149 872.35 374.158L873 377.559L866.857 379Z" fill="#64645E"/>
<path fill-rule="evenodd" clip-rule="evenodd" d="M862.393 370L845 317.087L850.603 315L868 367.91L862.393 370Z" fill="#64645E"/>
<path fill-rule="evenodd" clip-rule="evenodd" d="M876.668 374L876.478 370.881C875.392 353.164 875.034 318.535 875.03 318.185L875 315.059L881.343 315L881.373 318.126C881.377 318.472 881.735 352.947 882.81 370.502L883 373.625L876.668 374Z" fill="#64645E"/>
<path fill-rule="evenodd" clip-rule="evenodd" d="M894.97 375L889 373.634L889.647 370.47C892.19 357.989 898.996 333.157 899.283 332.106L900.135 329L906 330.808L905.145 333.914C905.077 334.169 898.112 359.577 895.613 371.837L894.97 375Z" fill="#64645E"/>
<path fill-rule="evenodd" clip-rule="evenodd" d="M841.861 400L839.135 398.451C823.816 389.74 793.102 374.083 792.792 373.926L790 372.502L792.888 367L795.68 368.425C795.99 368.581 826.829 384.303 842.278 393.088L845 394.633L841.861 400Z" fill="#64645E"/>
<path fill-rule="evenodd" clip-rule="evenodd" d="M838.363 410L835.163 409.26C822.759 406.401 797.511 402.426 797.258 402.388L794 401.876L795.135 396L798.39 396.512C799.436 396.677 824.147 400.567 836.8 403.482L840 404.223L838.363 410Z" fill="#64645E"/>
<path fill-rule="evenodd" clip-rule="evenodd" d="M248.71 175L247.233 172.289C244.464 167.202 243 161.418 243 155.56C243 150.795 243.934 146.18 245.778 141.847L246.988 139L252.542 141.481L251.331 144.328C249.823 147.876 249.058 151.654 249.058 155.56C249.058 160.362 250.257 165.097 252.523 169.259L254 171.971L248.71 175Z" fill="#64645E"/>
<path fill-rule="evenodd" clip-rule="evenodd" d="M276.553 193C271.805 193 267.204 191.941 262.877 189.851L260 188.46L262.475 182L265.352 183.386C268.892 185.1 272.661 185.965 276.553 185.965C280.411 185.965 284.149 185.112 287.663 183.432L290.545 182.054L293 188.526L290.118 189.904C285.823 191.957 281.259 193 276.553 193Z" fill="#64645E"/>
<path fill-rule="evenodd" clip-rule="evenodd" d="M310.262 172L303.995 169.724L305.214 166.803C306.582 163.524 307.276 160.061 307.276 156.509C307.276 152.311 306.317 148.269 304.424 144.496L303 141.656L309.091 139L310.515 141.84C312.828 146.451 314 151.386 314 156.509C314 160.843 313.152 165.07 311.481 169.075L310.262 172Z" fill="#64645E"/>
<path fill-rule="evenodd" clip-rule="evenodd" d="M262.818 133L260 127.281L262.772 125.829C267.621 123.286 272.857 122 278.333 122C283.537 122 288.538 123.169 293.197 125.474L296 126.862L293.309 132.642L290.505 131.253C286.694 129.367 282.598 128.413 278.333 128.413C273.845 128.413 269.558 129.465 265.59 131.548L262.818 133Z" fill="#64645E"/>
<path fill-rule="evenodd" clip-rule="evenodd" d="M221.008 145C220.781 145 220.549 144.971 220.319 144.916C218.703 144.526 217.701 142.854 218.08 141.186C219.696 134.088 222.531 127.417 226.508 121.362C227.439 119.943 229.307 119.574 230.681 120.534C232.055 121.497 232.413 123.424 231.482 124.844C227.919 130.271 225.378 136.245 223.931 142.606C223.606 144.033 222.371 145 221.008 145Z" fill="#64645E"/>
<path fill-rule="evenodd" clip-rule="evenodd" d="M221.008 157C220.952 157 220.897 157 220.84 156.996C218.638 156.916 216.926 155.248 217.017 153.273C217.017 153.264 217.018 153.256 217.018 153.247C216.991 152.944 216.993 152.611 217.03 152.253C217.231 150.282 219.176 148.838 221.369 149.015C223.553 149.192 225.166 150.918 224.983 152.877C225.001 153.092 225.005 153.323 224.994 153.567C224.905 155.492 223.136 157 221.008 157Z" fill="#64645E"/>
<path fill-rule="evenodd" clip-rule="evenodd" d="M229.945 192C228.982 192 228.034 191.533 227.439 190.659C221.559 182.029 217.954 171.925 217.013 161.436C216.858 159.707 218.095 158.173 219.777 158.014C221.46 157.851 222.948 159.129 223.103 160.859C223.945 170.255 227.176 179.311 232.445 187.044C233.415 188.467 233.081 190.43 231.698 191.43C231.164 191.815 230.551 192 229.945 192Z" fill="#64645E"/>
<path fill-rule="evenodd" clip-rule="evenodd" d="M277.695 216C265.867 216 254.421 212.617 244.595 206.214L242 204.522L245.432 199.408L248.027 201.099C256.832 206.835 267.091 209.868 277.695 209.868C288.542 209.868 298.997 206.705 307.93 200.724L310.503 199L314 204.072L311.427 205.796C301.458 212.472 289.794 216 277.695 216Z" fill="#64645E"/>
<path fill-rule="evenodd" clip-rule="evenodd" d="M328.352 191L323 187.72L324.65 185.059C329.925 176.554 332.713 166.752 332.713 156.704C332.713 146.884 330.04 137.269 324.983 128.894L323.365 126.217L328.756 123L330.374 125.677C336.017 135.023 339 145.751 339 156.704C339 167.911 335.888 178.849 330.002 188.342L328.352 191Z" fill="#64645E"/>
<path fill-rule="evenodd" clip-rule="evenodd" d="M243.479 112L240 106.91L242.567 105.186C252.488 98.5243 264.093 95 276.125 95C288.047 95 299.562 98.4629 309.425 105.016L312 106.726L308.547 111.83L305.972 110.12C297.134 104.25 286.813 101.145 276.125 101.145C265.338 101.145 254.937 104.301 246.046 110.276L243.479 112Z" fill="#64645E"/>
<path fill-rule="evenodd" clip-rule="evenodd" d="M270.125 101L265 97.432L277.936 78L292 96.7423L287.082 100.601L278.237 88.8121L270.125 101Z" fill="#64645E"/>
<path fill-rule="evenodd" clip-rule="evenodd" d="M234.873 116.245L254.302 135.085L258.257 130.899L239.13 111.889L234.873 116.245ZM254.497 144L226 116.364L239.065 103L267 130.758L254.497 144Z" fill="#64645E"/>
<path fill-rule="evenodd" clip-rule="evenodd" d="M297.743 130.899L301.698 135.085L321.126 116.245L316.87 111.889L297.743 130.899ZM301.502 144L289 130.758L316.934 103L330 116.364L301.502 144Z" fill="#64645E"/>
<path fill-rule="evenodd" clip-rule="evenodd" d="M233.264 195.288L238.568 200.713L260.872 178.546L255.927 173.306L233.264 195.288ZM238.502 210L224 195.164L256.131 164L270 178.693L238.502 210Z" fill="#64645E"/>
<path fill-rule="evenodd" clip-rule="evenodd" d="M297.932 177.05L318.287 196.337L322.936 191.802L302.256 172.681L297.932 177.05ZM318.352 205L289 177.183L302.057 164L332 191.687L318.352 205Z" fill="#64645E"/>
<path fill-rule="evenodd" clip-rule="evenodd" d="M770 234H737V204H743.339V227.892H770V234Z" fill="#64645E"/>
<path fill-rule="evenodd" clip-rule="evenodd" d="M789.938 200L786.814 199.971C784.561 199.949 782.874 199.781 782.804 199.773L779.997 199.489V189.211H743.247V199.258H737V183H786.244V193.749C786.446 193.752 786.659 193.76 786.876 193.76L790 193.789L789.938 200Z" fill="#64645E"/>
<path fill-rule="evenodd" clip-rule="evenodd" d="M753.004 202L753 194.009L780.996 194L781 201.991L753.004 202Z" fill="#64645E"/>
<path fill-rule="evenodd" clip-rule="evenodd" d="M737 202V194H749.996L750 202H737Z" fill="#64645E"/>
<path fill-rule="evenodd" clip-rule="evenodd" d="M737 212H767V204H737V212Z" fill="#64645E"/>
<path fill-rule="evenodd" clip-rule="evenodd" d="M738 224H761V216H738V224Z" fill="#64645E"/>
<path fill-rule="evenodd" clip-rule="evenodd" d="M744 209H752V195H744V209Z" fill="#64645E"/>
<path fill-rule="evenodd" clip-rule="evenodd" d="M875 225H862V218.665H868.2V195H875V225Z" fill="#64645E"/>
<path fill-rule="evenodd" clip-rule="evenodd" d="M831.695 213H825.426V202.43L821 202.587V183.072L825.426 182.971V172H873V189.037H866.73V178.365H831.695V189.198L827.27 189.299V195.997L831.695 195.84V213Z" fill="#64645E"/>
<path fill-rule="evenodd" clip-rule="evenodd" d="M821 191H854V183H821V191Z" fill="#64645E"/>
<path fill-rule="evenodd" clip-rule="evenodd" d="M857 191H874V183H857V191Z" fill="#64645E"/>
<path fill-rule="evenodd" clip-rule="evenodd" d="M825 203H874V195H825V203Z" fill="#64645E"/>
<path fill-rule="evenodd" clip-rule="evenodd" d="M835 216H843V208H835V216Z" fill="#64645E"/>
<path fill-rule="evenodd" clip-rule="evenodd" d="M842 216H856V208H842V216Z" fill="#64645E"/>
<path fill-rule="evenodd" clip-rule="evenodd" d="M861 216H874V208H861V216Z" fill="#64645E"/>
<path fill-rule="evenodd" clip-rule="evenodd" d="M858 199H866V183H858V199Z" fill="#64645E"/>
<path fill-rule="evenodd" clip-rule="evenodd" d="M869 233H839V227.096H862.585V221.946L839.525 222.098L839.475 216.194L869 216V233Z" fill="#64645E"/>
<path fill-rule="evenodd" clip-rule="evenodd" d="M744 65H805V57H744V65Z" fill="#64645E"/>
<path fill-rule="evenodd" clip-rule="evenodd" d="M799.523 169C788.321 169 778.827 164.998 771.305 157.097C752.259 137.103 750.472 97.179 751.102 75.1581L751.192 72L757.339 72.186L757.249 75.3441C756.768 92.2652 757.596 133.666 775.698 152.674C782.022 159.314 790.04 162.676 799.534 162.676C799.646 162.676 799.758 162.676 799.874 162.676L802.949 162.65L803 168.974L799.925 169C799.791 169 799.657 169 799.523 169Z" fill="#64645E"/>
<path fill-rule="evenodd" clip-rule="evenodd" d="M797.477 171C797.343 171 797.21 171 797.076 171L794 170.974L794.051 164.632L797.126 164.658C806.816 164.744 814.983 161.33 821.399 154.522C839.773 135.029 840.319 92.6976 839.697 75.4023L839.585 72.235L845.732 72L845.844 75.1673C846.206 85.255 846.112 100.528 843.612 116.029C840.511 135.264 834.519 149.702 825.809 158.943C818.269 166.945 808.738 171 797.477 171Z" fill="#64645E"/>
<path fill-rule="evenodd" clip-rule="evenodd" d="M793.343 174.102H805.657V168.898H793.343V174.102ZM787 180H812V163H787V180Z" fill="#64645E"/>
<path fill-rule="evenodd" clip-rule="evenodd" d="M768.384 224L765 218.682L767.514 216.891C767.724 216.74 788.938 201.333 788.938 180.206V177H795V180.206C795 204.777 771.882 221.511 770.898 222.212L768.384 224Z" fill="#64645E"/>
<path fill-rule="evenodd" clip-rule="evenodd" d="M833.198 223L830.419 221.568C830.126 221.418 823.171 217.802 816.33 211.008C807.056 201.802 802.464 191.142 803.05 180.175L803.222 177L809.437 177.348L809.268 180.522C808.082 202.7 832.968 215.761 833.22 215.892L836 217.32L833.198 223Z" fill="#64645E"/>
<path fill-rule="evenodd" clip-rule="evenodd" d="M809 233H763V216H796.885V221.898H769.436V227.102H809V233Z" fill="#64645E"/>
<path fill-rule="evenodd" clip-rule="evenodd" d="M837 233H815.07V227.102H830.938V221.898H814V216H837V233Z" fill="#64645E"/>
<path fill-rule="evenodd" clip-rule="evenodd" d="M839 80H856V72H839V80Z" fill="#64645E"/>
<path fill-rule="evenodd" clip-rule="evenodd" d="M803 80H826V72H803V80Z" fill="#64645E"/>
<path fill-rule="evenodd" clip-rule="evenodd" d="M790 77H744V57H750.49V70.6449H790V77Z" fill="#64645E"/>
<path fill-rule="evenodd" clip-rule="evenodd" d="M850 74H858V57H850V74Z" fill="#64645E"/>
<path fill-rule="evenodd" clip-rule="evenodd" d="M799.301 151C798.904 151 798.504 150.993 798.092 150.974L795 150.843L795.255 144.481L798.347 144.612C809.033 145.065 813.92 137.46 816.131 131.005L817.158 128L823 130.117L821.969 133.122C819.657 139.877 813.658 151 799.301 151Z" fill="#64645E"/>
<path fill-rule="evenodd" clip-rule="evenodd" d="M825.985 128L819 126.965L819.549 123.657C819.578 123.461 819.595 123.339 819.599 123.307L820.007 120L827 120.74L826.63 124.051C826.63 124.051 826.605 124.28 826.534 124.693L825.985 128Z" fill="#64645E"/>
<path fill-rule="evenodd" clip-rule="evenodd" d="M828 91H836V77H828V91Z" fill="#64645E"/>
<path fill-rule="evenodd" clip-rule="evenodd" d="M828 46H836V32H828V46Z" fill="#64645E"/>
<path fill-rule="evenodd" clip-rule="evenodd" d="M808 65H819V57H808V65Z" fill="#64645E"/>
<path fill-rule="evenodd" clip-rule="evenodd" d="M840.725 64L837.651 63.3518C832.327 62.225 828.743 58.5658 828.299 53.7987L828 50.6105L834.252 50L834.551 53.1882C834.813 55.9957 837.965 56.8738 838.926 57.0773L842 57.7292L840.725 64Z" fill="#64645E"/>
<path fill-rule="evenodd" clip-rule="evenodd" d="M822.278 64L821 57.7254L824.074 57.0735C825.035 56.87 828.19 55.9882 828.449 53.1882L828.745 50L835 50.603L834.704 53.7949C834.261 58.5583 830.677 62.2213 825.353 63.348L822.278 64Z" fill="#64645E"/>
<path fill-rule="evenodd" clip-rule="evenodd" d="M834.252 73L828 72.4241L828.299 69.3981C828.765 64.6479 832.611 60.6275 837.651 59.6152L840.725 59L842 64.952L838.926 65.5708C836.635 66.0286 834.754 67.9244 834.551 69.9739L834.252 73Z" fill="#64645E"/>
<path fill-rule="evenodd" clip-rule="evenodd" d="M828.748 73L828.449 69.8766C828.22 67.4768 825.951 66.1698 824.078 65.7822L821 65.1472L822.275 59L825.353 59.6387C830.577 60.7205 834.25 64.5047 834.704 69.2822L835 72.4056L828.748 73Z" fill="#64645E"/>
<path fill-rule="evenodd" clip-rule="evenodd" d="M798 224H806V216H798V224Z" fill="#64645E"/>
<path fill-rule="evenodd" clip-rule="evenodd" d="M1113.15 168L1111 161.459L1114.19 160.359C1114.76 160.164 1115.32 159.916 1115.86 159.62L1118.84 158L1122 164.09L1119.03 165.714C1118.16 166.185 1117.25 166.587 1116.34 166.9L1113.15 168Z" fill="#64645E"/>
<path fill-rule="evenodd" clip-rule="evenodd" d="M1180.23 107.424L1174.67 104.41L1176.21 101.693C1177.11 100.109 1178.03 98.7231 1179.04 97.454L1180.98 95L1186 98.8109L1184.05 101.265C1183.25 102.278 1182.5 103.404 1181.77 104.706L1180.23 107.424ZM1173.59 123.49L1167.78 120.978L1169.07 118.136C1169.73 116.673 1170.34 115.166 1170.79 114.018L1171.95 111.121L1177.86 113.382L1176.71 116.278C1176.23 117.485 1175.59 119.076 1174.87 120.649L1173.59 123.49ZM1107.3 134.451L1104.46 128.888L1107.31 127.502C1108.93 126.705 1110.62 126.091 1112.33 125.67L1115.41 124.909L1116.95 130.94L1113.88 131.697C1112.62 132.008 1111.36 132.469 1110.14 133.065L1107.3 134.451ZM1132.79 134.517L1129.76 133.581C1128.07 133.054 1126.69 132.663 1125.43 132.341L1122.35 131.566L1123.94 125.546L1127.01 126.321C1128.39 126.668 1129.87 127.093 1131.68 127.652L1134.7 128.589L1132.79 134.517ZM1159.67 137.033L1156.56 131.617L1159.32 130.092C1160.47 129.455 1161.55 128.695 1162.53 127.824L1164.88 125.736L1169.14 130.34L1166.79 132.429C1165.46 133.61 1164 134.645 1162.44 135.508L1159.67 137.033ZM1150.88 138.569L1147.72 138.247C1146.14 138.09 1144.51 137.816 1142.72 137.417L1139.63 136.722L1141.04 130.662L1144.14 131.357C1145.67 131.701 1147.06 131.931 1148.37 132.067L1151.53 132.385L1150.88 138.569ZM1099 147.032L1093 145.017L1094.03 142.077C1094.6 140.442 1095.37 138.844 1096.33 137.319L1098 134.671L1103.4 137.929L1101.74 140.577C1101.03 141.707 1100.45 142.892 1100.04 144.092L1099 147.032ZM1102.66 163L1100.07 161.197C1098.5 160.1 1097.13 158.787 1096.02 157.284L1094.15 154.771L1099.29 151.114L1101.16 153.63C1101.86 154.585 1102.73 155.426 1103.75 156.132L1106.33 157.935L1102.66 163Z" fill="#64645E"/>
<path fill-rule="evenodd" clip-rule="evenodd" d="M1190.06 99L1188 91.6823L1191.37 90.5617C1192.24 90.2736 1193.15 90.0216 1194.07 89.8056L1197.52 89L1199 96.4797L1195.55 97.2853C1194.82 97.4518 1194.11 97.6544 1193.44 97.8794L1190.06 99Z" fill="#64645E"/>
<path fill-rule="evenodd" clip-rule="evenodd" d="M1139.62 196L1134 193.72L1151.38 149L1157 151.28L1139.62 196Z" fill="#64645E"/>
<path fill-rule="evenodd" clip-rule="evenodd" d="M1168.42 186L1124 164.976L1126.58 159L1171 180.024L1168.42 186Z" fill="#64645E"/>
<path fill-rule="evenodd" clip-rule="evenodd" d="M1038.18 118L1032 117.62L1032.2 114.662C1032.55 109.467 1033.43 103.568 1039.5 99.3445C1046.59 94.4141 1057.55 92.7451 1063.9 99.355L1066 101.54L1061.44 105.543L1059.34 103.362C1055.17 99.0274 1047.37 101.202 1043.15 104.136C1039.59 106.606 1038.73 109.878 1038.38 115.042L1038.18 118Z" fill="#64645E"/>
<path fill-rule="evenodd" clip-rule="evenodd" d="M1100.63 249L1097.53 248.326C1086.42 245.911 1082.25 235.301 1079.77 228.961C1079.52 228.324 1079.28 227.724 1079.06 227.172C1077.6 223.619 1075.88 219.47 1074.05 215.081C1069.03 203.016 1063.35 189.339 1059.69 179.594C1048.19 148.955 1040.8 133.853 1036.38 124.829C1035.18 122.396 1034.15 120.29 1033.3 118.416L1032 115.559L1037.8 113L1039.1 115.857C1039.91 117.65 1040.92 119.715 1042.1 122.112C1046.56 131.235 1054.04 146.503 1065.65 177.425C1069.27 187.067 1074.93 200.689 1079.93 212.71C1081.76 217.106 1083.48 221.259 1084.95 224.826C1085.19 225.408 1085.43 226.038 1085.69 226.704C1087.98 232.536 1091.11 240.525 1098.9 242.215L1102 242.888L1100.63 249Z" fill="#64645E"/>
<path fill-rule="evenodd" clip-rule="evenodd" d="M1093.75 174C1092.49 174 1091.28 173.292 1090.76 172.105C1084.87 158.947 1078.57 144.952 1073.5 133.711C1067.01 119.31 1062.33 108.903 1061.24 106.307C1060.56 104.703 1061.37 102.875 1063.03 102.229C1064.7 101.581 1066.6 102.355 1067.27 103.959C1068.33 106.484 1073.25 117.397 1079.47 131.215C1084.54 142.463 1090.85 156.462 1096.73 169.627C1097.45 171.216 1096.68 173.06 1095.03 173.746C1094.61 173.919 1094.17 174 1093.75 174Z" fill="#64645E"/>
<path fill-rule="evenodd" clip-rule="evenodd" d="M1097.03 187C1095.6 187 1094.07 186.246 1093.32 184.543C1092.92 183.635 1092.91 182.658 1093.21 181.786C1093.61 180.433 1094.7 179.483 1095.89 179.147C1097.56 178.675 1099.75 179.311 1100.68 181.455C1101.08 182.358 1101.09 183.326 1100.8 184.189C1100.41 185.551 1099.31 186.509 1098.11 186.85C1097.77 186.95 1097.4 187 1097.03 187Z" fill="#64645E"/>
<path fill-rule="evenodd" clip-rule="evenodd" d="M1100.06 247C1096.55 247 1092.98 245.71 1089.79 243.251C1085.3 239.796 1082.33 234.528 1082.03 229.5C1081.59 222.095 1086.28 215.916 1094.26 213.376C1098.21 212.119 1102.21 211.992 1105.73 212.849C1103.92 208.511 1101.14 202.008 1096.9 192.297C1096.21 190.728 1096.96 188.915 1098.57 188.246C1100.19 187.581 1102.04 188.308 1102.73 189.878C1113.14 213.714 1114.85 218.422 1115.18 219.861C1115.51 221.322 1114.73 222.804 1113.31 223.382C1111.9 223.959 1110.25 223.465 1109.42 222.208C1106.85 218.328 1100.84 217.779 1096.23 219.247C1094.29 219.865 1087.96 222.412 1088.36 229.14C1088.56 232.41 1090.66 236.05 1093.72 238.408C1096.2 240.312 1098.9 241.133 1101.33 240.718C1108.83 239.436 1118.08 232.995 1127.88 226.179C1138.06 219.102 1148.58 211.781 1158.96 208.911C1160.65 208.442 1162.4 209.398 1162.88 211.04C1163.36 212.679 1162.38 214.386 1160.69 214.851C1151.37 217.431 1141.3 224.435 1131.57 231.207C1121.17 238.441 1111.34 245.274 1102.43 246.8C1101.65 246.935 1100.86 247 1100.06 247Z" fill="#64645E"/>
<path fill-rule="evenodd" clip-rule="evenodd" d="M1182.14 54.7154L1182.06 51.5773C1181.82 42.3327 1191.21 35.4804 1200.42 34.1957C1208 33.1398 1213.01 37.0126 1217.11 40.7267L1219.44 42.8385L1215.2 47.4792L1212.86 45.3674C1208.78 41.6755 1205.73 39.7926 1201.3 40.4092C1195.99 41.1513 1188.2 45.1607 1188.37 51.4185L1188.44 54.553L1182.14 54.7154Z" fill="#64645E"/>
<path fill-rule="evenodd" clip-rule="evenodd" d="M1260.32 184.657L1255.31 180.847L1257.23 178.355C1262.44 171.572 1260.3 166.54 1258.05 161.217C1257.8 160.644 1257.56 160.079 1257.34 159.526C1252.02 146.427 1245.41 130.843 1239.67 117.836C1226.29 87.5478 1219.17 66.3228 1214.91 53.6374C1213.12 48.3025 1211.83 44.4481 1210.78 41.9893L1209.54 39.1022L1215.35 36.6471L1216.59 39.5342C1217.73 42.2256 1219.06 46.1797 1220.9 51.6511C1225.12 64.2332 1232.19 85.2883 1245.45 115.315C1251.21 128.373 1257.84 144.02 1263.19 157.174C1263.4 157.698 1263.63 158.233 1263.86 158.776C1266.31 164.561 1269.68 172.488 1262.24 182.165L1260.32 184.657Z" fill="#64645E"/>
<path fill-rule="evenodd" clip-rule="evenodd" d="M1190.55 204L1187.55 198.46L1190.35 196.978C1199.9 191.93 1212.72 190.045 1225.13 188.219C1237.07 186.46 1248.35 184.8 1254.68 180.583C1256.73 179.212 1258.09 176.751 1258.51 173.654C1259.03 169.821 1257.95 165.712 1255.75 163.184C1252.51 159.458 1248.72 159.71 1246.12 160.578C1240.66 162.396 1235.97 168.147 1235.65 173.403C1235.57 174.77 1234.6 175.93 1233.25 176.263C1231.9 176.596 1230.49 176.027 1229.77 174.855C1227.29 170.864 1211.38 129.219 1193.88 83.1993C1188.48 68.9964 1184.22 57.7833 1183.19 55.2665L1182 52.3542L1187.9 50L1189.09 52.9123C1190.15 55.4993 1194.21 66.1913 1199.84 80.9892C1209.22 105.67 1225.18 147.658 1232.07 164.485C1234.75 160.009 1239.1 156.287 1244.08 154.624C1250.29 152.555 1256.3 154.181 1260.57 159.089C1263.95 162.973 1265.58 168.875 1264.81 174.489C1264.15 179.39 1261.81 183.403 1258.23 185.787C1250.72 190.806 1238.74 192.565 1226.06 194.432C1214.19 196.18 1201.93 197.983 1193.35 202.518L1190.55 204Z" fill="#64645E"/>
<path fill-rule="evenodd" clip-rule="evenodd" d="M1180.35 80L1178 73.7995L1180.86 72.5262C1184.23 71.0283 1184.71 68.9707 1184.75 67.3466L1184.82 64L1191 64.1656L1190.92 67.5161C1190.84 71.0993 1189.43 75.9557 1183.2 78.7268L1180.35 80Z" fill="#64645E"/>
<path fill-rule="evenodd" clip-rule="evenodd" d="M1172.64 81L1172 73.9094L1175.17 73.5532C1175.46 73.5196 1175.75 73.4861 1176.04 73.4442L1179.21 73L1180 80.0697L1176.84 80.5139C1176.49 80.56 1176.15 80.6019 1175.81 80.6396L1172.64 81Z" fill="#64645E"/>
<path fill-rule="evenodd" clip-rule="evenodd" d="M1098.21 108L1095 102.35L1097.69 100.661C1112.45 91.3935 1135.77 79.4963 1163.02 75.4609L1166.13 75L1167 81.5179L1163.9 81.9788C1137.67 85.8632 1115.17 97.3576 1100.9 106.311L1098.21 108Z" fill="#64645E"/>
<path fill-rule="evenodd" clip-rule="evenodd" d="M1073.56 119C1070 119 1067.89 117.054 1066.83 115.671L1065 113.269L1069.86 109.654L1071.69 112.056C1073.29 114.143 1076.77 112.491 1081.88 109.145L1082.47 108.763C1082.89 108.49 1083.41 108.133 1084.04 107.705L1086.55 106L1090 110.956L1087.49 112.661C1086.82 113.117 1086.25 113.499 1085.81 113.789L1085.24 114.157C1083.12 115.547 1080.21 117.451 1077.19 118.399C1075.84 118.823 1074.64 119 1073.56 119Z" fill="#64645E"/>
<path fill-rule="evenodd" clip-rule="evenodd" d="M1164.45 213L1162 207.332L1176.01 202.03L1180.02 185L1195 196.128L1190.94 200.919L1184.14 195.869L1181.64 206.49L1164.45 213Z" fill="#64645E"/>
<path fill-rule="evenodd" clip-rule="evenodd" d="M1101 125L1084 110.611L1087.4 105.621L1094.57 111.695L1093.91 100.416L1099.52 100L1101 125Z" fill="#64645E"/>
<path fill-rule="evenodd" clip-rule="evenodd" d="M1239.65 184L1236.24 183.321C1234.2 182.916 1232.55 181.354 1231.95 179.247L1231 175.906L1237.68 174L1238.44 176.671L1241 177.182L1239.65 184Z" fill="#64645E"/>
<path fill-rule="evenodd" clip-rule="evenodd" d="M110.071 35C105.375 35 100.605 34.2811 95.9015 32.7737C84.1923 29.0142 74.6614 20.9634 69.0639 10.1031C63.4661 -0.760906 62.4728 -13.1287 66.2659 -24.7299C71.7568 -41.521 86.7323 -53.7861 104.418 -55.9757C106.141 -56.1885 107.715 -54.9781 107.931 -53.2689C108.146 -51.5597 106.923 -50.0009 105.198 -49.7882C89.9261 -47.8993 76.9944 -37.3067 72.2532 -22.808C68.978 -12.7912 69.8358 -2.11065 74.6688 7.26421C79.5018 16.6427 87.7311 23.5969 97.841 26.8392C118.712 33.5402 141.193 22.1664 147.954 1.48745C148.272 0.51915 148.554 -0.471153 148.794 -1.45779C149.201 -3.13029 150.901 -4.15728 152.591 -3.75382C154.28 -3.35036 155.319 -1.66685 154.911 0.00566101C154.634 1.14267 154.308 2.29069 153.941 3.40936C147.634 22.6982 129.513 35 110.071 35Z" fill="#64645E"/>
<path fill-rule="evenodd" clip-rule="evenodd" d="M110.978 26C107.309 26 103.584 25.4319 99.91 24.2442C84.4555 19.2372 74.2308 4.42506 75.0454 -11.78L75.2019 -14.8919L81.4262 -14.5767L81.2701 -11.4647C80.5966 1.92888 89.0514 14.1752 101.831 18.3172C117.443 23.3719 134.258 14.7873 139.315 -0.820217C144.373 -16.4314 135.787 -33.2449 120.176 -38.2996C113.844 -40.3523 107.196 -40.2496 100.95 -38.0027L98.0172 -36.9471L95.9077 -42.8118L98.8398 -43.8638C106.397 -46.5836 114.439 -46.7082 122.096 -44.2267C140.977 -38.1127 151.362 -17.7803 145.245 1.10049C140.318 16.3048 126.163 25.9963 110.978 26Z" fill="#64645E"/>
<path fill-rule="evenodd" clip-rule="evenodd" d="M108.648 16L108 9.86907L111.122 9.55002C118.766 8.77414 125.234 3.63301 127.602 -3.5421C128.073 -4.97059 128.373 -6.44622 128.493 -7.92547L128.742 -11L135 -10.5105L134.751 -7.43601C134.592 -5.47818 134.196 -3.5276 133.574 -1.64227C130.441 7.85323 121.883 14.6513 111.77 15.6809L108.648 16Z" fill="#64645E"/>
<path fill-rule="evenodd" clip-rule="evenodd" d="M162.972 267.333C162.718 267.333 162.473 267.393 162.244 267.508L156.424 270.515C155.676 270.898 155.395 271.796 155.799 272.515L179.665 314.892C179.987 315.462 180.581 315.667 181.029 315.667C181.283 315.667 181.528 315.607 181.756 315.488L187.576 312.485C188.325 312.098 188.605 311.2 188.201 310.481L164.335 268.108C164.012 267.534 163.419 267.333 162.972 267.333ZM181.029 322C178.022 322 175.269 320.428 173.842 317.898L149.976 275.522C147.841 271.729 149.326 266.983 153.285 264.938L159.105 261.935C160.292 261.32 161.629 261 162.972 261C165.979 261 168.733 262.572 170.158 265.105L194.024 307.478C196.159 311.271 194.674 316.017 190.715 318.059L184.895 321.065C183.708 321.676 182.371 322 181.029 322Z" fill="#64645E"/>
<path fill-rule="evenodd" clip-rule="evenodd" d="M188.997 309L183.311 306.181L184.72 303.34C187.583 297.565 187.255 290.341 183.844 284.017C180.639 278.07 175.136 273.881 169.124 272.806L166 272.25L167.116 266L170.24 266.56C178.141 267.971 185.315 273.37 189.431 281.004C193.817 289.135 194.182 298.539 190.406 306.159L188.997 309Z" fill="#64645E"/>
<path fill-rule="evenodd" clip-rule="evenodd" d="M109.697 302.404C109.538 302.404 109.401 302.434 109.278 302.501L105.915 304.332C105.3 304.667 105.09 305.933 105.73 307.131L122.292 338.112C122.836 339.133 123.711 339.597 124.294 339.597C124.452 339.597 124.589 339.563 124.713 339.495L128.076 337.664C128.422 337.48 128.555 337.054 128.603 336.817C128.728 336.218 128.603 335.506 128.262 334.865L111.699 303.884C111.155 302.867 110.279 302.404 109.697 302.404ZM124.294 346C121.21 346 118.301 344.143 116.704 341.152L100.141 310.171C97.864 305.91 99.1021 300.761 102.901 298.697L106.265 296.866C107.308 296.298 108.495 296 109.697 296C112.781 296 115.689 297.857 117.287 300.844L133.851 331.829C134.906 333.803 135.25 336.037 134.819 338.124C134.353 340.38 132.994 342.267 131.089 343.303L127.727 345.13C126.684 345.699 125.497 346 124.294 346Z" fill="#64645E"/>
<path fill-rule="evenodd" clip-rule="evenodd" d="M77.8656 369L55 328L74.7627 329.301L74.3152 335.659L66.4722 335.141L78.4322 356.588L82.4956 350.624L88 354.132L77.8656 369Z" fill="#64645E"/>
<path fill-rule="evenodd" clip-rule="evenodd" d="M71.6282 337L68 331.891L103.372 307L107 312.109L71.6282 337Z" fill="#64645E"/>
<path fill-rule="evenodd" clip-rule="evenodd" d="M114.77 306L111 300.846L153.229 272L157 277.158L114.77 306Z" fill="#64645E"/>
<path fill-rule="evenodd" clip-rule="evenodd" d="M87.324 353L85 347.014L120.676 333L123 338.99L87.324 353Z" fill="#64645E"/>
<path fill-rule="evenodd" clip-rule="evenodd" d="M130.354 336L128 329.988L171.647 313L174 319.012L130.354 336Z" fill="#64645E"/>
<path fill-rule="evenodd" clip-rule="evenodd" d="M79.6353 353L68 330.956L73.3643 328L85 350.044L79.6353 353Z" fill="#64645E"/>
<path fill-rule="evenodd" clip-rule="evenodd" d="M196.971 330.333C196.717 330.333 196.472 330.392 196.244 330.512L190.424 333.518C189.675 333.902 189.394 334.799 189.798 335.518L213.662 377.892C213.984 378.466 214.576 378.667 215.023 378.667C215.278 378.667 215.523 378.608 215.752 378.488L221.571 375.486C222.06 375.233 222.248 374.827 222.317 374.61C222.385 374.391 222.46 373.955 222.197 373.485L198.333 331.111C198.011 330.538 197.418 330.333 196.971 330.333ZM215.023 385C212.017 385 209.264 383.428 207.84 380.895L183.975 338.521C181.842 334.732 183.326 329.986 187.285 327.941L193.105 324.939C194.291 324.324 195.628 324 196.971 324C199.977 324 202.729 325.572 204.155 328.105L228.019 370.479C229.053 372.316 229.278 374.428 228.653 376.425C228.028 378.425 226.628 380.072 224.71 381.059L218.891 384.065C217.704 384.676 216.366 385 215.023 385Z" fill="#64645E"/>
<path fill-rule="evenodd" clip-rule="evenodd" d="M221.123 372L215.616 369.179L216.981 366.336C219.753 360.556 219.437 353.326 216.133 346.997C212.68 340.377 206.524 335.994 200.067 335.55L197 335.34L197.407 329L200.474 329.213C209.022 329.8 217.095 335.456 221.544 343.982C225.792 352.123 226.144 361.535 222.488 369.157L221.123 372Z" fill="#64645E"/>
<path fill-rule="evenodd" clip-rule="evenodd" d="M143.699 365.404C143.541 365.404 143.405 365.434 143.281 365.501L139.917 367.332C139.301 367.667 139.091 368.937 139.731 370.131L156.298 401.112C156.842 402.133 157.718 402.597 158.302 402.597C158.459 402.597 158.596 402.563 158.72 402.495L162.083 400.668C162.699 400.333 162.909 399.063 162.269 397.865L145.702 366.884C145.158 365.867 144.282 365.404 143.699 365.404ZM158.302 409C155.216 409 152.307 407.143 150.708 404.152L134.141 373.171C131.864 368.91 133.103 363.761 136.902 361.697L140.267 359.866C141.309 359.298 142.497 359 143.699 359C146.784 359 149.693 360.857 151.292 363.844L167.859 394.826C170.136 399.09 168.897 404.235 165.097 406.303L161.733 408.134C160.69 408.699 159.503 409 158.302 409Z" fill="#64645E"/>
<path fill-rule="evenodd" clip-rule="evenodd" d="M109.753 432L89 391L107.557 391.614L107.371 398.017L99.2486 397.75L110.27 419.526L113.978 413.529L119 417.057L109.753 432Z" fill="#64645E"/>
<path fill-rule="evenodd" clip-rule="evenodd" d="M105.628 399L102 393.887L137.372 369L141 374.109L105.628 399Z" fill="#64645E"/>
<path fill-rule="evenodd" clip-rule="evenodd" d="M149.77 369L146 363.846L188.229 335L192 340.154L149.77 369Z" fill="#64645E"/>
<path fill-rule="evenodd" clip-rule="evenodd" d="M117.325 420L115 413.775L153.675 398L156 404.225L117.325 420Z" fill="#64645E"/>
<path fill-rule="evenodd" clip-rule="evenodd" d="M163.299 399L161 393.383L207.701 376L210 381.613L163.299 399Z" fill="#64645E"/>
<path fill-rule="evenodd" clip-rule="evenodd" d="M113.636 416L102 393.956L107.364 391L119 413.044L113.636 416Z" fill="#64645E"/>
<path fill-rule="evenodd" clip-rule="evenodd" d="M130.495 376L111 339.956L116.505 337L136 373.041L130.495 376Z" fill="#64645E"/>
<path fill-rule="evenodd" clip-rule="evenodd" d="M150.767 366L133 330.998L138.233 328L156 363.006L150.767 366Z" fill="#64645E"/>
<path fill-rule="evenodd" clip-rule="evenodd" d="M165.613 387L163 381.517L165.891 380.278C166.009 380.225 177.71 375.212 184.461 372.26L187.342 371L190 376.462L187.119 377.722C180.346 380.685 168.622 385.712 168.504 385.761L165.613 387Z" fill="#64645E"/>
<path fill-rule="evenodd" clip-rule="evenodd" d="M130.398 324L128 318.175L130.917 316.978C131.035 316.93 142.838 312.08 149.649 309.223L152.556 308L155 313.81L152.093 315.029C145.259 317.897 133.434 322.755 133.315 322.803L130.398 324Z" fill="#64645E"/>
<path fill-rule="evenodd" clip-rule="evenodd" d="M523.5 13.1582C512.282 13.1582 503.158 22.2831 503.158 33.5018C503.158 44.7169 512.282 53.8418 523.5 53.8418C534.714 53.8418 543.842 44.7169 543.842 33.5018C543.842 22.2831 534.714 13.1582 523.5 13.1582ZM523.5 60C508.888 60 497 48.1148 497 33.5018C497 18.8889 508.888 7 523.5 7C538.112 7 550 18.8889 550 33.5018C550 48.1148 538.112 60 523.5 60Z" fill="#64645E"/>
<path fill-rule="evenodd" clip-rule="evenodd" d="M532.065 48L527 44.0986L529.083 41.7289C533.088 37.1665 531.043 33.117 529.469 31.1085L527.525 28.6377L532.81 25L534.754 27.4745C539.287 33.2471 539.06 40.0347 534.149 45.6303L532.065 48Z" fill="#64645E"/>
<path fill-rule="evenodd" clip-rule="evenodd" d="M528.325 29L525.226 28.1311C525.204 28.1233 525.185 28.1194 525.162 28.1155L522 27.5597L523.075 21L526.238 21.5558C526.453 21.5949 526.675 21.6458 526.902 21.7084L530 22.5773L528.325 29Z" fill="#64645E"/>
<path fill-rule="evenodd" clip-rule="evenodd" d="M548.5 57.1582C537.286 57.1582 528.158 66.2831 528.158 77.5018C528.158 88.7169 537.286 97.8418 548.5 97.8418C559.718 97.8418 568.842 88.7169 568.842 77.5018C568.842 66.2831 559.718 57.1582 548.5 57.1582ZM548.5 104C533.888 104 522 92.1111 522 77.5018C522 62.8889 533.888 51 548.5 51C563.112 51 575 62.8889 575 77.5018C575 92.1111 563.112 104 548.5 104Z" fill="#64645E"/>
<path fill-rule="evenodd" clip-rule="evenodd" d="M557.065 91L552 87.0986L554.083 84.7289C558.088 80.1665 556.043 76.117 554.469 74.1085L552.525 71.6341L557.81 68L559.754 70.4745C564.287 76.2471 564.06 83.0347 559.149 88.6267L557.065 91Z" fill="#64645E"/>
<path fill-rule="evenodd" clip-rule="evenodd" d="M553.337 72L550.24 71.1359C550.214 71.1281 550.187 71.1241 550.161 71.1163L547 70.5494L548.094 64L551.255 64.567C551.466 64.6061 551.685 64.6569 551.903 64.7155L555 65.5797L553.337 72Z" fill="#64645E"/>
<path fill-rule="evenodd" clip-rule="evenodd" d="M499.502 56.1582C488.283 56.1582 479.158 65.2831 479.158 76.5018C479.158 87.7169 488.283 96.8418 499.502 96.8418C510.717 96.8418 519.842 87.7169 519.842 76.5018C519.842 65.2831 510.717 56.1582 499.502 56.1582ZM499.502 103C484.889 103 473 91.1111 473 76.5018C473 61.8889 484.889 50 499.502 50C514.111 50 526 61.8889 526 76.5018C526 91.1111 514.111 103 499.502 103Z" fill="#64645E"/>
<path fill-rule="evenodd" clip-rule="evenodd" d="M509.066 91L504 87.0986L506.084 84.7289C510.089 80.1665 508.044 76.117 506.466 74.1085L504.525 71.6341L509.811 68L511.752 70.4745C516.286 76.2507 516.062 83.0383 511.15 88.6267L509.066 91Z" fill="#64645E"/>
<path fill-rule="evenodd" clip-rule="evenodd" d="M504.442 71L501.855 68.7111C501.822 68.6826 501.79 68.654 501.762 68.6295L499 66.5569L503.124 61L505.886 63.0726C506.064 63.2073 506.238 63.3501 506.413 63.5051L509 65.794L504.442 71Z" fill="#64645E"/>
<path fill-rule="evenodd" clip-rule="evenodd" d="M412.974 11C412.937 11 412.895 11 412.858 11C410.705 10.9402 409 9.2023 409 7.09655C409 7.05977 409 7.02299 409.005 6.98161C409.065 4.74713 410.835 3 413.03 3C415.221 3 417 4.74713 417 6.90805C417 7.33563 416.925 7.75402 416.795 8.14023C416.327 9.7954 414.786 11 412.974 11Z" fill="#64645E"/>
<path fill-rule="evenodd" clip-rule="evenodd" d="M416.812 53C415.711 53 414.637 52.4532 414.048 51.4682C408.783 42.7225 406 32.7274 406 22.5622C406 19.9439 406.173 17.2967 406.511 14.6965C406.732 13.009 408.332 11.8139 410.078 12.0239C411.825 12.2376 413.068 13.7767 412.846 15.4643C412.542 17.8109 412.384 20.1974 412.384 22.5622C412.384 31.6446 414.87 40.5714 419.568 48.3755C420.454 49.8458 419.932 51.7325 418.408 52.5835C417.904 52.866 417.352 53 416.812 53Z" fill="#64645E"/>
<path fill-rule="evenodd" clip-rule="evenodd" d="M542.588 23L538 18.8208L584.318 -31.3734L588.016 -27.5434L602.914 -36L606 -30.6314L586.885 -19.7815L584.421 -22.3348L542.588 23Z" fill="#64645E"/>
<path fill-rule="evenodd" clip-rule="evenodd" d="M458.19 16L456.223 13.54C440.959 -5.55315 427.073 -23.3789 426.937 -23.5584L425 -26.0408L429.861 -30L431.795 -27.5176C431.934 -27.3381 445.795 -9.54226 461.033 9.51349L463 11.9735L458.19 16Z" fill="#64645E"/>
<path fill-rule="evenodd" clip-rule="evenodd" d="M460.516 104C434.866 104 414 82.6925 414 56.5C414 30.3075 434.866 9 460.516 9C475.363 9 489.445 16.3369 498.178 28.6221L500 31.1781L494.987 34.8949L493.169 32.3352C485.594 21.6833 473.388 15.3249 460.516 15.3249C438.284 15.3249 420.194 33.7973 420.194 56.5C420.194 79.2027 438.284 97.6751 460.516 97.6751C466.998 97.6751 473.188 96.1534 478.908 93.1509L481.663 91.7074L484.493 97.3328L481.739 98.7801C475.225 102.196 467.887 104 460.516 104Z" fill="#64645E"/>
<path fill-rule="evenodd" clip-rule="evenodd" d="M460.502 49.3471C457.109 49.3471 454.346 52.1062 454.346 55.5C454.346 58.8938 457.109 61.6529 460.502 61.6529C463.895 61.6529 466.654 58.8938 466.654 55.5C466.654 52.1062 463.895 49.3471 460.502 49.3471ZM460.502 68C453.611 68 448 62.3922 448 55.5C448 48.6078 453.611 43 460.502 43C467.393 43 473 48.6078 473 55.5C473 62.3922 467.393 68 460.502 68Z" fill="#64645E"/>
<path fill-rule="evenodd" clip-rule="evenodd" d="M474.969 77L464 65.01L469.031 61L480 72.99L474.969 77Z" fill="#64645E"/>
<path fill-rule="evenodd" clip-rule="evenodd" d="M453.342 52L430 23.1905L434.658 19L458 47.8095L453.342 52Z" fill="#64645E"/>
<path fill-rule="evenodd" clip-rule="evenodd" d="M432.596 92L428 87.6397L453.404 59L458 63.3603L432.596 92Z" fill="#64645E"/>
<path fill-rule="evenodd" clip-rule="evenodd" d="M468.699 49L464 44.9452L489.305 19L494 23.0548L468.699 49Z" fill="#64645E"/>
<path fill-rule="evenodd" clip-rule="evenodd" d="M489.739 59L486.618 58.854C482.442 58.658 477.23 58.4411 471.124 58.2075L468 58.0865L468.21 51L471.334 51.121C477.454 51.3545 482.685 51.5714 486.879 51.7716L490 51.9176L489.739 59Z" fill="#64645E"/>
<path fill-rule="evenodd" clip-rule="evenodd" d="M454.805 59L451.553 58.8986C434.949 58.3796 420.401 57.9823 420.256 57.9782L417 57.8931L417.165 51L420.42 51.0892C420.566 51.0933 435.129 51.4866 451.744 52.0096L455 52.111L454.805 59Z" fill="#64645E"/>
<path fill-rule="evenodd" clip-rule="evenodd" d="M464.763 100L457 99.9703L457.237 62L465 62.0334L464.763 100Z" fill="#64645E"/>
<path fill-rule="evenodd" clip-rule="evenodd" d="M464.771 47L457 46.9658L457.229 9L465 9.03424L464.771 47Z" fill="#64645E"/>
<path fill-rule="evenodd" clip-rule="evenodd" d="M615.606 409L612.115 403.493L614.806 401.705C618.278 399.399 620.813 395.881 621.938 391.799C624.5 382.522 619.21 372.844 610.145 370.226C601.081 367.608 591.625 373.022 589.066 382.295C587.862 386.659 588.345 391.262 590.428 395.259L591.934 398.16L586.274 401.245L584.764 398.349C581.9 392.845 581.236 386.512 582.892 380.51C586.413 367.751 599.421 360.305 611.889 363.908C624.357 367.511 631.636 380.823 628.112 393.583C626.564 399.198 623.078 404.041 618.296 407.212L615.606 409Z" fill="#64645E"/>
<path fill-rule="evenodd" clip-rule="evenodd" d="M593.198 407L586 405.13L588.802 396L596 397.87L593.198 407Z" fill="#64645E"/>
<path fill-rule="evenodd" clip-rule="evenodd" d="M600.278 409L593 407.067L595.722 398L603 399.933L600.278 409Z" fill="#64645E"/>
<path fill-rule="evenodd" clip-rule="evenodd" d="M606.278 412L599 410.068L601.722 401L609 402.932L606.278 412Z" fill="#64645E"/>
<path fill-rule="evenodd" clip-rule="evenodd" d="M613.043 412L606 410.245L608.957 401L616 402.755L613.043 412Z" fill="#64645E"/>
<path fill-rule="evenodd" clip-rule="evenodd" d="M599.962 394L593 380.931L599.034 378L606 391.069L599.962 394Z" fill="#64645E"/>
<path fill-rule="evenodd" clip-rule="evenodd" d="M594.401 391L591 385.56L603.599 378L607 383.44L594.401 391Z" fill="#64645E"/>
<path fill-rule="evenodd" clip-rule="evenodd" d="M612.966 398L606 384.931L612.034 382L619 395.069L612.966 398Z" fill="#64645E"/>
<path fill-rule="evenodd" clip-rule="evenodd" d="M609.401 397L606 391.56L618.595 384L622 389.44L609.401 397Z" fill="#64645E"/>
<path fill-rule="evenodd" clip-rule="evenodd" d="M561.146 420L561 413.719L575.839 413.379C594.191 412.957 622.599 412.303 632.67 412.07L635.854 412L636 418.281L632.816 418.355C622.749 418.588 594.341 419.238 575.989 419.66L561.146 420Z" fill="#64645E"/>
<path fill-rule="evenodd" clip-rule="evenodd" d="M625.552 439L566 401.235L569.448 396L629 433.765L625.552 439Z" fill="#64645E"/>
<path fill-rule="evenodd" clip-rule="evenodd" d="M592.978 405L590.051 403.032C588.059 401.686 587.015 400.212 586.326 399.234C586.238 399.112 586.159 398.997 586.08 398.891L584 396.071L589.759 392L591.834 394.819C591.939 394.958 592.047 395.11 592.16 395.269C592.669 395.994 593.154 396.677 594.077 397.299L597 399.271L592.978 405Z" fill="#64645E"/>
<path fill-rule="evenodd" clip-rule="evenodd" d="M610.059 409C610.038 409 610.017 409 609.995 409L607 408.965L607.053 401.6L610.048 401.635C610.94 401.657 612.864 401.158 614.143 400.08L616.617 398L620 404.078L617.53 406.158C614.858 408.406 611.613 409 610.059 409Z" fill="#64645E"/>
<path fill-rule="evenodd" clip-rule="evenodd" d="M670.272 337L579 310.33L580.728 304L672 330.67L670.272 337Z" fill="#64645E"/>
<path fill-rule="evenodd" clip-rule="evenodd" d="M623.285 503L532 476.293L533.715 470L625 496.707L623.285 503Z" fill="#64645E"/>
<path fill-rule="evenodd" clip-rule="evenodd" d="M536.061 473C534.978 473 533.937 472.355 533.421 471.237C531.798 467.706 527.836 454.29 525.964 435.382C524.379 419.405 523.968 395.304 530.999 371.218C531.487 369.548 533.141 368.624 534.688 369.146C536.238 369.671 537.099 371.449 536.611 373.12C529.881 396.165 530.286 419.33 531.812 434.707C533.622 452.944 537.49 465.805 538.695 468.426C539.414 469.995 538.819 471.897 537.362 472.672C536.944 472.896 536.497 473 536.061 473Z" fill="#64645E"/>
<path fill-rule="evenodd" clip-rule="evenodd" d="M539.935 367C539.884 367 539.838 367 539.787 367C537.669 366.923 536 365.218 536 363.161C536 363.111 536.005 363.066 536.005 363.016C536.065 361.347 537.369 359 540.069 359C542.243 359 544 360.718 544 362.844C544 363.418 543.871 363.966 543.639 364.454L543.593 364.562C543.02 365.996 541.586 367 539.935 367Z" fill="#64645E"/>
<path fill-rule="evenodd" clip-rule="evenodd" d="M541.18 357C540.685 357 540.184 356.883 539.712 356.637C538.155 355.818 537.548 353.881 538.361 352.306C547.652 334.298 561.373 319.553 579.148 308.477C580.641 307.548 582.603 308.017 583.524 309.523C584.449 311.03 583.985 313.009 582.491 313.941C565.708 324.397 552.759 338.301 544.006 355.271C543.437 356.369 542.329 357 541.18 357Z" fill="#64645E"/>
<path fill-rule="evenodd" clip-rule="evenodd" d="M619.339 498L616 492.716L618.659 491.057C623.188 488.236 643.862 469.33 658.685 440.98C671.672 416.152 682.838 378.059 662.305 337.592L660.89 334.807L666.497 332L667.912 334.785C677.416 353.514 681.346 373.329 679.595 393.684C678.173 410.237 673.013 427.117 664.259 443.857C656.029 459.592 646.233 472.053 639.463 479.737C632.123 488.063 625.124 494.393 621.999 496.341L619.339 498Z" fill="#64645E"/>
<path fill-rule="evenodd" clip-rule="evenodd" d="M674.295 361L561 329.033L562.705 323L676 354.967L674.295 361Z" fill="#64645E"/>
<path fill-rule="evenodd" clip-rule="evenodd" d="M669.276 346L572 319.001L573.724 313L671 339.999L669.276 346Z" fill="#64645E"/>
<path fill-rule="evenodd" clip-rule="evenodd" d="M642.295 475L529 443.033L530.705 437L644 468.967L642.295 475Z" fill="#64645E"/>
<path fill-rule="evenodd" clip-rule="evenodd" d="M628.305 490L530 462.043L531.695 456L630 483.957L628.305 490Z" fill="#64645E"/>
<path fill-rule="evenodd" clip-rule="evenodd" d="M548.127 478L546.982 475.226C546.251 473.454 545.124 470.508 543.89 466.532L543 463.678L549.047 462L549.937 464.855C551.108 468.627 552.172 471.405 552.854 473.065L554 475.839L548.127 478Z" fill="#64645E"/>
<path fill-rule="evenodd" clip-rule="evenodd" d="M541.13 443L540.815 439.879C537.989 411.918 541.163 371.085 572.34 335.347L574.386 333L579 337.166L576.954 339.509C547.261 373.542 544.25 412.527 546.949 439.237L547.265 442.358L541.13 443Z" fill="#64645E"/>
<path fill-rule="evenodd" clip-rule="evenodd" d="M589.726 323L586 318.14L588.36 316.219C590.2 314.726 592.114 313.239 594.045 311.807L596.487 310L600 315.024L597.559 316.835C595.698 318.212 593.858 319.644 592.085 321.084L589.726 323Z" fill="#64645E"/>
<path fill-rule="evenodd" clip-rule="evenodd" d="M653.662 340L652.695 336.833C651.892 334.196 651.023 331.653 650.189 329.472L649 326.375L655.186 324L656.375 327.097C657.279 329.453 658.172 332.078 659.033 334.894L660 338.065L653.662 340Z" fill="#64645E"/>
<path fill-rule="evenodd" clip-rule="evenodd" d="M631.957 470L627 465.946L629.065 463.513C659.042 428.189 660.864 388.26 657.114 360.983L656.685 357.846L663.081 357L663.51 360.137C667.434 388.673 665.502 430.477 634.022 467.567L631.957 470Z" fill="#64645E"/>
<path fill-rule="evenodd" clip-rule="evenodd" d="M633.257 332L632.644 328.978C632.237 326.964 631.761 325.312 631.229 324.076L630 321.205L636.397 319L637.626 321.87C638.311 323.465 638.904 325.489 639.387 327.879L640 330.905L633.257 332Z" fill="#64645E"/>
<path fill-rule="evenodd" clip-rule="evenodd" d="M633.127 410L627 408.581L627.718 405.544C631.702 388.634 634.155 370.371 634.625 354.117L634.714 351L641 351.18L640.911 354.293C640.43 370.954 637.922 389.657 633.841 406.963L633.127 410Z" fill="#64645E"/>
<path fill-rule="evenodd" clip-rule="evenodd" d="M612.416 462L607 459.12L608.44 456.416C611.2 451.232 613.798 445.655 616.162 439.841L617.313 437L623 439.304L621.845 442.144C619.402 448.154 616.714 453.925 613.856 459.293L612.416 462Z" fill="#64645E"/>
<path fill-rule="evenodd" clip-rule="evenodd" d="M593.964 489L589 484.989L591.199 482.726C593.426 480.431 595.614 477.975 597.708 475.42L599.693 473L605 476.623L603.015 479.046C600.812 481.73 598.507 484.32 596.164 486.737L593.964 489Z" fill="#64645E"/>
<path fill-rule="evenodd" clip-rule="evenodd" d="M608.796 326L604 322.082L606.001 319.732C607.606 317.847 609.119 316.274 610.496 315.051L612.814 313L617 317.541L614.683 319.592C613.519 320.621 612.211 321.984 610.794 323.65L608.796 326Z" fill="#64645E"/>
<path fill-rule="evenodd" clip-rule="evenodd" d="M575.869 391L570 389.037L570.984 386.112C577.738 366.061 585.643 350.343 591.086 340.689L592.601 338L598 341.019L596.485 343.709C591.173 353.134 583.454 368.478 576.856 388.075L575.869 391Z" fill="#64645E"/>
<path fill-rule="evenodd" clip-rule="evenodd" d="M567.815 446L561 445.63L561.213 442.663C561.659 436.446 562.514 432.036 563.699 425.928L564.265 423L571 423.989L570.43 426.917C569.281 432.844 568.45 437.128 568.028 443.037L567.815 446Z" fill="#64645E"/>
<path fill-rule="evenodd" clip-rule="evenodd" d="M563.868 483L563.149 479.93C562.46 477.003 561.886 473.954 561.445 470.869L561 467.766L568.226 467L568.667 470.107C569.086 473.03 569.63 475.92 570.281 478.693L571 481.759L563.868 483Z" fill="#64645E"/>
<path fill-rule="evenodd" clip-rule="evenodd" d="M580.656 487L574 485.315L578.344 471L585 472.685L580.656 487Z" fill="#64645E"/>
<path fill-rule="evenodd" clip-rule="evenodd" d="M590.144 455L584 453.269L584.851 450.147C585.815 446.601 586.464 444.203 587.139 441.694C587.893 438.888 588.688 435.949 590.001 431.122L590.853 428L597 429.731L596.149 432.853C594.836 437.668 594.044 440.608 593.291 443.406C592.612 445.922 591.963 448.324 590.995 451.878L590.144 455Z" fill="#64645E"/>
<path fill-rule="evenodd" clip-rule="evenodd" d="M616.315 361L610 359.413L610.875 356.549C611.662 353.976 612.074 352.598 612.471 351.287C612.838 350.063 613.189 348.892 613.809 346.864L614.685 344L621 345.587L620.125 348.451C619.508 350.469 619.161 351.633 618.795 352.85C618.397 354.168 617.981 355.549 617.191 358.136L616.315 361Z" fill="#64645E"/>
<path fill-rule="evenodd" clip-rule="evenodd" d="M624.718 333L618 331.282L622.278 317L629 318.718L624.718 333Z" fill="#64645E"/>
<path fill-rule="evenodd" clip-rule="evenodd" d="M1132.36 350.211C1131.82 350.211 1131.08 350.58 1130.63 351.405L1130.55 351.562C1129.98 352.604 1130.24 353.681 1130.84 353.999L1167.15 373.672C1167.3 373.753 1167.46 373.789 1167.63 373.789C1168.17 373.789 1168.91 373.42 1169.36 372.598L1169.44 372.441C1169.74 371.911 1169.83 371.32 1169.71 370.815C1169.65 370.549 1169.51 370.191 1169.16 370.001L1132.84 350.328C1132.7 350.251 1132.54 350.211 1132.36 350.211ZM1167.63 380C1166.42 380 1165.22 379.7 1164.17 379.127L1127.86 359.457C1124.15 357.448 1122.9 352.578 1125.06 348.603L1125.15 348.442C1126.65 345.702 1129.41 344 1132.36 344C1133.57 344 1134.77 344.303 1135.82 344.873L1172.14 364.546C1173.97 365.54 1175.3 367.312 1175.79 369.416C1176.25 371.411 1175.95 373.534 1174.93 375.4L1174.84 375.554C1173.34 378.301 1170.58 380 1167.63 380Z" fill="#64645E"/>
<path fill-rule="evenodd" clip-rule="evenodd" d="M1151.23 402L1134.26 392.237L1137.24 386.45L1148.74 393.067L1156.55 377.884L1134.08 364.957L1126.6 379.775L1128.18 380.553L1125.56 386.531L1118 382.82L1131.54 356L1165 375.242L1151.23 402Z" fill="#64645E"/>
<path fill-rule="evenodd" clip-rule="evenodd" d="M1053.15 467C1052.71 467 1052.26 466.906 1051.83 466.715C1050.25 466 1049.56 464.176 1050.29 462.637C1052.07 458.895 1054.05 452.326 1056.33 444.72C1058.99 435.878 1062 425.86 1065.91 415.967C1066.53 414.385 1068.36 413.598 1069.98 414.205C1071.6 414.815 1072.41 416.592 1071.79 418.174C1067.97 427.828 1065 437.717 1062.38 446.446C1060.02 454.287 1057.99 461.062 1056.01 465.219C1055.48 466.339 1054.34 467 1053.15 467Z" fill="#64645E"/>
<path fill-rule="evenodd" clip-rule="evenodd" d="M1075.79 403.779C1076.1 403.928 1076.4 404.114 1076.67 404.339C1076.42 404.127 1076.12 403.936 1075.79 403.779ZM1071.64 409.88C1071.81 409.999 1072 410.109 1072.21 410.207C1072.01 410.113 1071.82 410.003 1071.64 409.88ZM1073.94 411C1073.39 411 1072.83 410.894 1072.3 410.673C1070.74 410.016 1069.87 408.544 1070.02 407.059C1070 406.435 1070.14 405.756 1070.51 405.052C1071.44 403.253 1073.79 402.498 1075.75 403.351C1077.3 404.021 1078.14 405.493 1077.98 406.965C1078 407.568 1077.86 408.221 1077.52 408.896C1076.86 410.219 1075.43 411 1073.94 411Z" fill="#64645E"/>
<path fill-rule="evenodd" clip-rule="evenodd" d="M1078.12 400C1077.57 400 1077.02 399.858 1076.52 399.561C1075.04 398.686 1074.56 396.792 1075.44 395.329C1088.04 374.541 1104.09 368.227 1123.14 376.559C1124.72 377.249 1125.43 379.071 1124.73 380.631C1124.03 382.188 1122.19 382.892 1120.61 382.203C1104.47 375.14 1091.82 380.319 1080.8 398.498C1080.22 399.463 1079.18 400 1078.12 400Z" fill="#64645E"/>
<path fill-rule="evenodd" clip-rule="evenodd" d="M1120.34 505L1115 501.604C1117.51 497.578 1122.25 492.031 1127.73 485.61C1143.11 467.58 1166.37 440.337 1163.44 419.29C1162.38 411.71 1158.06 405.51 1150.23 400.33L1153.68 395C1162.99 401.155 1168.38 409.03 1169.68 418.401C1171.17 429.11 1167.42 441.521 1158.2 456.342C1150.58 468.596 1140.55 480.336 1132.5 489.77C1127.19 496 1122.59 501.379 1120.34 505Z" fill="#64645E"/>
<path fill-rule="evenodd" clip-rule="evenodd" d="M1050.93 467.297C1049.62 467.297 1048.4 468.012 1047.77 469.164C1046.82 470.909 1047.46 473.083 1049.21 474.024L1114.34 509.269C1114.88 509.558 1115.45 509.703 1116.06 509.703C1117.38 509.703 1118.59 508.988 1119.22 507.836L1119.25 507.784C1119.69 506.954 1119.79 506.002 1119.52 505.102C1119.25 504.187 1118.63 503.432 1117.79 502.976L1052.65 467.731C1052.11 467.442 1051.54 467.297 1050.93 467.297ZM1116.06 516C1114.41 516 1112.77 515.585 1111.32 514.8L1046.18 479.558C1041.37 476.958 1039.59 470.953 1042.2 466.171C1043.95 462.974 1047.29 461 1050.93 461C1052.58 461 1054.22 461.415 1055.67 462.2L1120.81 497.442C1123.14 498.701 1124.84 500.791 1125.59 503.317C1126.34 505.847 1126.06 508.514 1124.79 510.829L1124.75 510.892C1123.01 514.044 1119.68 516 1116.06 516Z" fill="#64645E"/>
<path fill-rule="evenodd" clip-rule="evenodd" d="M1109.26 468L1067 444.114L1070.01 438.593L1106.8 459.387L1128.59 418.605L1088.77 396.551L1091.73 391L1137 416.075L1109.26 468Z" fill="#64645E"/>
<path fill-rule="evenodd" clip-rule="evenodd" d="M1172.5 362L1167.47 358.264L1181.86 337.634L1154.11 322.059L1144.76 346.241L1139 343.867L1150.94 313L1191 335.482L1172.5 362Z" fill="#64645E"/>
<path fill-rule="evenodd" clip-rule="evenodd" d="M1182.04 346L1151 329.455L1153.96 324L1185 340.541L1182.04 346Z" fill="#64645E"/>
<path fill-rule="evenodd" clip-rule="evenodd" d="M1117.56 482L1113 477.716C1113.35 477.355 1148.08 441.486 1149.71 421L1156 421.485C1154.2 444.163 1119.06 480.465 1117.56 482Z" fill="#64645E"/>
<path fill-rule="evenodd" clip-rule="evenodd" d="M1149.52 420L1148.29 416.732C1148.12 416.292 1147.92 415.869 1147.7 415.478L1146 412.436L1152.04 409L1153.74 412.042C1154.13 412.741 1154.48 413.485 1154.77 414.253L1156 417.521L1149.52 420Z" fill="#64645E"/>
<path fill-rule="evenodd" clip-rule="evenodd" d="M1150.76 389L1145 385.808L1150.24 376L1156 379.192L1150.76 389Z" fill="#64645E"/>
<path fill-rule="evenodd" clip-rule="evenodd" d="M1169.14 357L1163 353.051L1164.86 349L1171 352.954L1169.14 357Z" fill="#64645E"/>
<path fill-rule="evenodd" clip-rule="evenodd" d="M1160.14 352L1154 348.051L1155.86 344L1162 347.949L1160.14 352Z" fill="#64645E"/>
<path fill-rule="evenodd" clip-rule="evenodd" d="M1168.14 350L1162 346.051L1163.86 342L1170 345.949L1168.14 350Z" fill="#64645E"/>
<path fill-rule="evenodd" clip-rule="evenodd" d="M861 67H872V59H861V67Z" fill="#64645E"/>
</g>
</svg>
