<svg width="33" height="33" viewBox="0 0 33 33" fill="none" xmlns="http://www.w3.org/2000/svg">
<path d="M28.8376 21.9811C27.272 23.2517 25.5483 24.3048 23.6789 25.0467L27.0776 30.9335L30.4494 32.3735C31.0625 32.6353 31.755 32.2353 31.835 31.5735L32.2738 27.9329L28.8376 21.9811ZM31.4932 16.0712C31.7969 15.5918 31.6113 14.9469 31.115 14.6719L29.3607 13.6987C28.8932 13.4394 28.3226 13.6075 28.032 14.0562C25.4626 18.0268 21.0402 20.4549 16.2747 20.4549C14.7791 20.4549 13.3228 20.1893 11.9366 19.7343L16.1465 12.4419C16.1903 12.4431 16.2303 12.455 16.274 12.455C16.3178 12.455 16.3584 12.4431 16.4015 12.4419L19.5946 17.9731C21.5464 17.4131 23.317 16.3637 24.7576 14.9156L21.5208 9.30881C21.9864 8.45695 22.2746 7.49447 22.2746 6.45511C22.2746 3.14141 19.5884 0.4552 16.2747 0.4552C12.961 0.4552 10.2747 3.14141 10.2747 6.45511C10.2747 7.49447 10.5629 8.45695 11.0279 9.30881L6.75918 16.7031C5.97481 15.9775 5.2617 15.1662 4.65421 14.2656C4.35484 13.8219 3.7811 13.6644 3.31798 13.9325L1.58363 14.9369C1.09301 15.2206 0.919267 15.8681 1.23114 16.3412C2.20425 17.8187 3.39923 19.1043 4.72983 20.2174L0.274902 27.9335L0.713646 31.5741C0.793644 32.236 1.48613 32.636 2.09925 32.3741L5.47107 30.9341L9.896 23.2698C11.9078 24.0348 14.0634 24.4548 16.2747 24.4548C22.4652 24.4548 28.2045 21.2668 31.4932 16.0712ZM16.2747 4.45514C17.379 4.45514 18.2746 5.35075 18.2746 6.45511C18.2746 7.55946 17.379 8.45508 16.2747 8.45508C15.1703 8.45508 14.2747 7.55946 14.2747 6.45511C14.2747 5.35075 15.1703 4.45514 16.2747 4.45514Z" fill="#0073AA"/>
</svg>
