<svg width="32" height="25" viewBox="0 0 32 25" fill="none" xmlns="http://www.w3.org/2000/svg">
<path d="M31.3937 7.92885C31.6375 7.7351 32 7.91635 32 8.2226V21.0038C32 22.6601 30.6562 24.0038 29 24.0038H3C1.34375 24.0038 0 22.6601 0 21.0038V8.22885C0 7.91635 0.35625 7.74134 0.60625 7.93509C2.00625 9.02259 3.8625 10.4038 10.2375 15.0351C11.5563 15.9976 13.7812 18.0226 16 18.0101C18.2313 18.0288 20.5 15.9601 21.7687 15.0351C28.1437 10.4038 29.9937 9.01635 31.3937 7.92885ZM16 16.0038C17.45 16.0288 19.5375 14.1788 20.5875 13.4163C28.8812 7.3976 29.5125 6.87259 31.425 5.37259C31.7875 5.09134 32 4.65385 32 4.19135V3.00385C32 1.3476 30.6562 0.00384521 29 0.00384521H3C1.34375 0.00384521 0 1.3476 0 3.00385V4.19135C0 4.65385 0.2125 5.08509 0.575 5.37259C2.4875 6.86634 3.11875 7.3976 11.4125 13.4163C12.4625 14.1788 14.55 16.0288 16 16.0038Z" fill="#0073AA"/>
</svg>
