<svg width="33" height="22" viewBox="0 0 33 22" fill="none" xmlns="http://www.w3.org/2000/svg">
<path d="M30.9406 0.625549H5.16281C4.42643 0.625549 3.82948 1.22249 3.82948 1.95888V2.40333H1.60726C0.87087 2.40333 0.273926 3.00027 0.273926 3.73666V18.8478C0.273926 20.566 1.66681 21.9589 3.38504 21.9589H29.6073C31.08 21.9589 32.2739 20.765 32.2739 19.2922V1.95888C32.2739 1.22249 31.677 0.625549 30.9406 0.625549ZM3.38504 19.2922C3.26716 19.2922 3.15412 19.2454 3.07077 19.162C2.98742 19.0787 2.94059 18.9656 2.94059 18.8478V5.06999H3.82948V18.8478C3.82948 18.9656 3.78266 19.0787 3.69931 19.162C3.61596 19.2454 3.50291 19.2922 3.38504 19.2922ZM16.4961 18.4033H8.0517C7.68354 18.4033 7.38504 18.1048 7.38504 17.7367V17.2922C7.38504 16.924 7.68354 16.6255 8.0517 16.6255H16.4961C16.8643 16.6255 17.1628 16.924 17.1628 17.2922V17.7367C17.1628 18.1048 16.8643 18.4033 16.4961 18.4033ZM28.0517 18.4033H19.6073C19.2391 18.4033 18.9406 18.1048 18.9406 17.7367V17.2922C18.9406 16.924 19.2391 16.6255 19.6073 16.6255H28.0517C28.4199 16.6255 28.7184 16.924 28.7184 17.2922V17.7367C28.7184 18.1048 28.4199 18.4033 28.0517 18.4033ZM16.4961 13.07H8.0517C7.68354 13.07 7.38504 12.7715 7.38504 12.4033V11.9589C7.38504 11.5907 7.68354 11.2922 8.0517 11.2922H16.4961C16.8643 11.2922 17.1628 11.5907 17.1628 11.9589V12.4033C17.1628 12.7715 16.8643 13.07 16.4961 13.07ZM28.0517 13.07H19.6073C19.2391 13.07 18.9406 12.7715 18.9406 12.4033V11.9589C18.9406 11.5907 19.2391 11.2922 19.6073 11.2922H28.0517C28.4199 11.2922 28.7184 11.5907 28.7184 11.9589V12.4033C28.7184 12.7715 28.4199 13.07 28.0517 13.07ZM28.0517 7.73666H8.0517C7.68354 7.73666 7.38504 7.43816 7.38504 7.06999V4.84777C7.38504 4.4796 7.68354 4.1811 8.0517 4.1811H28.0517C28.4199 4.1811 28.7184 4.4796 28.7184 4.84777V7.06999C28.7184 7.43816 28.4199 7.73666 28.0517 7.73666Z" fill="#0073AA"/>
</svg>
