<svg width="32" height="25" viewBox="0 0 32 25" fill="none" xmlns="http://www.w3.org/2000/svg">
<path d="M4.20522 24.8888C3.72013 24.8888 3.24422 24.7565 2.8287 24.5062C2.41318 24.2558 2.07378 23.897 1.847 23.4682C0.667944 21.2388 0 18.6974 0 15.9999C0 7.16332 7.16344 -0.00012207 16 -0.00012207C24.8366 -0.00012207 32 7.16332 32 15.9999C32 18.6974 31.3321 21.2388 30.153 23.4682C29.9262 23.897 29.5868 24.2559 29.1713 24.5062C28.7558 24.7565 28.2799 24.8888 27.7948 24.8888H4.20522ZM28.4444 14.2221C27.4626 14.2221 26.6667 15.018 26.6667 15.9999C26.6667 16.9817 27.4626 17.7777 28.4444 17.7777C29.4263 17.7777 30.2222 16.9817 30.2222 15.9999C30.2222 15.018 29.4263 14.2221 28.4444 14.2221ZM16 5.33321C16.9818 5.33321 17.7778 4.53727 17.7778 3.55543C17.7778 2.5736 16.9818 1.77766 16 1.77766C15.0182 1.77766 14.2222 2.5736 14.2222 3.55543C14.2222 4.53727 15.0182 5.33321 16 5.33321ZM3.55556 14.2221C2.57372 14.2221 1.77778 15.018 1.77778 15.9999C1.77778 16.9817 2.57372 17.7777 3.55556 17.7777C4.53739 17.7777 5.33333 16.9817 5.33333 15.9999C5.33333 15.018 4.53739 14.2221 3.55556 14.2221ZM7.20044 5.42254C6.21861 5.42254 5.42267 6.21849 5.42267 7.20032C5.42267 8.18216 6.21861 8.9781 7.20044 8.9781C8.18228 8.9781 8.97822 8.18216 8.97822 7.20032C8.97822 6.21849 8.18228 5.42254 7.20044 5.42254ZM24.7996 5.42254C23.8177 5.42254 23.0218 6.21849 23.0218 7.20032C23.0218 8.18216 23.8177 8.9781 24.7996 8.9781C25.7814 8.9781 26.5773 8.18216 26.5773 7.20032C26.5773 6.21849 25.7814 5.42254 24.7996 5.42254ZM19.9619 7.17443C19.2604 6.94999 18.5101 7.33666 18.2856 8.03799L15.7343 16.0108C13.8949 16.1468 12.4444 17.6812 12.4444 19.5554C12.4444 21.5191 14.0363 23.111 16 23.111C17.9637 23.111 19.5556 21.5191 19.5556 19.5554C19.5556 18.4569 19.0572 17.475 18.2744 16.8228L20.8254 8.85071C21.0498 8.14932 20.6632 7.39888 19.9619 7.17443Z" fill="#0073AA"/>
</svg>
