<?xml version="1.0" standalone="no"?>
<!DOCTYPE svg PUBLIC "-//W3C//DTD SVG 1.1//EN" "http://www.w3.org/Graphics/SVG/1.1/DTD/svg11.dtd" >
<svg xmlns="http://www.w3.org/2000/svg">
<defs>
  <font id="dashicons" horiz-adv-x="128">
    <font-face font-family="dashicons"
      units-per-em="128" ascent="128"
      descent="0" />
    <missing-glyph horiz-adv-x="0" />
    <glyph glyph-name="admin-appearance"
      unicode="&#xEA01;"
      horiz-adv-x="128" d="M90.1769705125443 57.216L44.9289705125443 102.464L54.5289705125443 112.064C57.7289705125443 115.648 69.2489705125443 115.072 76.9929705125443 110.016C84.7369705125443 104.896 86.1449705125443 101.824 95.6169705125443 96.576C103.1689705125443 92.48 111.2969705125443 88.512 124.0969705125443 91.136zM85.6329705125443 52.672L40.3849705125443 97.92L29.0569705125443 86.592C26.5609705125443 84.096 26.5609705125443 80.064 29.0569705125443 77.568L35.8409705125443 70.784C38.3369705125443 68.288 38.3369705125443 64.192 35.8409705125443 61.696C32.0009705125443 57.856 26.6889705125443 54.592 21.6969705125443 50.88C19.4569705125443 49.216 17.2169705125443 47.488 15.2329705125443 45.504C6.6569705125443 36.928 0.0649705125443 25.088 6.4649705125443 18.752C12.8009705125443 12.352 24.6409705125443 18.944 33.2169705125443 27.456C35.2009705125443 29.44 36.9289705125443 31.68 38.6569705125443 33.984C42.3049705125443 38.976 45.5689705125443 44.288 49.4729705125443 48.128C51.9689705125443 50.624 56.0009705125443 50.624 58.4969705125443 48.128L65.2809705125443 41.344C67.7769705125443 38.848 71.8089705125443 38.848 74.3049705125443 41.344z" />
    <glyph glyph-name="admin-collapse"
      unicode="&#xEA02;"
      horiz-adv-x="128" d="M64 114.176C91.712 114.176 114.176 91.712 114.176 64S91.712 13.824 64 13.824S13.824 36.288 13.824 64S36.544 114.176 64 114.176zM76.8 39.168V88.832L39.552 64.192z" />
    <glyph glyph-name="admin-comments"
      unicode="&#xEA03;"
      horiz-adv-x="128" d="M35.2 115.2H92.8C99.84 115.2 105.6 109.44 105.6 102.4V57.6C105.6 50.56 99.84 44.8 92.8 44.8H80L48 12.8V44.8H35.2C28.16 44.8 22.4 50.56 22.4 57.6V102.4C22.4 109.44 28.16 115.2 35.2 115.2z" />
    <glyph glyph-name="admin-customizer"
      unicode="&#xEA04;"
      horiz-adv-x="128" d="M117.9751530612245 105.152S119.7031530612245 110.272 115.9911530612245 113.856C112.5991530612245 117.184 108.1831530612245 115.392 108.1831530612245 115.392C104.2791530612245 113.472 71.3191530612245 93.184 59.0951530612245 79.744C53.5911530612245 73.6 45.9111530612245 55.488 52.1191530612245 48.896C58.0071530612245 42.624 77.4631530612245 49.984 82.7751530612245 55.296C95.9591530612245 68.48 116.1191530612245 101.184 117.9751530612245 105.152zM9.6231530612245 15.04C24.7911530612245 25.024 18.9671530612245 36.864 30.2951530612245 44.736C36.2471530612245 48.896 44.5031530612245 48.704 50.0071530612245 42.88C54.0391530612245 38.592 55.1271530612245 26.432 48.9831530612245 20.736C38.9351530612245 11.456 23.3831530612245 10.816 9.6231530612245 15.04z" />
    <glyph glyph-name="admin-generic"
      unicode="&#xEA05;"
      horiz-adv-x="128" d="M118.4 51.2H104.448C103.36 46.72 101.632 42.56 99.264 38.848L109.12 28.992L95.68 15.552L85.824 25.408C82.112 23.104 77.952 21.376 73.6 20.352V6.4H54.4V20.352C50.048 21.376 45.888 23.104 42.176 25.408L32.32 15.552L18.752 29.12L28.608 38.976C26.304 42.688 24.576 46.848 23.552 51.2H9.6V70.208H23.488C24.512 74.688 26.304 78.848 28.608 82.624L18.752 92.48L32.192 105.92L42.048 96.064C45.76 98.432 49.984 100.16 54.4 101.248V115.2H73.6V101.248C77.952 100.224 82.112 98.496 85.824 96.192L95.68 106.048L109.248 92.48L99.392 82.624C101.696 78.848 103.488 74.688 104.512 70.208H118.4V51.2zM64 41.6C74.624 41.6 83.2 50.176 83.2 60.8S74.624 80 64 80S44.8 71.424 44.8 60.8S53.376 41.6 64 41.6z" />
    <glyph glyph-name="admin-home"
      unicode="&#xEA06;"
      horiz-adv-x="128" d="M102.4 73.6L112.192 63.808L105.408 57.024L64 98.432L22.592 57.024L15.808 63.808L64 112L89.6 86.4V99.2H102.4V73.6zM64 89.344L102.4 51.008V12.8H25.6V51.008zM76.8 19.2V51.2H51.2V19.2H76.8z" />
    <glyph glyph-name="admin-links"
      unicode="&#xEA07;"
      horiz-adv-x="128" d="M110.336 110.336C121.088 99.52 121.088 82.112 110.336 71.296L100.544 61.568C93.376 54.4 83.264 52.16 74.048 54.592L90.816 71.296L95.68 76.224L100.544 81.088C105.92 86.464 105.92 95.168 100.544 100.544C95.168 105.984 86.464 105.984 81.088 100.544L76.16 95.68L54.528 74.048C52.16 83.264 54.4 93.376 61.568 100.544L71.296 110.336C82.112 121.088 99.584 121.088 110.336 110.336zM51.776 42.048L85.952 76.224C88.64 78.912 88.64 83.264 85.952 85.952C83.136 88.704 78.72 88.448 76.16 85.952L42.048 51.776C39.36 49.088 39.36 44.736 42.048 42.048C44.864 39.296 49.28 39.552 51.776 42.048zM46.912 27.392L73.408 53.952C75.84 44.736 73.6 34.624 66.432 27.456L56.704 17.664C45.888 6.912 28.48 6.912 17.664 17.664C6.912 28.416 6.912 45.952 17.664 56.704L27.456 66.432C34.624 73.6 44.736 75.84 53.952 73.472L27.456 46.912C22.016 41.536 22.016 32.832 27.456 27.392C32.832 22.016 41.536 22.016 46.912 27.392z" />
    <glyph glyph-name="admin-media"
      unicode="&#xEA08;"
      horiz-adv-x="128" d="M83.2 57.6V102.4C83.2 105.92 80.32 108.8 76.8 108.8H66.112L57.6 121.6H32L23.488 108.8H12.8C9.28 108.8 6.4 105.92 6.4 102.4V57.6C6.4 54.08 9.28 51.2 12.8 51.2H76.8C80.32 51.2 83.2 54.08 83.2 57.6zM44.8 99.2C53.632 99.2 60.8 92.032 60.8 83.2S53.632 67.2 44.8 67.2S28.8 74.368 28.8 83.2S35.968 99.2 44.8 99.2zM89.6 89.6H121.6V22.4C121.6 13.568 114.432 6.4 105.6 6.4S89.6 13.568 89.6 22.4S96.768 38.4 105.6 38.4C106.688 38.4 107.776 38.272 108.8 38.08V70.4H89.6V89.6zM64 38.08V44.8H76.8V22.4C76.8 13.568 69.632 6.4 60.8 6.4S44.8 13.568 44.8 22.4S51.968 38.4 60.8 38.4C61.888 38.4 62.976 38.272 64 38.08z" />
    <glyph glyph-name="admin-multisite"
      unicode="&#xEA09;"
      horiz-adv-x="128" d="M91.328 84.032L64 107.904L36.672 84.032L32 88.704L64 116.736L96 88.704zM89.6 74.112L63.68 52.16L38.4 74.368V79.104L64 101.504L89.6 79.104V74.112zM70.4 65.92V76.8H57.6V65.92H70.4zM59.328 40.128L32 64L4.672 40.128L0 44.8L32 72.832L64 44.8zM123.328 40.128L96 64L68.672 40.128L64 44.8L96 72.832L128 44.8zM32 57.6L57.6 35.2V12.8H6.4V35.2zM96 57.6L121.6 35.2V12.8H70.4V35.2zM38.4 19.2V32H25.6V19.2H38.4zM102.4 19.2V32H89.6V19.2H102.4z" />
    <glyph glyph-name="admin-network"
      unicode="&#xEA0A;"
      horiz-adv-x="128" d="M110.336 111.488C122.88 99.008 122.88 78.72 110.336 66.24C100.672 56.576 86.336 54.464 74.56 59.776L62.592 38.592L43.456 36.608L33.856 12.8H14.656L8.256 25.6L59.136 74.816C53.248 86.784 55.168 101.568 65.088 111.488C77.568 124.032 97.856 124.032 110.336 111.488zM94.272 87.232C99.008 87.232 102.784 91.072 102.784 95.808C102.784 100.48 99.008 104.32 94.272 104.32C89.6 104.32 85.76 100.48 85.76 95.808C85.76 91.072 89.6 87.232 94.272 87.232z" />
    <glyph glyph-name="admin-page"
      unicode="&#xEA0B;"
      horiz-adv-x="128" d="M41.6 32V115.2H105.6V32H41.6zM35.2 25.6H86.4V12.8H22.4V96H35.2V25.6z" />
    <glyph glyph-name="admin-plugins"
      unicode="&#xEA0C;"
      horiz-adv-x="128" d="M83.9029154375748 100.096L63.1669154375748 79.36L51.1989154375748 91.328L71.9349154375748 112.064C74.1749154375748 114.24 78.6549154375748 113.344 81.9189154375748 110.016C85.2469154375748 106.752 86.1429154375748 102.272 83.9029154375748 100.096zM32.7029154375748 88.768L38.5269154375748 95.936L96.1909154375748 38.272L88.5749154375748 32.896C84.0309154375748 28.352 71.7429154375748 25.472 64.1269154375748 25.472H39.2949154375748L31.3589154375748 17.536C27.5829154375748 13.76 21.5029154375748 13.76 17.7909154375748 17.536C14.0149154375748 21.248 14.0149154375748 27.328 17.7909154375748 31.104L25.7269154375748 39.04V63.872C25.7269154375748 71.104 28.2869154375748 84.288 32.7029154375748 88.768zM79.1669154375748 63.36L99.9029154375748 84.096C102.0789154375748 86.336 106.5589154375748 85.44 109.8229154375748 82.112C113.1509154375748 78.848 114.0469154375748 74.368 111.8069154375748 72.192L91.0709154375748 51.392z" />
    <glyph glyph-name="admin-post"
      unicode="&#xEA0D;"
      horiz-adv-x="128" d="M66.7884473186843 108.672L78.4364473186843 120.32L119.1404473186843 79.68L107.4284473186843 68.032C100.7084473186843 72.384 91.5564473186843 71.68 85.6044473186843 65.728L80.8044473186843 60.928C74.9164473186843 54.976 74.1484473186843 45.888 78.5644473186843 39.104L66.8524473186843 27.456L51.4284473186843 42.88L33.5084473186843 25.024C30.8204473186843 22.336 11.8764473186843 7.68 9.1884473186843 10.368S21.0924473186843 32.064 23.7804473186843 34.752L41.6364473186843 52.608L26.2124473186843 68.096L37.9244473186843 79.744C44.6444473186843 75.328 53.7964473186843 76.096 59.6844473186843 82.048L64.4844473186843 86.848C70.4364473186843 92.736 71.2044473186843 101.888 66.7884473186843 108.672z" />
    <glyph glyph-name="admin-settings"
      unicode="&#xEA0E;"
      horiz-adv-x="128" d="M112 25.6V102.4C112 105.92 109.12 108.8 105.6 108.8H22.4C18.88 108.8 16 105.92 16 102.4V25.6C16 22.08 18.88 19.2 22.4 19.2H105.6C109.12 19.2 112 22.08 112 25.6zM48 57.6H54.4C57.92 57.6 60.8 54.72 60.8 51.2S57.92 44.8 54.4 44.8H48V35.2C48 33.408 46.592 32 44.8 32S41.6 33.408 41.6 35.2V44.8H35.2C31.68 44.8 28.8 47.68 28.8 51.2S31.68 57.6 35.2 57.6H41.6V92.8C41.6 94.592 43.008 96 44.8 96S48 94.592 48 92.8V57.6zM80 70.4H73.6C70.08 70.4 67.2 73.28 67.2 76.8S70.08 83.2 73.6 83.2H80V92.8C80 94.592 81.408 96 83.2 96S86.4 94.592 86.4 92.8V83.2H92.8C96.32 83.2 99.2 80.32 99.2 76.8S96.32 70.4 92.8 70.4H86.4V35.2C86.4 33.408 84.992 32 83.2 32S80 33.408 80 35.2V70.4z" />
    <glyph glyph-name="admin-site"
      unicode="&#xEA0F;"
      horiz-adv-x="128" d="M64 128C32.192 128 6.4 102.208 6.4 70.4S32.192 12.8 64 12.8S121.6 38.592 121.6 70.4S95.808 128 64 128zM86.144 51.52C86.144 42.112 81.024 30.4 60.16 21.44C62.08 48.128 44.032 45.056 39.68 53.44C40.4864 60.48 44.8256 66.6432 51.2 69.76C41.2672 71.4624 32 75.904 24.448 82.56C24.768 79.552 26.24 76.7744 28.544 74.816C23.5392 76.704 19.2128 80.0448 16.128 84.416C22.3808 105.056 40.9792 119.5008 62.528 120.448C57.152 111.616 52.928 94.016 62.528 84.8C52.672 83.2 46.464 96 41.024 90.944C33.792 84.16 43.136 74.88 62.912 71.232C83.968 67.456 86.336 61.12 86.144 51.52zM94.72 77.12C92.672 84.224 98.688 91.392 105.536 97.216C114.2144 84.704 116.224 68.736 110.912 54.464C105.984 66.56 97.024 69.312 94.72 77.312V77.12z" />
    <glyph glyph-name="admin-site-alt"
      unicode="&#xEA10;"
      horiz-adv-x="128" d="M64 128C32.192 128 6.4 102.208 6.4 70.4S32.192 12.8 64 12.8S121.6 38.592 121.6 70.4S95.808 128 64 128zM112 86.528C110.2464 80.7936 106.1888 76.032 100.8 73.408C97.92 84.224 90.1888 93.0816 79.872 97.408C80.704 100.2496 82.496 102.72 84.928 104.384C82.176 106.176 78.528 107.072 76.352 103.936C72.96 99.52 76.352 93.632 77.696 91.136V90.24C74.144 92.3968 71.36 95.616 69.76 99.456C63.5776 99.648 57.4592 98.1248 52.096 95.04C51.5392 98.656 51.8912 102.3488 53.12 105.792C57.8112 105.344 62.4192 107.264 65.408 110.912C68.352 114.24 64.576 118.464 61.632 121.024H63.936C72.64 121.088 81.2288 118.88 88.832 114.624C97.536 108.192 102.8736 98.176 103.36 87.36C104.896 87.36 107.84 90.88 109.184 93.248C110.2848 91.072 111.232 88.832 112 86.528zM64 20.224C50.88 33.536 65.6 44.224 57.6 53.76C51.712 59.2 42.944 55.424 37.696 61.632C35.8912 71.0592 39.4048 80.7168 46.848 86.784C50.176 89.6 72.448 93.184 81.536 85.376C86.848 80.8 90.592 74.6624 92.224 67.84C95.168 67.616 98.0992 68.2624 100.672 69.696C103.296 50.624 80.512 26.56 64 20.224zM39.36 114.624C44.3904 116.544 50.0864 114.8032 53.184 110.4C50.496 107.968 47.168 106.368 43.584 105.792C43.712 107.6736 44.128 109.5296 44.8 111.296L39.36 114.624z" />
    <glyph glyph-name="admin-site-alt2"
      unicode="&#xEA11;"
      horiz-adv-x="128" d="M64 128C32.192 128 6.4 102.208 6.4 70.4S32.192 12.8 64 12.8S121.6 38.592 121.6 70.4S95.808 128 64 128zM82.688 49.024C82.688 46.784 83.584 44.992 84.992 44.8C86.4 44.608 88 46.208 88.704 48.64L89.984 48.128C94.5792 45.6704 96.832 40.32 95.36 35.328C94.4 30.912 90.6048 27.6608 86.08 27.392C82.944 35.136 72.576 27.008 63.296 28.8C59.3792 29.7856 56.192 32.64 54.784 36.416C62.4 37.12 73.024 47.488 82.688 49.024zM57.6 55.872C63.4752 55.872 68.448 60.224 69.248 66.048C72.064 62.592 71.872 57.5744 68.8 54.336C67.168 52.9088 64.9984 52.256 62.848 52.544C60.704 52.8448 58.784 54.0544 57.6 55.872zM76.8 60.736C79.424 58.24 96 61.12 99.328 53.76C93.248 55.04 80.448 49.856 77.12 60.672L76.8 60.736zM68.672 93.12V91.392C64.512 96.32 60.16 98.24 58.368 95.04C56.576 91.84 64.768 87.936 63.232 83.008C61.696 78.08 55.104 79.424 51.2 72.704C47.296 65.984 48.064 57.216 59.136 49.216C51.5072 50.0608 45.12 55.3728 42.88 62.72C40.32 70.4 42.304 77.184 37.888 78.464C32 80.256 25.6 72.256 25.6 65.28C17.536 73.344 25.92 83.584 17.92 92.032C28.8 115.2128 55.3216 126.5728 79.616 118.464C72.576 111.936 68.5952 102.7328 68.672 93.12z" />
    <glyph glyph-name="admin-site-alt3"
      unicode="&#xEA12;"
      horiz-adv-x="128" d="M64 128C32.192 128 6.4 102.208 6.4 70.4S32.192 12.8 64 12.8S121.6 38.592 121.6 70.4S95.808 128 64 128zM13.504 66.048H29.568C29.824 60.224 30.6368 54.4384 32 48.768H18.176C15.5968 54.208 14.016 60.0576 13.504 66.048zM68.352 100.608V120.384C74.5216 118.0416 79.5904 113.472 82.56 107.584C83.872 105.3632 85.0304 103.0528 86.016 100.672L68.352 100.608zM88.96 91.968C90.4448 86.3168 91.328 80.5248 91.584 74.688H68.352V91.968H88.96zM59.648 120.384V100.608H41.984C42.9696 102.9888 44.128 105.2992 45.44 107.52C48.3968 113.4336 53.472 118.016 59.648 120.384zM59.648 91.968V74.688H36.48C36.736 80.5248 37.6192 86.3168 39.104 91.968H59.648zM29.568 74.752H13.504C14.016 80.7424 15.5968 86.592 18.176 92.032H32C30.6368 86.3616 29.824 80.576 29.568 74.752zM36.48 66.048H59.648V48.768H39.104C37.6192 54.4192 36.736 60.2112 36.48 66.048zM59.712 40.448V20.672C53.5424 23.0144 48.4736 27.584 45.504 33.472C44.192 35.6928 43.0336 38.0032 42.048 40.384L59.712 40.448zM68.352 20.672V40.128H86.016C85.0304 37.7472 83.872 35.4368 82.56 33.216C79.5904 27.328 74.5216 22.7584 68.352 20.416V20.672zM68.352 49.088V66.368H91.52C91.264 60.5312 90.3808 54.7392 88.896 49.088H68.352zM98.496 66.368H114.56C114.048 60.3776 112.4672 54.528 109.888 49.088H96C97.344 54.656 98.1568 60.3328 98.432 66.048L98.496 66.368zM98.496 75.008C98.2016 80.7296 97.3696 86.4 96 91.968H109.824C112.4032 86.528 113.984 80.6784 114.496 74.688L98.496 75.008zM104.896 100.608H93.44C91.3664 106.432 88.3648 111.872 84.544 116.736C92.5056 113.152 99.424 107.6096 104.64 100.608H104.896zM43.456 116.736C39.6352 111.872 36.6336 106.432 34.56 100.608H23.36C28.576 107.6096 35.4944 113.152 43.456 116.736zM23.296 39.936H34.56C36.6336 34.112 39.6352 28.672 43.456 23.808C35.4688 27.4368 28.544 33.056 23.36 40.128L23.296 39.936zM84.48 23.808C88.3008 28.672 91.3024 34.112 93.376 39.936H104.64C99.392 33.024 92.48 27.5648 84.544 24.064L84.48 23.808z" />
    <glyph glyph-name="admin-tools"
      unicode="&#xEA13;"
      horiz-adv-x="128" d="M106.7645106771595 65.472C98.1885106771595 56.896 85.6445106771595 54.784 75.0845106771595 59.136L40.4605106771595 17.408C34.1245106771595 11.072 23.8845106771595 11.072 17.5485106771595 17.408S11.2125106771595 33.984 17.5485106771595 40.256L59.2765106771595 74.944C54.9245106771595 85.504 57.0365106771595 98.048 65.6125106771595 106.624C73.8045106771595 114.816 85.5805106771595 116.992 95.8205106771595 113.408L77.3245106771595 94.912L95.3725106771595 76.864L113.6765106771595 95.232C117.0685106771595 85.12 114.8285106771595 73.536 106.7645106771595 65.472zM24.3965106771595 24.256C26.9565106771595 21.76 31.0525106771595 21.76 33.5485106771595 24.256C36.1085106771595 26.816 36.1085106771595 30.912 33.5485106771595 33.408C31.0525106771595 35.968 26.9565106771595 35.968 24.3965106771595 33.408C21.9005106771595 30.912 21.9005106771595 26.816 24.3965106771595 24.256z" />
    <glyph glyph-name="admin-users"
      unicode="&#xEA14;"
      horiz-adv-x="128" d="M64 68.8C49.472 68.8 46.528 90.816 46.528 90.816C44.8 102.272 50.048 115.2 63.808 115.2C77.632 115.2 82.88 102.272 81.152 90.816C81.152 90.816 78.528 68.8 64 68.8zM64 52.352L81.408 64C96.704 64 110.336 49.088 110.336 35.008V19.072S86.976 11.84 64 11.84C40.64 11.84 17.664 19.072 17.664 19.072V35.008C17.664 49.408 30.08 63.68 46.272 63.68z" />
    <glyph glyph-name="airplane"
      unicode="&#xEA15;"
      horiz-adv-x="128" d="M112.6861299044814 112.64C107.5661299044814 117.76 99.2461299044814 113.28 95.4061299044814 109.44L73.0061299044814 85.12L57.6461299044814 91.52L61.4861299044814 95.36C62.7661299044814 96.64 62.7661299044814 98.56 61.4861299044814 99.84C60.8461299044814 101.12 58.9261299044814 100.48 57.6461299044814 99.84L51.8861299044814 94.08L40.3661299044814 99.2L43.5661299044814 102.4C44.8461299044814 103.68 44.8461299044814 105.6 43.5661299044814 106.24C42.2861299044814 107.52 40.3661299044814 107.52 39.0861299044814 106.24L33.9661299044814 101.12L30.7661299044814 102.4C25.6461299044814 104.96 19.8861299044814 104.32 16.0461299044814 99.84L53.1661299044814 62.72L38.4461299044814 47.36L16.0461299044814 48.64L12.8461299044814 44.16L32.6861299044814 32.64L44.2061299044814 12.8L48.6861299044814 16L47.4061299044814 38.4L63.4061299044814 53.12L100.5261299044814 16C104.3661299044814 19.84 105.6461299044814 26.24 103.0861299044814 30.72L101.8061299044814 33.92L106.9261299044814 39.04C108.2061299044814 40.32 108.2061299044814 42.24 106.9261299044814 43.52C105.6461299044814 44.8 103.7261299044814 44.8 102.4461299044814 43.52L99.2461299044814 40.32L94.1261299044814 52.48L99.8861299044814 58.24C101.1661299044814 59.52 101.1661299044814 61.44 99.8861299044814 62.72C98.6061299044814 64 96.6861299044814 64 96.0461299044814 62.72L92.2061299044814 58.88L85.8061299044814 74.24L110.1261299044814 96C113.9661299044814 99.2 117.8061299044814 108.16 112.6861299044814 112.64z" />
    <glyph glyph-name="album"
      unicode="&#xEA16;"
      horiz-adv-x="128" d="M-0.0022167142414 12.8H63.9977832857586V14.464C73.7257832857586 11.904 84.2857832857587 12.224 94.4617832857586 16C120.9577832857586 25.728 134.5897832857587 55.168 124.8617832857586 81.664C115.7097832857586 106.56 89.1497832857586 120.064 63.9977832857586 113.536V115.2H-0.0022167142414V12.8zM57.5977832857587 108.8V19.2H6.3977832857586V108.8H57.5977832857587zM92.4777832857587 56.192C88.1257832857586 47.552 77.6297832857587 44.032 68.9897832857587 48.32C67.0057832857586 49.28 65.3417832857586 50.56 63.9977832857586 52.096V75.968C69.1177832857587 81.472 77.5017832857587 83.2 84.6057832857587 79.68C93.2457832857587 75.328 96.7657832857587 64.832 92.4777832857587 56.192zM74.8777832857586 61.44C76.2857832857586 60.416 78.2697832857586 60.672 79.3577832857586 62.08C80.3817832857587 63.488 80.1257832857586 65.472 78.7177832857586 66.56S75.3257832857587 67.328 74.2377832857586 65.92C73.2137832857586 64.576 73.4697832857587 62.528 74.8777832857586 61.44zM94.1417832857587 37.952C86.6537832857587 32.96 77.7577832857586 31.616 69.6297832857586 33.536C67.9017832857586 33.92 66.8137832857587 35.712 67.2617832857586 37.44S69.4377832857586 40.192 71.2297832857586 39.744L72.3177832857586 39.488C78.4617832857586 38.4 84.9897832857587 39.552 90.6217832857586 43.264C93.6297832857587 45.312 96.1257832857586 47.872 97.9177832857587 50.816C98.8777832857586 52.288 100.7977832857586 52.736 102.3337832857586 51.84C103.8057832857586 50.88 104.2537832857586 48.896 103.3577832857586 47.424C101.0537832857586 43.776 97.9817832857586 40.512 94.1417832857587 37.952zM100.8617832857587 27.904C91.3897832857586 21.568 80.3177832857587 19.456 69.8857832857587 21.12C68.0937832857587 21.44 66.8777832857586 23.168 67.2617832857586 24.96C67.5817832857587 26.688 69.3097832857586 27.84 71.1657832857586 27.456L72.5737832857587 27.2C80.9577832857587 26.24 89.7257832857587 28.096 97.3417832857587 33.216C101.8857832857587 36.224 105.4697832857587 40.064 108.2217832857587 44.352C109.1177832857587 45.888 111.1017832857586 46.336 112.5737832857587 45.376C114.1097832857587 44.48 114.5577832857587 42.496 113.5977832857587 40.96C110.4617832857587 35.904 106.1737832857587 31.424 100.8617832857587 27.904z" />
    <glyph glyph-name="align-center"
      unicode="&#xEA17;"
      horiz-adv-x="128" d="M19.2 96H108.8V108.8H19.2V96zM96 44.8V83.2H32V44.8H96zM19.2 19.2H108.8V32H19.2V19.2z" />
    <glyph glyph-name="align-full-width"
      unicode="&#xEA18;"
      horiz-adv-x="128" d="M108.8 44.8V108.8H19.2V44.8H108.8zM32 19.2H96V32H32V19.2z" />
    <glyph glyph-name="align-left"
      unicode="&#xEA19;"
      horiz-adv-x="128" d="M19.2 96H108.8V108.8H19.2V96zM76.8 44.8V83.2H19.2V44.8H76.8zM89.6 70.4H108.8V83.2H89.6V70.4zM89.6 44.8H108.8V57.6H89.6V44.8zM19.2 19.2H108.8V32H19.2V19.2z" />
    <glyph glyph-name="align-none"
      unicode="&#xEA1A;"
      horiz-adv-x="128" d="M19.2 96H108.8V108.8H19.2V96zM83.2 44.8V83.2H19.2V44.8H83.2zM19.2 19.2H108.8V32H19.2V19.2z" />
    <glyph glyph-name="align-pull-left"
      unicode="&#xEA1B;"
      horiz-adv-x="128" d="M57.6 25.6V102.4H19.2V25.6H57.6zM70.4 70.4H108.8V83.2H70.4V70.4zM70.4 44.8H108.8V57.6H70.4V44.8z" />
    <glyph glyph-name="align-pull-right"
      unicode="&#xEA1C;"
      horiz-adv-x="128" d="M108.8 25.6V102.4H70.4V25.6H108.8zM57.6 83.2H19.2V70.4H57.6V83.2zM57.6 57.6H19.2V44.8H57.6V57.6z" />
    <glyph glyph-name="align-right"
      unicode="&#xEA1D;"
      horiz-adv-x="128" d="M19.2 96H108.8V108.8H19.2V96zM19.2 70.4H38.4V83.2H19.2V70.4zM108.8 44.8V83.2H51.2V44.8H108.8zM19.2 44.8H38.4V57.6H19.2V44.8zM19.2 19.2H108.8V32H19.2V19.2z" />
    <glyph glyph-name="align-wide"
      unicode="&#xEA1E;"
      horiz-adv-x="128" d="M32 96H96V108.8H32V96zM108.8 44.8V83.2H19.2V44.8H108.8zM32 19.2H96V32H32V19.2z" />
    <glyph glyph-name="amazon"
      unicode="&#xEA1F;"
      horiz-adv-x="128" d="M103.757212652233 32.64C91.597212652233 27.52 78.157212652233 24.96 64.717212652233 24.96C46.797212652233 24.96 29.517212652233 29.44 14.157212652233 38.4C12.877212652233 39.04 12.237212652233 37.76 12.877212652233 37.12C26.957212652233 24.32 44.877212652233 17.92 63.437212652233 17.92C78.157212652233 17.92 92.877212652233 22.4 105.037212652233 30.72C107.597212652233 31.36 105.677212652233 33.92 103.757212652233 32.64zM115.277212652233 39.04C109.517212652233 41.6 102.477212652233 40.96 97.357212652233 37.12C96.077212652233 36.48 96.717212652233 35.2 97.357212652233 35.84C101.197212652233 36.48 108.877212652233 37.12 110.157212652233 35.2C111.437212652233 33.28 108.877212652233 25.6 106.957212652233 22.4C106.317212652233 21.12 107.597212652233 21.12 108.237212652233 21.76C113.357212652233 26.24 115.917212652233 32.64 115.277212652233 39.04zM57.677212652233 47.36C64.717212652233 46.72 71.757212652233 49.92 76.237212652233 55.68C78.157212652233 53.12 80.077212652233 50.56 82.637212652233 48C83.277212652233 47.36 84.557212652233 47.36 85.197212652233 48C87.117212652233 49.92 91.597212652233 53.76 93.517212652233 55.68C94.157212652233 56.32 94.157212652233 57.6 93.517212652233 58.88C90.957212652233 61.44 89.677212652233 65.28 89.037212652233 69.12V86.4C89.037212652233 93.44 89.677212652233 100.48 83.917212652233 105.6C79.437212652233 109.44 73.037212652233 111.36 67.277212652233 111.36C57.037212652233 110.72 44.877212652233 106.88 42.957212652233 94.08C42.957212652233 92.8 43.597212652233 92.16 44.877212652233 92.16L55.757212652233 90.88C57.037212652233 90.88 57.677212652233 92.16 57.677212652233 92.8C58.317212652233 97.28 62.157212652233 99.84 66.637212652233 99.2C69.197212652233 99.2 71.117212652233 97.92 73.037212652233 96C74.317212652233 93.44 74.957212652233 90.88 74.317212652233 87.68V86.4C67.277212652233 86.4 60.237212652233 85.12 53.197212652233 82.56C45.517212652233 80 40.397212652233 72.96 41.037212652233 64.64V62.08C41.037212652233 53.76 48.717212652233 46.72 57.677212652233 47.36zM73.677212652233 78.08V75.52C74.317212652233 71.68 73.677212652233 67.2 71.757212652233 64C70.477212652233 60.8 67.277212652233 58.88 64.077212652233 58.88C59.597212652233 58.88 57.037212652233 62.08 57.037212652233 67.2C57.037212652233 76.16 65.357212652233 78.08 73.677212652233 78.08z" />
    <glyph glyph-name="analytics"
      unicode="&#xEA20;"
      horiz-adv-x="128" d="M115.2 12.8V115.2H12.8V12.8H115.2zM102.4 96H25.6V102.4H102.4V96zM44.8 83.2V64H64C64 53.376 55.424 44.8 44.8 44.8S25.6 53.376 25.6 64S34.176 83.2 44.8 83.2zM51.2 70.4V83.2C58.24 83.2 64 77.44 64 70.4H51.2zM102.4 76.8H76.8V83.2H102.4V76.8zM102.4 57.6H76.8V70.4H102.4V57.6zM102.4 44.8H76.8V51.2H102.4V44.8zM102.4 25.6H25.6V32H102.4V25.6z" />
    <glyph glyph-name="archive"
      unicode="&#xEA21;"
      horiz-adv-x="128" d="M121.6 102.4V89.6H6.4V102.4H121.6zM12.8 83.2H115.2V19.2H12.8V83.2zM83.2 64V70.4H44.8V64H83.2z" />
    <glyph glyph-name="arrow-down"
      unicode="&#xEA22;"
      horiz-adv-x="128" d="M89.6 76.8L63.808 38.4L38.4 76.8H89.6z" />
    <glyph glyph-name="arrow-down-alt"
      unicode="&#xEA23;"
      horiz-adv-x="128" d="M57.6 115.2H70.4V38.4L96 64L108.8 57.6L64 12.8L19.2 57.6L32 64L57.6 38.4V115.2z" />
    <glyph glyph-name="arrow-down-alt2"
      unicode="&#xEA24;"
      horiz-adv-x="128" d="M32 89.6L64 57.6L96 89.6L108.8 83.2L64 38.4L19.2 83.2z" />
    <glyph glyph-name="arrow-left"
      unicode="&#xEA25;"
      horiz-adv-x="128" d="M83.2 38.4L44.8 64.192L83.2 89.6V38.4z" />
    <glyph glyph-name="arrow-left-alt"
      unicode="&#xEA26;"
      horiz-adv-x="128" d="M115.2 70.4V57.6H38.4L64 32L57.6 19.2L12.8 64L57.6 108.8L64 96L38.4 70.4H115.2z" />
    <glyph glyph-name="arrow-left-alt2"
      unicode="&#xEA27;"
      horiz-adv-x="128" d="M89.6 96L57.6 64L89.6 32L83.2 19.2L38.4 64L83.2 108.8z" />
    <glyph glyph-name="arrow-right"
      unicode="&#xEA28;"
      horiz-adv-x="128" d="M44.8 89.6L83.2 63.808L44.8 38.4V89.6z" />
    <glyph glyph-name="arrow-right-alt"
      unicode="&#xEA29;"
      horiz-adv-x="128" d="M12.8 57.6V70.4H89.6L64 96L70.4 108.8L115.2 64L70.4 19.2L64 32L89.6 57.6H12.8z" />
    <glyph glyph-name="arrow-right-alt2"
      unicode="&#xEA2A;"
      horiz-adv-x="128" d="M38.4 32L70.4 64L38.4 96L44.8 108.8L89.6 64L44.8 19.2z" />
    <glyph glyph-name="arrow-up"
      unicode="&#xEA2B;"
      horiz-adv-x="128" d="M64 83.2L38.4 44.8H89.6" />
    <glyph glyph-name="arrow-up-alt"
      unicode="&#xEA2C;"
      horiz-adv-x="128" d="M70.4 12.8H57.6V89.6L32 64L19.2 70.4L64 115.2L108.8 70.4L96 64L70.4 89.6V12.8z" />
    <glyph glyph-name="arrow-up-alt2"
      unicode="&#xEA2D;"
      horiz-adv-x="128" d="M96 38.4L64 70.4L32 38.4L19.2 44.8L64 89.6L108.8 44.8z" />
    <glyph glyph-name="arrow-up-duplicate"
      unicode="&#xEA2E;"
      horiz-adv-x="128" d="M38.4 44.8L64.192 83.2L89.6 44.8H38.4z" />
    <glyph glyph-name="art"
      unicode="&#xEA2F;"
      horiz-adv-x="128" d="M60.0396265354991 108.416C66.5036265354991 106.24 47.5596265354991 95.552 59.3996265354991 88.384C66.0556265354991 84.352 80.5836265354991 102.592 87.8796265354991 106.688C94.0876265354991 110.144 104.9676265354991 110.848 110.4716265354991 98.816C117.4476265354991 83.584 111.3676265354991 43.968 86.2156265354991 28.032C60.8076265354991 12.032 28.8076265354991 20.16 17.7356265354991 45.056C4.8716265354991 74.048 37.7036265354991 116.032 60.0396265354991 108.416zM67.7836265354991 67.136C72.4556265354991 56.64 97.8636265354991 70.336 92.0396265354991 85.056C88.2636265354991 94.592 63.3676265354991 77.056 67.7836265354991 67.136z" />
    <glyph glyph-name="awards"
      unicode="&#xEA30;"
      horiz-adv-x="128" d="M28.544 94.976L32 80.256L28.544 65.6L41.408 57.664L49.28 44.8L64 48.256L78.72 44.8L86.592 57.664L99.456 65.6L96 80.256L99.456 94.976L86.656 102.912L78.72 115.776L64 112.256L49.344 115.712L41.344 102.912zM64.064 54.4C49.856 54.4 38.4 65.856 38.4 80.064C38.4 94.144 49.856 105.6 64.064 105.6C78.144 105.6 89.6 94.144 89.6 80.064C89.6 65.856 78.144 54.4 64.064 54.4zM63.936 60.8C53.312 60.8 44.8 69.376 44.8 80C44.8 90.56 53.312 99.2 63.936 99.2S83.2 90.56 83.2 80C83.2 69.376 74.56 60.8 63.936 60.8zM88.512 53.76L80.32 39.424L67.008 42.432L83.2 5.12L92.16 19.2H108.16zM39.232 53.312L47.232 38.912L60.864 42.176L44.8 5.12L35.84 19.2H19.84z" />
    <glyph glyph-name="backup"
      unicode="&#xEA31;"
      horiz-adv-x="128" d="M90.240794631365 109.568C115.392794631365 96.704 125.312794631365 65.792 112.448794631365 40.64S68.736794631365 5.568 43.520794631365 18.432C31.552794631365 24.576 23.040794631365 34.816 18.816794631365 46.592L29.312794631365 53.184C32.192794631365 43.136 39.040794631365 34.304 49.024794631365 29.12C68.288794631365 19.264 91.840794631365 26.88 101.696794631365 46.144C111.616794631365 65.408 104.000794631365 88.96 84.736794631365 98.88C65.472794631365 108.736 41.920794631365 101.12 32.064794631365 81.856L44.096794631365 75.648L12.416794631365 55.936L9.920794631365 93.184L21.312794631365 87.36C34.240794631365 112.64 65.280794631365 122.304 90.240794631365 109.568zM62.336794631365 59.456C61.184794631365 60.608 60.480794631365 62.208 60.480794631365 64C60.480794631365 64.448 60.672794631365 64.768 60.736794631365 65.216H60.672794631365L66.880794631365 96L73.088794631365 65.216L92.480794631365 44.8L63.680794631365 58.368L63.808794631365 58.496C63.296794631365 58.752 62.784794631365 59.072 62.336794631365 59.456z" />
    <glyph glyph-name="bank"
      unicode="&#xEA32;"
      horiz-adv-x="128" d="M64 115.2L19.2 89.6V83.2H108.8V89.6L64 115.2zM32 76.8L30.72 32H46.72L44.8 76.8H32zM57.6 76.8L56.32 32H72.32L70.4 76.8H57.6zM83.2 76.8L81.92 32H97.92L96 76.8H83.2zM19.2 12.8H108.8V25.6H19.2V12.8z" />
    <glyph glyph-name="beer"
      unicode="&#xEA33;"
      horiz-adv-x="128" d="M88.32 68.48C83.2 69.12 78.72 71.04 75.52 74.88S69.76 83.2 69.12 87.68C66.56 88.32 64.64 89.6 62.72 91.52C60.16 94.72 58.88 97.92 58.24 101.12L52.48 95.36L47.36 99.84C43.52 104.32 36.48 104.32 32 99.84L16 83.84C11.52 79.36 11.52 72.32 16 67.84L20.48 62.72L16.64 58.88C12.16 54.4 12.16 47.36 16.64 42.88L44.16 15.36C48.64 10.88 55.68 10.88 59.52 15.36L100.48 56.96C97.28 57.6 94.08 58.88 91.52 61.44C90.88 64 89.6 66.56 88.32 68.48zM23.04 79.36L35.84 92.16C37.76 94.08 40.96 94.08 42.24 92.16L45.44 88.96L26.88 69.12L23.04 72.96C21.76 74.88 21.76 77.44 23.04 79.36zM26.88 49.28C24.96 51.2 24.96 53.76 26.88 55.04L54.4 83.2C56.32 85.12 58.88 85.12 60.16 83.2C62.08 81.28 62.08 78.72 60.16 77.44L32.64 49.92C30.72 48 28.16 48 26.88 49.28zM38.4 37.76C36.48 39.68 36.48 42.24 38.4 43.52L65.92 71.04C67.84 72.96 70.4 72.96 71.68 71.04C73.6 69.12 73.6 66.56 71.68 65.28L44.16 37.76C42.88 35.84 40.32 35.84 38.4 37.76zM83.84 53.76L56.32 25.6C54.4 23.68 51.84 23.68 50.56 25.6C48.64 27.52 48.64 30.08 50.56 31.36L78.08 58.88C80 60.8 82.56 60.8 83.84 58.88C85.12 58.24 85.12 55.04 83.84 53.76zM112 81.92C110.72 83.2 108.8 84.48 107.52 84.48C110.08 90.88 108.8 98.56 103.68 103.04C98.56 108.16 91.52 109.44 85.12 106.88C84.48 108.8 83.2 110.72 81.92 112C77.44 116.48 70.4 116.48 66.56 112C62.08 107.52 62.08 100.48 66.56 96C68.48 94.08 71.68 92.8 74.24 92.8C73.6 87.68 75.52 82.56 79.36 78.72C83.2 74.88 88.32 73.6 93.44 73.6C93.44 70.4 94.72 67.84 96.64 65.92C101.12 61.44 108.16 61.44 112 65.92C116.48 70.4 116.48 77.44 112 81.92z" />
    <glyph glyph-name="bell"
      unicode="&#xEA34;"
      horiz-adv-x="128" d="M63.36 12.8C70.4 12.8 76.16 18.56 76.16 25.6H50.56C50.56 18.56 56.32 12.8 63.36 12.8zM88.96 65.28V80C88.96 91.52 81.28 101.76 69.76 104.96C70.4 106.24 70.4 107.52 71.04 108.16C70.4 112 67.2 115.2 63.36 115.2S56.32 112 56.32 108.16C56.32 106.88 56.96 105.6 57.6 104.96C46.08 102.4 38.4 92.16 38.4 80V65.92C37.76 58.24 32.64 51.2 25.6 48V32H102.4V48C94.72 50.56 89.6 57.6 88.96 65.28z" />
    <glyph glyph-name="block-default"
      unicode="&#xEA35;"
      horiz-adv-x="128" d="M96 89.6V102.4H76.8V89.6H51.2V102.4H32V89.6H25.6C21.76 89.6 19.2 87.04 19.2 83.2V32H108.8V83.2C108.8 87.04 106.24 89.6 102.4 89.6H96z" />
    <glyph glyph-name="book"
      unicode="&#xEA36;"
      horiz-adv-x="128" d="M102.4 108.8H115.2V6.4H32C21.376 6.4 12.8 14.976 12.8 25.6V102.4C12.8 113.024 21.376 121.6 32 121.6H89.6V32H32C28.48 32 25.6 29.12 25.6 25.6S28.48 19.2 32 19.2H102.4V108.8z" />
    <glyph glyph-name="book-alt"
      unicode="&#xEA37;"
      horiz-adv-x="128" d="M32 19.2H115.2V6.4H32C21.376 6.4 12.8 14.976 12.8 25.6V102.4C12.8 113.024 21.376 121.6 32 121.6H115.2V32H32C28.48 32 25.6 29.12 25.6 25.6S28.48 19.2 32 19.2zM44.8 41.6V112C44.8 113.792 43.392 115.2 41.6 115.2S38.4 113.792 38.4 112V41.6C38.4 39.808 39.808 38.4 41.6 38.4S44.8 39.808 44.8 41.6z" />
    <glyph glyph-name="buddicons-activity"
      unicode="&#xEA38;"
      horiz-adv-x="128" d="M51.2 121.6V76.8H64V89.6C64 99.328 73.28 108.8 83.2 108.8V103.296C86.72 106.624 91.264 108.8 96 108.8V89.6H102.4C109.44 89.6 115.2 83.84 115.2 76.8S109.44 64 102.4 64H96V25.6C96 22.08 93.12 19.2 89.6 19.2S83.2 22.08 83.2 25.6V39.552C81.216 38.848 79.04 38.4 76.8 38.4V25.6C76.8 22.08 73.92 19.2 70.4 19.2S64 22.08 64 25.6V38.4H51.2V25.6C51.2 22.08 48.32 19.2 44.8 19.2S38.4 22.08 38.4 25.6V38.4C36.16 38.4 33.984 38.848 32 39.552V25.6C32 22.08 29.12 19.2 25.6 19.2S19.2 22.08 19.2 25.6V51.2H12.8V57.6C12.8 68.224 21.376 76.8 32 76.8H44.8V121.6H51.2zM83.2 76.8C86.72 76.8 89.6 79.68 89.6 83.2S86.72 89.6 83.2 89.6S76.8 86.72 76.8 83.2S79.68 76.8 83.2 76.8z" />
    <glyph glyph-name="buddicons-bbpress-logo"
      unicode="&#xEA39;"
      horiz-adv-x="128" d="M28.8 88.32C23.68 81.28 21.12 72.96 21.12 64C21.12 57.6 22.4 51.84 24.96 46.08L31.36 75.52C33.28 86.4 33.92 88.32 28.8 88.32zM54.4 47.36C56.32 55.68 54.4 62.08 47.36 62.08C42.24 62.08 37.12 58.24 35.84 52.48L33.92 41.6C32 35.2 35.84 32 40.32 32C48 32 52.48 39.04 54.4 47.36zM64 115.2C35.84 115.2 12.8 92.16 12.8 64S35.84 12.8 64 12.8S115.2 35.84 115.2 64S92.16 115.2 64 115.2zM64 16C50.56 16 38.4 21.12 30.08 30.08C28.16 32.64 25.6 35.2 23.68 37.76C19.2 45.44 16 54.4 16 64C16 90.24 37.76 112 64 112S112 90.24 112 64S90.24 16 64 16zM88.32 47.36C90.24 55.68 88.32 62.08 81.28 62.08C76.16 62.08 71.04 58.24 69.76 52.48L67.2 41.6C65.92 34.56 69.76 31.36 74.24 31.36C81.28 32 86.4 39.04 88.32 47.36zM64 106.88C51.2 106.88 39.04 101.12 31.36 92.16C35.2 92.8 40.32 93.44 42.88 94.08C44.16 94.08 44.16 93.44 44.16 92.8C44.16 91.52 37.76 62.08 37.76 62.08C40.96 64 45.44 66.56 49.28 66.56C55.04 66.56 58.88 64 61.44 60.8L64.64 76.16C67.2 86.4 67.2 88.32 62.08 88.32C59.52 88.32 59.52 91.52 62.08 92.16C65.92 92.8 73.6 93.44 76.8 94.08C78.08 94.08 78.08 93.44 78.08 92.8L71.68 62.08C74.88 64.64 79.36 66.56 83.84 66.56C94.72 66.56 99.84 58.24 97.28 47.36C95.36 36.48 84.48 28.16 72.96 28.16C64.64 28.16 59.52 32.64 58.24 37.12C53.76 32 47.36 28.8 40.32 28.16C47.36 23.68 55.68 21.12 64 21.12C87.68 21.12 106.88 40.32 106.88 64S87.68 106.88 64 106.88z" />
    <glyph glyph-name="buddicons-buddypress-logo"
      unicode="&#xEA3A;"
      horiz-adv-x="128" d="M64 128C99.328 128 128 99.328 128 64S99.328 0 64 0S0 28.672 0 64S28.672 128 64 128zM64 124.8C30.4 124.8 3.2 97.6 3.2 64S30.4 3.2 64 3.2S124.8 30.4 124.8 64S97.6 124.8 64 124.8zM64 118.4C94.08 118.4 118.4 94.08 118.4 64S94.08 9.6 64 9.6S9.6 33.92 9.6 64S33.92 118.4 64 118.4zM75.52 107.456C71.872 107.456 68.48 106.368 65.6 104.576C75.584 102.208 83.072 93.248 83.072 82.496C83.072 78.08 81.728 73.984 79.552 70.528C87.936 72.384 94.208 79.808 94.208 88.768C94.208 99.072 85.824 107.456 75.52 107.456zM60.288 101.056C49.984 101.056 41.6 92.672 41.6 82.304C41.6 72 49.984 63.616 60.288 63.616C70.656 63.616 79.04 72 79.04 82.304C79.04 92.672 70.656 101.056 60.288 101.056zM87.488 68.992L84.224 65.216C99.2 60.8 99.904 42.112 99.904 42.112H108.096C108.096 72.256 87.488 68.992 87.488 68.992zM74.048 63.872L60.48 50.496L46.912 63.872C19.968 62.464 24.896 32 24.896 32H95.808C98.816 63.872 74.048 63.872 74.048 63.872z" />
    <glyph glyph-name="buddicons-community"
      unicode="&#xEA3B;"
      horiz-adv-x="128" d="M57.6 108.8C57.6 113.088 54.592 117.952 51.2 121.6C48 118.4 44.8 112.768 44.8 108.8C44.8 105.728 47.68 102.4 51.2 102.4S57.6 105.408 57.6 108.8zM83.2 108.8C83.2 113.088 80.192 117.952 76.8 121.6C73.6 118.4 70.4 112.768 70.4 108.8C70.4 105.728 73.28 102.4 76.8 102.4S83.2 105.408 83.2 108.8zM57.6 70.4V92.8C57.6 96.32 54.72 99.2 51.2 99.2C47.552 99.2 44.8 96.064 44.8 92.8V70.4C44.8 66.88 47.68 64 51.2 64C54.848 64 57.6 67.136 57.6 70.4zM83.2 70.4V92.8C83.2 96.32 80.32 99.2 76.8 99.2C73.152 99.2 70.4 96.064 70.4 92.8V70.4C70.4 66.88 73.28 64 76.8 64C80.448 64 83.2 67.136 83.2 70.4zM108.8 64C108.8 73.472 99.776 81.728 86.4 86.144V70.4C86.4 65.088 82.112 60.8 76.8 60.8S67.2 65.088 67.2 70.4V89.536C66.112 89.536 65.088 89.6 64 89.6S61.888 89.536 60.8 89.536V70.4C60.8 65.088 56.512 60.8 51.2 60.8S41.6 65.088 41.6 70.4V86.144C28.224 81.728 19.2 73.472 19.2 64C19.2 54.976 25.28 47.04 39.744 42.432C46.848 40.192 55.04 35.264 64 35.264S81.216 40.256 88.256 42.496C102.656 47.04 108.8 54.976 108.8 64zM64 29.248C73.152 29.248 81.536 34.304 88.832 36.352C100.992 39.744 104.768 44.928 108.8 51.2V32C108.8 17.856 88.768 6.4 64 6.4S19.2 17.856 19.2 32V51.2C23.296 44.864 27.648 39.68 39.36 36.288C46.592 34.176 54.976 29.248 64 29.248z" />
    <glyph glyph-name="buddicons-forums"
      unicode="&#xEA3C;"
      horiz-adv-x="128" d="M86.4 83.2H41.6C36.288 83.2 32 87.488 32 92.8S36.288 102.4 41.6 102.4H51.776C51.456 103.424 51.2 104.448 51.2 105.6C51.2 110.912 55.488 115.2 60.8 115.2H67.2C72.512 115.2 76.8 110.912 76.8 105.6C76.8 104.448 76.544 103.424 76.224 102.4H86.4C91.712 102.4 96 98.112 96 92.8S91.712 83.2 86.4 83.2zM25.6 76.8H102.4C105.92 76.8 108.8 73.92 108.8 70.4S105.92 64 102.4 64H25.6C22.08 64 19.2 66.88 19.2 70.4S22.08 76.8 25.6 76.8zM32 57.6H96C99.52 57.6 102.4 54.72 102.4 51.2S99.52 44.8 96 44.8H32C28.48 44.8 25.6 47.68 25.6 51.2S28.48 57.6 32 57.6zM44.8 38.4H83.2C86.72 38.4 89.6 35.52 89.6 32S86.72 25.6 83.2 25.6H76.224C76.544 24.576 76.8 23.552 76.8 22.4C76.8 17.088 72.512 12.8 67.2 12.8H60.8C55.488 12.8 51.2 17.088 51.2 22.4C51.2 23.552 51.456 24.576 51.776 25.6H44.8C41.28 25.6 38.4 28.48 38.4 32S41.28 38.4 44.8 38.4z" />
    <glyph glyph-name="buddicons-friends"
      unicode="&#xEA3D;"
      horiz-adv-x="128" d="M56 91.072C56 99.904 44.8 115.2 44.8 115.2S33.6 99.904 33.6 91.072S37.76 80 44.8 80S56 82.24 56 91.072zM94.4 91.072C94.4 99.904 83.2 115.2 83.2 115.2S72 99.904 72 91.072S76.16 80 83.2 80S94.4 82.24 94.4 91.072zM57.6 19.2V70.4C57.6 73.92 54.72 76.8 51.2 76.8H38.4C34.88 76.8 32 73.92 32 70.4V19.2C32 15.68 34.88 12.8 38.4 12.8H51.2C54.72 12.8 57.6 15.68 57.6 19.2zM96 19.2V70.4C96 73.92 93.12 76.8 89.6 76.8H76.8C73.28 76.8 70.4 73.92 70.4 70.4V19.2C70.4 15.68 73.28 12.8 76.8 12.8H89.6C93.12 12.8 96 15.68 96 19.2zM38.4 57.6L51.2 64V51.2L38.4 44.8V57.6zM76.8 57.6L89.6 64V51.2L76.8 44.8V57.6zM38.4 38.4L51.2 44.8V32L38.4 25.6V38.4zM76.8 38.4L89.6 44.8V32L76.8 25.6V38.4z" />
    <glyph glyph-name="buddicons-groups"
      unicode="&#xEA3E;"
      horiz-adv-x="128" d="M102.2374381488039 88C113.949438148804 81.984 114.9094381488039 67.648 106.7174381488039 56.128C101.5974381488039 48.96 91.8054381488039 44.096 84.5734381488039 44.736L67.6774381488039 12.8H60.9574381488039L43.9974381488039 44.736C36.7654381488039 43.712 26.5254381488039 48.768 21.2774381488039 56.192C13.0854381488039 67.712 14.0454381488039 82.048 25.8214381488039 88C28.8934381488039 89.536 31.9654381488039 90.112 34.9734381488039 89.984C34.9094381488039 87.424 35.0374381488039 84.864 35.4214381488039 82.24C37.0854381488039 71.424 44.4454381488039 59.648 53.7254381488039 54.272C52.5094381488039 50.752 50.5894381488039 47.936 48.0934381488039 46.272L60.9574381488039 21.888V58.112C52.2534381488039 60.48 43.4214381488039 71.936 41.7574381488039 83.2C39.1974381488039 100.16 48.1574381488039 115.2 64.1574381488039 115.2S89.1174381488039 100.16 86.5574381488039 83.2C84.8934381488039 71.936 76.0614381488039 60.48 67.3574381488039 58.112V21.184L80.6054381488039 45.76C77.7894381488039 47.232 75.6774381488039 50.304 74.2694381488039 54.08C83.741438148804 59.392 91.229438148804 71.296 92.8934381488039 82.24C93.277438148804 84.864 93.4054381488039 87.488 93.341438148804 90.048C96.2854381488039 90.112 99.229438148804 89.536 102.2374381488039 88z" />
    <glyph glyph-name="buddicons-pm"
      unicode="&#xEA3F;"
      horiz-adv-x="128" d="M64 115.2C83.2 115.2 115.2 83.2 115.2 83.2V12.8H12.8V83.2S44.8 115.2 64 115.2zM108.8 20.992L84.928 39.68L108.8 57.6L106.048 59.968L91.584 51.648L93.12 79.232L36.992 82.56L34.048 53.504L21.312 59.584L19.2 57.6L43.072 39.68L21.056 21.44L23.616 18.688L64 44.8L105.792 18.24z" />
    <glyph glyph-name="buddicons-replies"
      unicode="&#xEA40;"
      horiz-adv-x="128" d="M112.256 62.144C119.744 54.656 119.744 42.432 112.256 34.944C104.704 27.456 92.544 27.456 85.056 34.944L82.88 38.272C82.88 14.848 70.08 10.24 64 6.4C58.752 10.24 45.12 14.592 45.12 38.272L42.944 34.944C35.456 27.456 23.296 27.456 15.744 34.944C8.256 42.432 8.256 54.656 15.744 62.144C15.744 62.144 22.272 66.432 29.184 70.464C23.744 77.824 20.48 86.912 20.48 96.768C20.48 98.944 20.672 101.056 20.992 103.168C22.592 91.776 28.608 81.792 37.12 74.88C41.408 77.12 48.96 80.192 52.288 80.768H51.2C44.16 80.768 38.4 86.528 38.4 93.568S44.16 106.368 51.2 106.368V109.568C51.2 111.36 52.608 112.768 54.4 112.768S57.6 111.36 57.6 109.568V106.368H70.4V109.568C70.4 111.36 71.808 112.768 73.6 112.768S76.8 111.36 76.8 109.568V106.368C83.84 106.368 89.6 100.608 89.6 93.568S83.84 80.768 76.8 80.768H75.712C78.976 80.192 87.104 76.864 90.944 74.88C99.456 81.792 105.472 91.776 107.072 103.168C107.392 101.056 107.584 98.944 107.584 96.768C107.584 86.912 104.32 77.824 98.88 70.464C105.792 66.432 112.256 62.144 112.256 62.144zM54.4 87.168C57.6 87.168 60.8 90.048 60.8 93.568S57.92 99.968 54.4 99.968S48 97.088 48 93.568S50.88 87.168 54.4 87.168zM73.6 99.968C70.08 99.968 67.2 97.088 67.2 93.568S70.08 87.168 73.6 87.168S80 90.048 80 93.568S77.12 99.968 73.6 99.968zM58.88 63.296C58.112 62.592 57.664 61.632 57.664 60.544C57.792 58.944 59.136 57.6 60.8 57.6H67.2C68.864 57.6 70.208 58.944 70.336 60.544C70.336 61.504 69.888 62.4 69.12 63.296C68.608 63.68 67.968 64 67.2 64H60.8C60.032 64 59.392 63.68 58.88 63.296zM76.8 48C76.8 48.768 76.416 49.792 75.584 50.432C75.008 50.88 74.368 51.2 73.6 51.2H54.4C53.632 51.2 52.992 50.88 52.416 50.432C51.712 49.792 51.2 48.832 51.2 48C51.2 46.208 52.608 44.8 54.4 44.8H73.6C75.392 44.8 76.8 46.208 76.8 48zM54.4 32H73.6C75.392 32 76.8 33.408 76.8 35.2S75.392 38.4 73.6 38.4H54.4C52.608 38.4 51.2 36.992 51.2 35.2S52.608 32 54.4 32zM60.8 19.2H67.2C68.992 19.2 70.4 20.608 70.4 22.4S68.992 25.6 67.2 25.6H60.8C59.008 25.6 57.6 24.192 57.6 22.4S59.008 19.2 60.8 19.2z" />
    <glyph glyph-name="buddicons-topics"
      unicode="&#xEA41;"
      horiz-adv-x="128" d="M63.768 117.376C59.992 121.088 53.912 121.088 50.2 117.376L13.976 81.152C10.264 77.44 10.264 71.36 13.976 67.584C17.816 63.744 23.96 64 27.544 67.584L63.768 103.808C67.48 107.52 67.544 113.6 63.768 117.376zM81.88 99.264C78.104 103.04 72.024 103.04 68.312 99.264L32.088 63.04C28.312 59.328 28.312 53.248 32.088 49.472C35.928 45.632 42.072 45.952 45.656 49.472L81.88 85.696C85.592 89.408 85.592 95.488 81.88 99.264zM88.664 56.256L115.416 29.504C119.192 25.792 119.192 19.712 115.416 15.936S105.56 12.16 101.848 15.936L75.096 42.688L63.768 31.36C59.992 27.648 53.912 27.648 50.2 31.36C46.424 35.136 46.424 41.216 50.2 44.992L86.424 81.152C90.136 84.928 96.216 84.928 99.992 81.152C103.704 77.44 103.704 71.36 99.992 67.584zM28.952 32C28.952 42.176 18.328 57.6 18.328 57.6S9.752 39.808 9.752 32S13.592 19.2 18.328 19.2H20.376C25.112 19.2 28.952 21.824 28.952 32z" />
    <glyph glyph-name="buddicons-tracking"
      unicode="&#xEA42;"
      horiz-adv-x="128" d="M70.272 84.608L99.2 32C92.8 19.2 76.8 12.8 64 12.8S35.2 19.2 28.8 32L57.6 84.352C52.8 92.224 43.008 97.024 30.144 97.344L45.888 116.032C56.64 108.416 61.632 101.184 64.896 94.848C68.48 100.416 72.576 105.6 82.176 108.416L93.888 90.112C84.8 92.288 76.992 89.6 70.272 84.608zM52.288 61.44L46.336 50.624C49.472 49.92 52.736 49.6 56.192 49.6C64.832 49.6 72.704 51.904 78.912 55.68L72.448 67.328C66.88 63.936 59.904 61.824 52.288 61.44zM57.792 27.008C70.528 27.008 81.664 31.744 88.128 38.912L81.856 50.176C75.456 43.008 64.32 38.208 51.52 38.208C47.552 38.208 43.776 38.72 40.256 39.552L36.224 32.192C42.24 28.992 49.664 27.008 57.792 27.008z" />
    <glyph glyph-name="building"
      unicode="&#xEA43;"
      horiz-adv-x="128" d="M19.2 0H108.8V128H19.2V0zM44.8 108.8H32V121.6H44.8V108.8zM70.4 108.8H57.6V121.6H70.4V108.8zM96 108.8H83.2V121.6H96V108.8zM44.8 89.6H32V102.4H44.8V89.6zM70.4 89.6H57.6V102.4H70.4V89.6zM96 89.6H83.2V102.4H96V89.6zM44.8 70.4H32V83.2H44.8V70.4zM70.4 70.4H57.6V83.2H70.4V70.4zM96 70.4H83.2V83.2H96V70.4zM44.8 51.2H32V64H44.8V51.2zM70.4 51.2H57.6V64H70.4V51.2zM96 51.2H83.2V64H96V51.2zM70.4 6.4H32V44.8H70.4V6.4zM96 32H83.2V44.8H96V32zM96 12.8H83.2V25.6H96V12.8z" />
    <glyph glyph-name="businessman"
      unicode="&#xEA44;"
      horiz-adv-x="128" d="M108.8 19.84V35.84C108.8 40.32 108.16 44.8 105.6 49.28C103.04 53.76 99.84 57.6 95.36 60.16C90.88 63.36 81.28 64 76.8 64L66.56 53.12L70.4 44.8V25.6L64 18.56L57.6 25.6V44.8L62.08 53.12L51.2 64C46.08 64 36.48 63.36 32 60.16C27.52 57.6 24.96 53.76 22.4 49.28S19.2 40.96 19.2 35.84V19.84S35.84 12.8 64 12.8S108.8 19.84 108.8 19.84zM64 114.56C51.84 114.56 44.8 103.04 46.72 90.24C48.64 77.44 55.04 68.48 64 68.48S79.36 77.44 81.28 90.24C83.2 103.68 76.16 114.56 64 114.56z" />
    <glyph glyph-name="businessperson"
      unicode="&#xEA45;"
      horiz-adv-x="128" d="M84.48 64L70.4 44.8L64 53.76L57.6 44.8L43.52 64C19.2 57.6 19.2 44.8 19.2 19.84C19.2 19.84 38.4 12.8 60.16 12.8H67.84C89.6 13.44 108.8 19.84 108.8 19.84C108.8 44.8 108.8 57.6 84.48 64zM64 59.52L53.76 64L64 53.76L74.24 64L64 59.52zM64 114.56C51.84 114.56 44.8 103.04 46.72 90.24C48.64 77.44 55.04 68.48 64 68.48S79.36 77.44 81.28 90.24C83.2 103.68 76.16 114.56 64 114.56z" />
    <glyph glyph-name="businesswoman"
      unicode="&#xEA46;"
      horiz-adv-x="128" d="M102.4 57.6C96.64 62.72 88.32 63.36 80.64 64L87.04 50.56L64 26.88L40.96 49.92L47.36 64C39.68 64 31.36 62.72 25.6 57.6C20.48 53.12 19.2 45.44 19.2 37.76V19.84S40.96 12.16 64 12.8C87.04 12.16 108.8 19.84 108.8 19.84V37.76C108.8 44.8 107.52 52.48 102.4 57.6zM42.24 68.48C47.36 68.48 55.04 71.04 56.32 72.96C51.2 79.36 46.72 85.76 51.2 97.92C51.2 97.92 58.24 90.24 78.72 88.32C78.72 81.92 75.52 77.44 71.68 72.96C72.96 71.04 80.64 68.48 85.76 68.48S94.72 69.76 94.72 71.68S86.4 80 84.48 85.76C82.56 91.52 83.84 97.92 81.28 105.6C77.44 114.56 68.48 115.2 64 115.2C59.52 115.2 50.56 114.56 46.72 105.6C44.16 97.92 45.44 91.52 43.52 85.76C41.6 80 33.28 73.6 33.28 71.68C33.28 69.76 37.12 68.48 42.24 68.48zM64 57.6L49.28 64L64 26.88L78.72 64" />
    <glyph glyph-name="button"
      unicode="&#xEA47;"
      horiz-adv-x="128" d="M108.8 96H19.2C12.16 96 6.4 90.24 6.4 83.2V44.8C6.4 37.76 12.16 32 19.2 32H108.8C115.84 32 121.6 37.76 121.6 44.8V83.2C121.6 90.24 115.84 96 108.8 96zM115.2 51.2C115.2 47.36 112.64 44.8 108.8 44.8H19.2C15.36 44.8 12.8 47.36 12.8 51.2V83.2C12.8 87.04 15.36 89.6 19.2 89.6H108.8C112.64 89.6 115.2 87.04 115.2 83.2V51.2z" />
    <glyph glyph-name="calculator"
      unicode="&#xEA48;"
      horiz-adv-x="128" d="M96 115.2H32C28.16 115.2 25.6 112.64 25.6 108.8V19.2C25.6 15.36 28.16 12.8 32 12.8H96C99.84 12.8 102.4 15.36 102.4 19.2V108.8C102.4 112.64 99.84 115.2 96 115.2zM41.6 20.48C37.12 20.48 33.92 24.32 33.92 28.16S37.76 35.84 41.6 35.84S49.28 32 49.28 28.16S46.08 20.48 41.6 20.48zM41.6 43.52C37.12 43.52 33.92 47.36 33.92 51.2S37.76 58.88 41.6 58.88S49.28 55.04 49.28 51.2S46.08 43.52 41.6 43.52zM41.6 65.28C37.12 65.28 33.92 69.12 33.92 72.96S37.76 80.64 41.6 80.64S49.28 76.8 49.28 72.96S46.08 65.28 41.6 65.28zM64 20.48C59.52 20.48 56.32 24.32 56.32 28.16S60.16 35.84 64 35.84S71.68 32 71.68 28.16S68.48 20.48 64 20.48zM64 43.52C59.52 43.52 56.32 47.36 56.32 51.2S60.16 58.88 64 58.88S71.68 55.04 71.68 51.2S68.48 43.52 64 43.52zM64 65.28C59.52 65.28 56.32 69.12 56.32 72.96S59.52 81.92 64 81.92S71.68 78.08 71.68 74.24S68.48 65.28 64 65.28zM94.72 28.8C94.72 24.32 90.88 21.12 87.04 21.12S79.36 24.96 79.36 28.8V51.2C79.36 55.68 83.2 58.88 87.04 58.88S94.72 55.04 94.72 51.2V28.8zM86.4 65.28C81.92 65.28 78.72 69.12 78.72 72.96S82.56 80.64 86.4 80.64S94.08 76.8 94.08 72.96S90.88 65.28 86.4 65.28zM96 87.04H32V108.8H96V87.04z" />
    <glyph glyph-name="calendar"
      unicode="&#xEA49;"
      horiz-adv-x="128" d="M96 102.4H115.2V12.8H12.8V102.4H32V108.8C32 114.112 36.288 118.4 41.6 118.4S51.2 114.112 51.2 108.8V102.4H76.8V108.8C76.8 114.112 81.088 118.4 86.4 118.4S96 114.112 96 108.8V102.4zM38.4 108.8V92.8C38.4 91.008 39.808 89.6 41.6 89.6S44.8 91.008 44.8 92.8V108.8C44.8 110.592 43.392 112 41.6 112S38.4 110.592 38.4 108.8zM83.2 108.8V92.8C83.2 91.008 84.608 89.6 86.4 89.6S89.6 91.008 89.6 92.8V108.8C89.6 110.592 88.192 112 86.4 112S83.2 110.592 83.2 108.8zM108.8 19.2V76.8H19.2V19.2H108.8zM44.8 25.6V70.4H32V25.6H44.8zM70.4 25.6V70.4H57.6V25.6H70.4zM96 25.6V70.4H83.2V25.6H96z" />
    <glyph glyph-name="calendar-alt"
      unicode="&#xEA4A;"
      horiz-adv-x="128" d="M96 102.4H115.2V6.4H12.8V102.4H32V108.8C32 111.424 32.96 113.664 34.816 115.584C36.672 117.44 38.976 118.4 41.6 118.4S46.528 117.44 48.384 115.584C50.24 113.664 51.2 111.424 51.2 108.8V102.4H76.8V108.8C76.8 111.424 77.76 113.664 79.616 115.584C81.472 117.44 83.776 118.4 86.4 118.4S91.328 117.44 93.184 115.584C95.04 113.664 96 111.424 96 108.8V102.4zM38.4 108.8V92.8C38.4 91.904 38.72 91.136 39.36 90.496C39.936 89.92 40.704 89.6 41.6 89.6S43.264 89.92 43.84 90.496C44.48 91.136 44.8 91.904 44.8 92.8V108.8C44.8 109.696 44.48 110.464 43.84 111.04C43.264 111.68 42.496 112 41.6 112S39.936 111.68 39.36 111.04C38.72 110.464 38.4 109.696 38.4 108.8zM83.2 108.8V92.8C83.2 91.904 83.52 91.136 84.096 90.496C84.736 89.92 85.504 89.6 86.4 89.6S88.064 89.92 88.704 90.496C89.28 91.136 89.6 91.904 89.6 92.8V108.8C89.6 109.696 89.28 110.464 88.704 111.04C88.064 111.68 87.296 112 86.4 112S84.736 111.68 84.096 111.04C83.52 110.464 83.2 109.696 83.2 108.8zM108.8 12.8V76.8H19.2V12.8H108.8zM44.8 70.4V57.6H32V70.4H44.8zM57.6 70.4H70.4V57.6H57.6V70.4zM83.2 57.6V70.4H96V57.6H83.2zM44.8 51.2V38.4H32V51.2H44.8zM57.6 51.2H70.4V38.4H57.6V51.2zM83.2 38.4V51.2H96V38.4H83.2zM44.8 32V19.2H32V32H44.8zM70.4 19.2H57.6V32H70.4V19.2zM96 19.2H83.2V32H96V19.2z" />
    <glyph glyph-name="camera"
      unicode="&#xEA4B;"
      horiz-adv-x="128" d="M38.4 96V108.8H19.2V96H38.4zM115.2 32V102.4H57.6L44.8 89.6H12.8V32H115.2zM70.4 83.2C81.024 83.2 89.6 74.624 89.6 64S81.024 44.8 70.4 44.8S51.2 53.376 51.2 64S59.776 83.2 70.4 83.2z" />
    <glyph glyph-name="camera-alt"
      unicode="&#xEA4C;"
      horiz-adv-x="128" d="M96 102.4H114.816C118.592 102.4 121.6 99.392 121.6 95.616V20.032C121.6 16.256 118.592 12.8 114.816 12.8H13.184C9.408 12.8 6.4 16.256 6.4 20.032V95.616C6.4 99.392 9.408 102.4 13.184 102.4H32L51.2 115.2H76.8zM64 32C78.144 32 89.6 43.456 89.6 57.6S78.144 83.2 64 83.2S38.4 71.744 38.4 57.6S49.856 32 64 32z" />
    <glyph glyph-name="car"
      unicode="&#xEA4D;"
      horiz-adv-x="128" d="M80 41.6A9.6 9.6 0 0 1 99.2 41.6A9.6 9.6 0 0 1 80 41.6M103.04 70.4H92.8C88.96 87.68 72.32 99.2 55.04 95.36C42.24 92.8 32 83.2 29.44 70.4H24.96C18.56 70.4 12.8 64.64 12.8 58.24V49.92C12.8 45.44 16.64 41.6 21.12 41.6H23.04C23.04 49.92 30.08 56.96 38.4 56.96C46.72 56.96 53.76 49.92 53.76 41.6H74.24C74.24 49.92 81.28 56.96 89.6 56.96C97.92 56.96 104.96 49.92 104.96 41.6H106.88C111.36 41.6 115.2 45.44 115.2 49.92V57.6C115.2 64.64 109.44 70.4 103.04 70.4zM39.68 70.4C42.88 82.56 55.68 88.96 67.2 85.76C74.24 83.84 80 78.08 82.56 70.4H39.68zM38.4 51.2C33.28 51.2 28.8 46.72 28.8 41.6S33.28 32 38.4 32S48 36.48 48 41.6S43.52 51.2 38.4 51.2z" />
    <glyph glyph-name="carrot"
      unicode="&#xEA4E;"
      horiz-adv-x="128" d="M11.4725604153412 10.048C21.1365604153412 1.344 85.9685604153412 39.936 95.5685604153412 56.192C100.1765604153412 64 94.7365604153412 75.456 85.8405604153412 84.608C95.9525604153412 91.328 104.8485604153412 70.4 113.2965604153412 74.816C117.1365604153412 76.864 119.6325604153412 83.2 117.7765604153412 87.104C114.4485604153412 94.016 103.3765604153412 94.016 95.8885604153412 94.848C101.2005604153412 96.128 113.9365604153412 101.568 114.1925604153412 109.248C114.4485604153412 115.136 106.9605604153412 121.856 101.0725604153412 121.152C93.3285604153412 120.256 90.5125604153412 109.12 87.8885604153412 101.952C87.5685604153412 106.496 86.6085604153412 116.48 81.6165604153412 120.832C74.9605604153412 126.656 66.9605604153412 121.152 66.7685604153412 114.112C66.5125604153412 105.6 84.8165604153412 100.864 79.0565604153412 90.624C69.3285604153412 98.112 57.8725604153412 102.208 50.5125604153412 97.92C47.3765604153412 95.936 43.7925604153412 92.096 40.0805604153412 87.104C45.7765604153412 81.088 53.6485604153412 73.856 59.8565604153412 69.696C61.1365604153412 68.8 61.5205604153412 67.008 60.5605604153412 65.728C59.6645604153412 64.384 57.8725604153412 64.064 56.5925604153412 64.96C50.2565604153412 69.248 42.5125604153412 76.352 36.7525604153412 82.304C33.8725604153412 78.016 30.9285604153412 73.152 28.1765604153412 68.032C33.6165604153412 62.528 40.5285604153412 56.32 46.0325604153412 52.608C47.3125604153412 51.712 47.6325604153412 49.92 46.7365604153412 48.64C45.8405604153412 47.296 44.0485604153412 46.976 42.7045604153412 47.872C37.2645604153412 51.584 30.8005604153412 57.344 25.3605604153412 62.72C14.0325604153412 40.384 5.7125604153412 15.168 11.4725604153412 10.048z" />
    <glyph glyph-name="cart"
      unicode="&#xEA4F;"
      horiz-adv-x="128" d="M38.4 44.8H96C99.52 44.8 102.4 41.92 102.4 38.4S99.52 32 96 32H32C28.48 32 25.6 34.88 25.6 38.4V102.4H12.8C9.28 102.4 6.4 105.28 6.4 108.8S9.28 115.2 12.8 115.2H32C35.52 115.2 38.4 112.32 38.4 108.8V96H121.6L96 51.2H38.4V44.8zM35.2 25.6C40.512 25.6 44.8 21.312 44.8 16S40.512 6.4 35.2 6.4S25.6 10.688 25.6 16S29.888 25.6 35.2 25.6zM92.8 25.6C98.112 25.6 102.4 21.312 102.4 16S98.112 6.4 92.8 6.4S83.2 10.688 83.2 16S87.488 25.6 92.8 25.6z" />
    <glyph glyph-name="category"
      unicode="&#xEA50;"
      horiz-adv-x="128" d="M32 83.2H115.2V19.2H12.8V102.4H57.6L70.4 89.6H25.6V32H32V83.2z" />
    <glyph glyph-name="chart-area"
      unicode="&#xEA51;"
      horiz-adv-x="128" d="M115.2 12.8L115.264 91.392C119.04 93.632 121.6 97.728 121.6 102.4C121.6 109.44 115.84 115.2 108.8 115.2S96 109.44 96 102.4C96 97.28 99.008 92.928 103.296 90.88L76.864 48.768C74.752 50.304 72.192 51.2 69.44 51.2C64.064 51.2 59.52 47.936 57.6 43.264L43.904 53.056C44.48 54.464 44.8 56 44.8 57.6C44.8 64.704 39.104 70.4 32 70.4C24.96 70.4 19.2 64.704 19.2 57.6C19.2 52.928 21.76 48.896 25.472 46.656L6.4 12.8H115.2zM108.8 108.8C112.32 108.8 115.2 105.92 115.2 102.4S112.32 96 108.8 96S102.4 98.88 102.4 102.4S105.28 108.8 108.8 108.8zM32 64C35.52 64 38.4 61.12 38.4 57.6S35.52 51.2 32 51.2S25.6 54.08 25.6 57.6S28.48 64 32 64zM69.44 44.8C72.96 44.8 75.84 41.92 75.84 38.4S72.96 32 69.44 32S63.04 34.88 63.04 38.4S65.92 44.8 69.44 44.8z" />
    <glyph glyph-name="chart-bar"
      unicode="&#xEA52;"
      horiz-adv-x="128" d="M115.2 12.8V115.2H89.6V12.8H115.2zM76.8 12.8V83.2H51.2V12.8H76.8zM38.4 12.8V64H12.8V12.8H38.4z" />
    <glyph glyph-name="chart-line"
      unicode="&#xEA53;"
      horiz-adv-x="128" d="M115.232 105.6C115.232 101.632 112.8 98.176 109.344 96.768V12.864H12.768L39.776 55.936C38.944 57.408 38.432 59.008 38.432 60.8C38.432 66.112 42.72 70.4 48.032 70.4S57.632 66.112 57.632 60.8C57.632 59.968 57.504 59.2 57.312 58.432L66.528 54.4C68.256 56.32 70.816 57.6 73.632 57.6C74.784 57.6 75.872 57.344 76.896 57.024L99.808 98.048C97.504 99.776 96.032 102.528 96.032 105.6C96.032 110.912 100.32 115.2 105.632 115.2C106.848 115.2 107.936 114.944 109.024 114.56L109.344 115.136V114.432C112.8 113.024 115.232 109.568 115.232 105.6zM102.944 19.264V90.56L81.888 52.864C82.72 51.392 83.232 49.792 83.232 48C83.232 42.688 78.944 38.4 73.632 38.4S64.032 42.688 64.032 48L64.096 48.448L53.664 53.056C52.064 51.904 50.144 51.2 48.032 51.2C46.88 51.2 45.792 51.456 44.768 51.84L24.288 19.264H102.944z" />
    <glyph glyph-name="chart-pie"
      unicode="&#xEA54;"
      horiz-adv-x="128" d="M67.2 64V108.8C91.968 108.8 112 88.768 112 64H67.2zM60.8 102.4V57.6H105.6C105.6 32.832 85.568 12.8 60.8 12.8S16 32.832 16 57.6S36.032 102.4 60.8 102.4z" />
    <glyph glyph-name="clipboard"
      unicode="&#xEA55;"
      horiz-adv-x="128" d="M73.056 125.504L82.016 116.544C92.32 115.328 104.416 121.28 111.52 114.176S112.672 94.976 113.888 84.672L122.848 75.712C125.344 73.216 125.344 69.184 122.848 66.688L64.032 7.808C61.472 5.312 57.44 5.312 54.944 7.808L5.152 57.6C2.656 60.096 2.656 64.128 5.152 66.688L64.032 125.504C66.528 128 70.56 128 73.056 125.504zM76.768 111.104L73.056 107.392L104.736 75.712L108.448 79.424C107.232 83.264 107.168 87.232 107.488 91.072C107.616 93.056 107.808 95.04 108.064 96.96C108.832 103.36 109.216 107.392 106.976 109.632S100.704 111.488 94.304 110.72C92.384 110.464 90.4 110.272 88.416 110.144C84.576 109.824 80.608 109.888 76.768 111.104zM102.496 105.152C104.992 102.656 104.992 98.56 102.496 96.064S95.904 93.568 93.408 96.064S90.912 102.656 93.408 105.152S100 107.648 102.496 105.152zM59.488 102.848L54.944 98.368L95.712 57.6L100.192 62.144zM50.4 93.824L45.92 89.28L86.624 48.576L91.168 53.056zM41.376 84.736L36.832 80.256L77.6 39.488L82.08 44.032zM32.352 75.712L27.808 71.168L68.512 30.464L73.056 35.008zM23.264 66.688L18.72 62.144L59.488 21.376L64.032 25.92z" />
    <glyph glyph-name="clock"
      unicode="&#xEA56;"
      horiz-adv-x="128" d="M64 115.2C92.288 115.2 115.2 92.288 115.2 64S92.288 12.8 64 12.8S12.8 35.712 12.8 64S35.712 115.2 64 115.2zM64 25.6C85.184 25.6 102.4 42.816 102.4 64S85.184 102.4 64 102.4S25.6 85.184 25.6 64S42.816 25.6 64 25.6zM59.456 59.456C59.904 59.136 60.352 58.816 60.928 58.496L60.8 58.368L89.6 44.8L70.208 65.216L64 96L57.792 65.216H57.856C57.856 65.088 57.792 64.896 57.728 64.64S57.6 64.192 57.6 64C57.6 62.208 58.24 60.672 59.456 59.456z" />
    <glyph glyph-name="cloud"
      unicode="&#xEA57;"
      horiz-adv-x="128" d="M98.56 70.4C98.56 72.32 99.2 74.24 99.2 76.8C99.2 90.88 87.68 102.4 73.6 102.4C63.36 102.4 55.04 96.64 50.56 88.32C49.28 88.96 46.72 89.6 44.8 89.6C35.84 89.6 28.8 82.56 28.8 73.6C28.8 72.32 28.8 71.04 29.44 70.4C17.92 68.48 9.6 59.52 9.6 48C9.6 35.84 19.84 25.6 32 25.6H96C108.16 25.6 118.4 35.84 118.4 48C118.4 59.52 110.08 69.12 98.56 70.4z" />
    <glyph glyph-name="cloud-saved"
      unicode="&#xEA58;"
      horiz-adv-x="128" d="M97.92 70.4C98.56 72.32 99.2 74.24 99.2 76.8C99.2 90.88 87.68 102.4 73.6 102.4C64 102.4 55.04 96.64 51.2 88.32C49.28 88.96 46.72 89.6 44.8 89.6C35.84 89.6 28.8 82.56 28.8 73.6C28.8 72.32 28.8 71.04 29.44 70.4C17.92 68.48 9.6 59.52 9.6 48C9.6 35.84 19.84 25.6 32 25.6H96C108.16 25.6 118.4 35.84 118.4 48C118.4 59.52 109.44 69.12 97.92 70.4zM57.6 32.64L37.12 53.12L46.08 62.08L57.6 50.56L81.92 74.88L90.88 65.92L57.6 32.64z" />
    <glyph glyph-name="cloud-upload"
      unicode="&#xEA59;"
      horiz-adv-x="128" d="M97.92 70.4C98.56 72.32 99.2 74.24 99.2 76.8C99.2 90.88 87.68 102.4 73.6 102.4C64 102.4 55.04 96.64 51.2 88.32C49.28 88.96 46.72 89.6 44.8 89.6C35.84 89.6 28.8 82.56 28.8 73.6C28.8 72.32 28.8 71.04 29.44 70.4C17.92 68.48 9.6 59.52 9.6 48C9.6 35.84 19.84 25.6 32 25.6H54.4V44.8H35.2L64 73.6L92.8 44.8H73.6V25.6H96C108.16 25.6 118.4 35.84 118.4 48C118.4 59.52 109.44 69.12 97.92 70.4z" />
    <glyph glyph-name="code-standards"
      unicode="&#xEA5A;"
      horiz-adv-x="128" d="M38.8041019572924 67.2V74.24C38.8041019572924 77.44 37.5241019572924 78.72 34.3241019572924 79.36C38.1641019572924 80 39.4441019572924 81.28 39.4441019572924 85.12V92.16C39.4441019572924 94.72 40.0841019572924 95.36 43.9241019572924 95.36H45.8441019572924V98.56H42.0041019572925C36.2441019572924 98.56 33.6841019572925 97.28 33.6841019572925 92.16C33.6841019572925 88.96 34.3241019572924 87.04 34.3241019572924 84.48C34.3241019572924 83.2 33.0441019572924 81.28 28.5641019572924 81.28V77.44C33.0441019572924 77.44 34.3241019572924 75.52 34.3241019572924 74.24C34.3241019572924 71.68 33.6841019572925 69.76 33.6841019572925 66.56C33.6841019572925 61.44 36.2441019572925 60.16 42.0041019572925 60.16H45.2041019572924V64H43.2841019572925C40.0841019572924 64 38.8041019572924 64.64 38.8041019572924 67.2zM105.3641019572925 39.04C100.2441019572925 44.16 94.4841019572925 48 88.7241019572925 51.84C88.0841019572925 52.48 81.6841019572925 58.88 79.1241019572925 60.8C94.4841019572925 86.4 72.0841019572925 119.68 42.6441019572925 115.2C14.4841019572924 110.72 2.3241019572924 75.52 22.1641019572925 55.04C33.0441019572925 42.88 51.6041019572925 40.32 66.3241019572924 48C70.1641019572925 44.16 73.3641019572925 40.96 76.5641019572925 37.12C81.0441019572924 31.36 84.2441019572925 25.6 90.0041019572925 21.12C93.8441019572925 17.92 98.9641019572925 13.44 104.7241019572925 12.8C111.7641019572924 12.16 115.6041019572925 16.64 115.6041019572925 23.04C114.9641019572924 28.8 109.2041019572924 35.2 105.3641019572924 39.04zM48.4041019572925 53.76C34.3241019572924 53.76 22.8041019572924 65.28 22.8041019572924 79.36S34.3241019572924 104.96 48.4041019572925 104.96S74.0041019572925 93.44 74.0041019572925 79.36S62.4841019572925 53.76 48.4041019572925 53.76zM61.8441019572925 84.48C61.8441019572925 87.04 62.4841019572925 88.96 62.4841019572925 92.16C62.4841019572925 97.28 59.9241019572924 98.56 54.1641019572924 98.56H50.9641019572925V95.36H52.8841019572925C56.0841019572925 95.36 57.3641019572925 94.72 57.3641019572925 92.16V85.12C57.3641019572925 81.92 58.6441019572924 80.64 61.8441019572925 80C58.0041019572925 78.72 56.7241019572924 77.44 56.7241019572924 74.24V67.2C57.3641019572924 64.64 56.0841019572924 64 52.8841019572924 64H50.9641019572925V60.16H54.1641019572925C59.9241019572925 60.16 62.4841019572925 61.44 62.4841019572925 66.56C62.4841019572925 69.76 61.8441019572925 71.68 61.8441019572925 74.24C61.8441019572925 75.52 63.1241019572925 77.44 67.6041019572925 77.44V81.28C63.1241019572925 81.28 61.8441019572925 83.2 61.8441019572925 84.48z" />
    <glyph glyph-name="coffee"
      unicode="&#xEA5B;"
      horiz-adv-x="128" d="M25.6 32C25.6 24.96 31.36 19.2 38.4 19.2H102.4C109.44 19.2 115.2 24.96 115.2 32H25.6zM38.4 56.32V51.2C38.4 44.16 44.16 38.4 51.2 38.4H96C103.04 38.4 108.8 44.16 108.8 51.2V102.4H35.84C23.04 102.4 12.8 93.44 12.8 79.36C12.8 64.64 23.04 56.32 35.84 56.32H38.4zM24.96 79.36C24.96 85.76 29.44 90.88 35.84 90.88H38.4V67.84H35.84C29.44 67.84 24.96 72.32 24.96 79.36z" />
    <glyph glyph-name="color-picker"
      unicode="&#xEA5C;"
      horiz-adv-x="128" d="M113.76 113.92C107.36 120.32 97.12 120.32 90.72 113.92L79.2 102.4L74.72 106.88C72.16 109.44 68.32 109.44 65.76 106.88L60.64 102.4C58.08 99.84 58.08 96 60.64 93.44L92.64 61.44C95.2 58.88 99.04 58.88 101.6 61.44L106.08 65.92C108.64 68.48 108.64 72.32 106.08 74.88L102.24 79.36L113.76 90.88C120.16 97.28 120.16 107.52 113.76 113.92zM28 51.2C13.92 37.12 22.24 30.72 9.44 14.08L13.92 9.6C30.56 22.4 36.96 14.08 51.04 28.16L83.68 60.8L60.64 83.84L28 51.2z" />
    <glyph glyph-name="columns"
      unicode="&#xEA5D;"
      horiz-adv-x="128" d="M19.2 32H57.6V96H19.2V32zM70.4 32H108.8V96H70.4V32z" />
    <glyph glyph-name="controls-back"
      unicode="&#xEA5E;"
      horiz-adv-x="128" d="M12.8 64L76.8 102.4V79.36L115.2 102.4V25.6L76.8 48.64V25.6z" />
    <glyph glyph-name="controls-forward"
      unicode="&#xEA5F;"
      horiz-adv-x="128" d="M115.2 64L51.2 25.6V48.64L12.8 25.6V102.4L51.2 79.36V102.4z" />
    <glyph glyph-name="controls-pause"
      unicode="&#xEA60;"
      horiz-adv-x="128" d="M32 25.6V102.4H51.2V25.6H32zM76.8 102.4H96V25.6H76.8V102.4z" />
    <glyph glyph-name="controls-play"
      unicode="&#xEA61;"
      horiz-adv-x="128" d="M32 102.4L96 64L32 25.6V102.4z" />
    <glyph glyph-name="controls-repeat"
      unicode="&#xEA62;"
      horiz-adv-x="128" d="M32 83.2V64L19.2 54.4V96H89.6V108.8L115.2 89.536L89.6 70.4V83.2H32zM96 44.8V64L108.8 73.6V32H38.4V19.2L12.8 38.464L38.4 57.6V44.8H96z" />
    <glyph glyph-name="controls-skipback"
      unicode="&#xEA63;"
      horiz-adv-x="128" d="M76.8 79.168L115.2 102.208V25.408L76.8 48.448V25.408L25.6 56.128V25.408H12.8V102.208H25.6V71.488L76.8 102.208V79.168z" />
    <glyph glyph-name="controls-skipforward"
      unicode="&#xEA64;"
      horiz-adv-x="128" d="M51.2 48.64L12.8 25.6V102.4L51.2 79.36V102.4L102.4 71.68V102.4H115.2V25.6H102.4V56.32L51.2 25.6V48.64z" />
    <glyph glyph-name="controls-volumeoff"
      unicode="&#xEA65;"
      horiz-adv-x="128" d="M35.2 83.2H60.8L92.8 108.8V19.2L60.8 44.8H35.2V83.2z" />
    <glyph glyph-name="controls-volumeon"
      unicode="&#xEA66;"
      horiz-adv-x="128" d="M12.8 83.2H38.4L70.4 108.8V19.2L38.4 44.8H12.8V83.2zM94.016 98.944C94.848 98.624 115.2 90.112 115.2 64S94.848 29.376 94.016 29.056C93.632 28.864 93.184 28.8 92.8 28.8C91.52 28.8 90.304 29.568 89.856 30.784C89.152 32.448 89.984 34.304 91.584 34.944C92.288 35.264 108.8 42.304 108.8 64C108.8 85.824 91.776 92.992 91.584 93.056C89.984 93.696 89.152 95.552 89.856 97.216C90.496 98.816 92.352 99.648 94.016 98.944zM102.4 64C102.4 47.552 88.128 42.048 87.552 41.792C87.168 41.664 86.784 41.6 86.4 41.6C85.12 41.6 83.904 42.368 83.392 43.648C82.752 45.312 83.648 47.168 85.248 47.808C85.696 47.936 96 52.096 96 64S85.696 80.064 85.248 80.192C83.648 80.832 82.816 82.688 83.392 84.352C84.032 85.952 85.888 86.848 87.552 86.208C88.128 85.952 102.4 80.448 102.4 64z" />
    <glyph glyph-name="cover-image"
      unicode="&#xEA67;"
      horiz-adv-x="128" d="M14.08 121.6H113.28C117.76 121.6 121.6 117.76 121.6 113.92V40.32C121.6 35.84 117.76 32.64 113.92 32.64H14.08C10.24 32 6.4 35.84 6.4 39.68V113.92C6.4 117.76 10.24 121.6 14.08 121.6zM108.8 44.8V108.8H19.2V44.8H108.8zM83.2 70.4S83.2 102.4 102.4 102.4V57.6C102.4 53.76 99.84 51.2 96 51.2H32C28.16 51.2 25.6 53.76 25.6 57.6V83.2C38.4 83.2 44.8 57.6 44.8 57.6S51.2 83.2 64 83.2S83.2 70.4 83.2 70.4zM25.6 19.2H102.4V6.4H25.6z" />
    <glyph glyph-name="dashboard"
      unicode="&#xEA68;"
      horiz-adv-x="128" d="M24.064 25.6H103.936C110.976 34.368 115.2 45.504 115.2 57.6C115.2 85.888 92.288 108.8 64 108.8S12.8 85.888 12.8 57.6C12.8 45.504 17.024 34.368 24.064 25.6zM64 102.4C67.52 102.4 70.4 99.52 70.4 96S67.52 89.6 64 89.6S57.6 92.48 57.6 96S60.48 102.4 64 102.4zM38.4 89.6C41.92 89.6 44.8 86.72 44.8 83.2S41.92 76.8 38.4 76.8S32 79.68 32 83.2S34.88 89.6 38.4 89.6zM89.6 89.6C93.12 89.6 96 86.72 96 83.2S93.12 76.8 89.6 76.8S83.2 79.68 83.2 83.2S86.08 89.6 89.6 89.6zM55.232 54.08L76.8 83.2V44.8C76.8 37.76 71.04 32 64 32S51.2 37.76 51.2 44.8C51.2 48.448 52.736 51.712 55.232 54.08zM25.6 64C29.12 64 32 61.12 32 57.6S29.12 51.2 25.6 51.2S19.2 54.08 19.2 57.6S22.08 64 25.6 64zM102.4 64C105.92 64 108.8 61.12 108.8 57.6S105.92 51.2 102.4 51.2S96 54.08 96 57.6S98.88 64 102.4 64zM70.4 44.8C70.4 48.32 67.52 51.2 64 51.2S57.6 48.32 57.6 44.8S60.48 38.4 64 38.4S70.4 41.28 70.4 44.8z" />
    <glyph glyph-name="database"
      unicode="&#xEA69;"
      horiz-adv-x="128" d="M64 89.6C88.96 89.6 108.8 95.36 108.8 102.4S88.96 115.2 64 115.2S19.2 109.44 19.2 102.4S39.04 89.6 64 89.6zM64 32C39.04 32 19.2 37.76 19.2 44.8V25.6C19.2 18.56 39.04 12.8 64 12.8S108.8 18.56 108.8 25.6V44.8C108.8 37.76 88.96 32 64 32zM64 57.6C39.04 57.6 19.2 63.36 19.2 70.4V51.2C19.2 44.16 39.04 38.4 64 38.4S108.8 44.16 108.8 51.2V70.4C108.8 63.36 88.96 57.6 64 57.6zM64 83.2C39.04 83.2 19.2 88.96 19.2 96V76.8C19.2 69.76 39.04 64 64 64S108.8 69.76 108.8 76.8V96C108.8 88.96 88.96 83.2 64 83.2z" />
    <glyph glyph-name="database-add"
      unicode="&#xEA6A;"
      horiz-adv-x="128" d="M86.4 64C100.48 64 112 75.52 112 89.6S100.48 115.2 86.4 115.2S60.8 103.68 60.8 89.6S72.32 64 86.4 64zM80 96V108.8H92.8V96H105.6V83.2H92.8V70.4H80V83.2H67.2V96H80zM54.4 89.6C54.4 99.84 59.52 108.8 67.2 115.2H60.8C35.84 115.2 16 109.44 16 102.4C16 96 32.64 90.88 54.4 89.6zM60.8 32C35.84 32 16 37.76 16 44.8V25.6C16 18.56 35.84 12.8 60.8 12.8S105.6 18.56 105.6 25.6V44.8C105.6 37.76 85.76 32 60.8 32zM78.72 58.88C72.96 58.24 66.56 57.6 60.8 57.6C35.84 57.6 16 63.36 16 70.4V51.2C16 44.16 35.84 38.4 60.8 38.4S105.6 44.16 105.6 51.2V64C99.84 59.52 93.44 57.6 86.4 57.6C83.84 57.6 81.28 58.24 78.72 58.88zM60.8 64H67.2C60.8 68.48 56.32 75.52 55.04 83.2C33.28 83.84 16 89.6 16 96V76.8C16 69.76 35.84 64 60.8 64z" />
    <glyph glyph-name="database-export"
      unicode="&#xEA6B;"
      horiz-adv-x="128" d="M54.4 89.6C54.4 99.84 59.52 108.8 67.2 115.2H60.8C35.84 115.2 16 109.44 16 102.4C16 96 32.64 90.88 54.4 89.6zM60.8 32C35.84 32 16 37.76 16 44.8V25.6C16 18.56 35.84 12.8 60.8 12.8S105.6 18.56 105.6 25.6V44.8C105.6 37.76 85.76 32 60.8 32zM78.72 58.88C72.96 58.24 66.56 57.6 60.8 57.6C35.84 57.6 16 63.36 16 70.4V51.2C16 44.16 35.84 38.4 60.8 38.4S105.6 44.16 105.6 51.2V64C99.84 59.52 93.44 57.6 86.4 57.6C83.84 57.6 81.28 58.24 78.72 58.88zM60.8 64H67.2C60.8 68.48 56.32 75.52 55.04 83.2C33.28 83.84 16 89.6 16 96V76.8C16 69.76 35.84 64 60.8 64zM86.4 64C100.48 64 112 75.52 112 89.6S100.48 115.2 86.4 115.2S60.8 103.68 60.8 89.6S72.32 64 86.4 64zM86.4 108.8L105.6 89.6H92.8V70.4H80V89.6H67.2L86.4 108.8z" />
    <glyph glyph-name="database-import"
      unicode="&#xEA6C;"
      horiz-adv-x="128" d="M54.4 89.6C54.4 99.84 59.52 108.8 67.2 115.2H60.8C35.84 115.2 16 109.44 16 102.4C16 96 32.64 90.88 54.4 89.6zM78.72 58.88C72.96 58.24 66.56 57.6 60.8 57.6C35.84 57.6 16 63.36 16 70.4V51.2C16 44.16 35.84 38.4 60.8 38.4S105.6 44.16 105.6 51.2V64C99.84 59.52 93.44 57.6 86.4 57.6C83.84 57.6 81.28 58.24 78.72 58.88zM60.8 32C35.84 32 16 37.76 16 44.8V25.6C16 18.56 35.84 12.8 60.8 12.8S105.6 18.56 105.6 25.6V44.8C105.6 37.76 85.76 32 60.8 32zM60.8 64H67.2C60.8 68.48 56.32 75.52 55.04 83.2C33.28 83.84 16 89.6 16 96V76.8C16 69.76 35.84 64 60.8 64zM86.4 64C100.48 64 112 75.52 112 89.6S100.48 115.2 86.4 115.2S60.8 103.68 60.8 89.6S72.32 64 86.4 64zM80 89.6V108.8H92.8V89.6H105.6L86.4 70.4L67.2 89.6H80z" />
    <glyph glyph-name="database-remove"
      unicode="&#xEA6D;"
      horiz-adv-x="128" d="M86.4 64C100.48 64 112 75.52 112 89.6S100.48 115.2 86.4 115.2S60.8 103.68 60.8 89.6S72.32 64 86.4 64zM105.6 96V83.2H67.2V96H105.6zM54.4 89.6C54.4 99.84 59.52 108.8 67.2 115.2H60.8C35.84 115.2 16 109.44 16 102.4C16 96 32.64 90.88 54.4 89.6zM78.72 58.88C72.96 58.24 66.56 57.6 60.8 57.6C35.84 57.6 16 63.36 16 70.4V51.2C16 44.16 35.84 38.4 60.8 38.4S105.6 44.16 105.6 51.2V64C99.84 59.52 93.44 57.6 86.4 57.6C83.84 57.6 81.28 58.24 78.72 58.88zM60.8 64H67.2C60.8 68.48 56.32 75.52 55.04 83.2C33.28 83.84 16 89.6 16 96V76.8C16 69.76 35.84 64 60.8 64zM60.8 32C35.84 32 16 37.76 16 44.8V25.6C16 18.56 35.84 12.8 60.8 12.8S105.6 18.56 105.6 25.6V44.8C105.6 37.76 85.76 32 60.8 32z" />
    <glyph glyph-name="database-view"
      unicode="&#xEA6E;"
      horiz-adv-x="128" d="M54.4 89.6C54.4 99.84 59.52 108.8 67.2 115.2H60.8C35.84 115.2 16 109.44 16 102.4C16 96 32.64 90.88 54.4 89.6zM78.72 58.88C72.96 58.24 66.56 57.6 60.8 57.6C35.84 57.6 16 63.36 16 70.4V51.2C16 44.16 35.84 38.4 60.8 38.4S105.6 44.16 105.6 51.2V64C99.84 59.52 93.44 57.6 86.4 57.6C83.84 57.6 81.28 58.24 78.72 58.88zM60.8 32C35.84 32 16 37.76 16 44.8V25.6C16 18.56 35.84 12.8 60.8 12.8S105.6 18.56 105.6 25.6V44.8C105.6 37.76 85.76 32 60.8 32zM60.8 64H67.2C60.8 68.48 56.32 75.52 55.04 83.2C33.28 83.84 16 89.6 16 96V76.8C16 69.76 35.84 64 60.8 64zM86.4 64C100.48 64 112 75.52 112 89.6S100.48 115.2 86.4 115.2S60.8 103.68 60.8 89.6S72.32 64 86.4 64zM71.68 92.16L82.56 81.28L101.12 99.84L105.6 95.36L82.56 72.32L67.2 87.68L71.68 92.16z" />
    <glyph glyph-name="desktop"
      unicode="&#xEA6F;"
      horiz-adv-x="128" d="M19.2 115.2H108.8C112.32 115.2 115.2 112.32 115.2 108.8V44.8C115.2 41.28 112.32 38.4 108.8 38.4H76.8V25.6H89.6C93.12 25.6 96 22.72 96 19.2V12.8H32V19.2C32 22.72 34.88 25.6 38.4 25.6H51.2V38.4H19.2C15.68 38.4 12.8 41.28 12.8 44.8V108.8C12.8 112.32 15.68 115.2 19.2 115.2zM102.4 57.6V102.4H25.6V57.6H102.4zM32 96H89.6L32 70.4V96z" />
    <glyph glyph-name="dismiss"
      unicode="&#xEA70;"
      horiz-adv-x="128" d="M64 115.2C92.288 115.2 115.2 92.288 115.2 64S92.288 12.8 64 12.8S12.8 35.712 12.8 64S35.712 115.2 64 115.2zM96 44.8L76.8 64L96 83.2L83.2 96L64 76.8L44.8 96L32 83.2L51.2 64L32 44.8L44.8 32L64 51.2L83.2 32z" />
    <glyph glyph-name="download"
      unicode="&#xEA71;"
      horiz-adv-x="128" d="M89.632 102.4V64H102.432V115.2H25.568V64H38.432V102.4H89.632zM76.832 89.6V51.2H96.032L64.032 12.8L32.032 51.2H51.232V89.6H76.832z" />
    <glyph glyph-name="drumstick"
      unicode="&#xEA72;"
      horiz-adv-x="128" d="M109.8690787144224 99.2C107.3090787144224 103.68 103.4690787144224 106.88 99.6290787144224 109.44C82.9890787144224 119.68 61.8690787144224 115.2 51.6290787144224 99.2C48.4290787144224 94.08 46.5090787144224 87.68 46.5090787144224 81.92C46.5090787144224 72.32 42.6690787144224 62.72 36.2690787144224 55.68L31.1490787144224 50.56C27.9490787144224 47.36 18.9890787144224 49.28 15.1490787144224 42.88C8.1090787144224 30.72 19.6290787144224 26.24 22.8290787144224 23.04S30.5090787144224 7.68 42.6690787144224 15.36C48.4290787144224 19.2 46.5090787144224 27.52 50.3490787144224 31.36L55.4690787144224 36.48C62.5090787144224 42.88 72.1090787144224 46.72 81.7090787144224 46.72C83.6290787144224 46.72 85.5490787144224 46.72 86.8290787144224 47.36C81.7090787144224 57.6 85.5490787144224 69.76 95.1490787144224 74.88C100.9090787144224 78.08 108.5890787144224 78.08 114.3490787144224 74.88C116.2690787144224 83.2 114.3490787144224 92.16 109.8690787144224 99.2z" />
    <glyph glyph-name="edit"
      unicode="&#xEA73;"
      horiz-adv-x="128" d="M88.9159647180854 106.304L106.2599647180853 88.896C109.2039647180854 85.952 108.9479647180854 80.96 106.4519647180854 78.4L55.1879647180854 27.072L19.6039647180854 19.648L27.0279647180854 55.36S75.6679647180854 104.192 78.1639647180854 106.752C80.6599647180854 109.248 85.9719647180854 109.248 88.9159647180854 106.304zM71.4439647180853 88.448L35.6679647180853 52.544L42.7719647180853 45.44L78.2279647180854 81.6zM52.4359647180853 35.776L88.1479647180853 71.616L81.2999647180853 78.528L45.5239647180853 42.688z" />
    <glyph glyph-name="edit-large"
      unicode="&#xEA74;"
      horiz-adv-x="128" d="M41.5572838934947 37.76L49.8772838934947 29.44L94.0372838934947 73.6L85.7172838934947 81.92L41.5572838934947 37.76zM81.8772838934947 85.76L73.5572838934947 94.08L29.3972838934947 49.92L38.3572838934947 40.96L81.8772838934947 85.76zM95.3172838934947 115.84L116.4372838934947 94.72C120.2772838934947 90.88 119.6372838934947 85.12 116.4372838934947 81.92L53.0772838934947 18.56L8.9172838934947 9.6L17.8772838934947 53.76C57.5572838934947 94.08 78.6772838934947 115.2 81.2372838934947 117.12C85.0772838934947 119.68 91.4772838934947 119.68 95.3172838934947 115.84z" />
    <glyph glyph-name="edit-page"
      unicode="&#xEA75;"
      horiz-adv-x="128" d="M24.78515269832 96H11.98515269832V12.8H75.98515269832V25.6H24.78515269832V96zM113.74515269832 106.24L105.42515269832 114.56C102.86515269832 117.12 98.3851526983199 117.76 95.18515269832 115.2L88.78515269832 108.8H31.18515269832V32H88.78515269832V70.4L114.38515269832 96C116.94515269832 99.2 116.30515269832 103.68 113.74515269832 106.24zM77.26515269832 67.84L61.26515269832 62.08L67.02515269832 78.08L95.18515269832 106.24L105.42515269832 96L77.26515269832 67.84z" />
    <glyph glyph-name="editor-aligncenter"
      unicode="&#xEA76;"
      horiz-adv-x="128" d="M89.6 96V108.8H38.4V96H89.6zM108.8 70.4V83.2H19.2V70.4H108.8zM89.6 44.8V57.6H38.4V44.8H89.6zM108.8 19.2V32H19.2V19.2H108.8z" />
    <glyph glyph-name="editor-alignleft"
      unicode="&#xEA77;"
      horiz-adv-x="128" d="M76.8 96V108.8H19.2V96H76.8zM108.8 70.4V83.2H19.2V70.4H108.8zM76.8 44.8V57.6H19.2V44.8H76.8zM108.8 19.2V32H19.2V19.2H108.8z" />
    <glyph glyph-name="editor-alignright"
      unicode="&#xEA78;"
      horiz-adv-x="128" d="M108.8 96V108.8H51.2V96H108.8zM108.8 70.4V83.2H19.2V70.4H108.8zM108.8 44.8V57.6H51.2V44.8H108.8zM108.8 19.2V32H19.2V19.2H108.8z" />
    <glyph glyph-name="editor-bold"
      unicode="&#xEA79;"
      horiz-adv-x="128" d="M35.2 102.4V19.2H64.256C73.024 19.2 80 21.312 85.12 25.6C90.24 29.824 92.8 35.712 92.8 43.328C92.8 48.704 91.712 52.992 89.536 56.192S83.776 61.632 78.848 62.784V63.36C82.496 64 85.376 65.92 87.552 69.12S90.816 76.352 90.816 81.344C90.816 88.64 88.32 94.016 83.328 97.344C78.4 100.736 70.4 102.4 59.392 102.4H35.2zM51.648 69.44V87.936H60.352C65.024 87.936 68.48 87.232 70.656 85.888C72.832 84.48 73.92 82.176 73.92 79.04C73.92 75.584 72.896 73.152 70.912 71.68S65.664 69.44 61.248 69.44H51.648zM51.648 55.424H61.888C71.104 55.424 75.712 52.032 75.712 45.12C75.712 41.28 74.624 38.4 72.448 36.544S66.944 33.792 62.4 33.792H51.648V55.424z" />
    <glyph glyph-name="editor-break"
      unicode="&#xEA7A;"
      horiz-adv-x="128" d="M102.4 102.4H115.2V44.8H44.8V25.6L12.8 51.2L44.8 76.8V57.6H102.4V102.4z" />
    <glyph glyph-name="editor-code"
      unicode="&#xEA7B;"
      horiz-adv-x="128" d="M57.6 89.6L32 64L57.6 38.4L51.2 25.6L12.8 64L51.2 102.4zM70.4 38.4L96 64L70.4 89.6L76.8 102.4L115.2 64L76.8 25.6z" />
    <glyph glyph-name="editor-code-duplicate"
      unicode="&#xEA7C;"
      horiz-adv-x="128" d="M57.6 89.6L32 64L57.6 38.4L51.2 25.6L12.8 64L51.2 102.4zM70.4 38.4L96 64L70.4 89.6L76.8 102.4L115.2 64L76.8 25.6z" />
    <glyph glyph-name="editor-contract"
      unicode="&#xEA7D;"
      horiz-adv-x="128" d="M100.8 84.8L115.2 108.8V19.2L100.8 43.2L108.8 51.2H83.2V25.6L91.2 33.6L115.2 19.2H12.8L36.8 33.6L44.8 25.6V51.2H19.2L27.2 43.2L12.8 19.2V108.8L27.2 84.8L19.2 76.8H44.8V102.4L36.8 94.4L12.8 108.8H115.2L91.2 94.4L83.2 102.4V76.8H108.8z" />
    <glyph glyph-name="editor-customchar"
      unicode="&#xEA7E;"
      horiz-adv-x="128" d="M64 93.44C72.128 93.44 78.336 91.136 82.624 86.528C86.848 81.984 89.024 75.264 89.024 66.496C89.024 58.304 87.552 51.328 84.608 45.568C81.6 39.872 76.48 35.84 70.4 32V19.2H108.8V32H85.184C91.072 36.096 95.552 40.576 98.752 46.976C101.888 53.44 103.488 60.608 103.488 68.416C103.488 79.808 99.968 88.832 92.928 95.424S76.288 105.344 64 105.344S42.048 101.952 35.072 95.296C28.032 88.64 24.512 79.68 24.512 68.416C24.512 60.672 26.048 53.632 29.184 47.104C32.256 40.64 36.8 36.16 42.624 32H19.2V19.2H57.6V32C51.328 36.096 46.08 40.192 43.264 45.888C40.384 51.584 38.976 58.432 38.976 66.496C38.976 75.264 41.088 81.92 45.376 86.528C49.6 91.136 55.808 93.44 64 93.44z" />
    <glyph glyph-name="editor-expand"
      unicode="&#xEA7F;"
      horiz-adv-x="128" d="M44.8 76.8H83.2V51.2H44.8zM12.8 44.8V19.2H38.4L30.72 26.88L44.8 51.2L20.48 37.12M89.6 19.2H115.2V44.8L107.52 37.12L83.2 51.2L97.28 26.88M89.6 108.8L97.92 100.48L83.2 76.8L107.52 90.88L115.2 83.2V108.8M38.4 108.8H12.8V83.2L20.48 90.88L44.8 76.8L30.08 100.48" />
    <glyph glyph-name="editor-help"
      unicode="&#xEA80;"
      horiz-adv-x="128" d="M108.8 64C108.8 88.768 88.704 108.8 64 108.8C39.232 108.8 19.2 88.768 19.2 64S39.232 19.2 64 19.2C88.704 19.2 108.8 39.232 108.8 64zM68.48 54.528H58.496V57.28C58.496 59.712 59.008 61.76 60.032 63.552S62.976 67.2 65.664 69.248C68.288 71.104 70.016 72.64 70.848 73.792C71.744 74.944 72.128 76.288 72.128 77.76C72.128 79.36 71.552 80.576 70.336 81.472C69.12 82.304 67.456 82.688 65.28 82.688C61.568 82.688 57.28 81.472 52.48 79.04L48.384 87.232C53.952 90.368 59.904 91.968 66.112 91.968C71.296 91.968 75.392 90.688 78.4 88.256C81.472 85.76 82.944 82.432 82.944 78.336C82.944 75.584 82.368 73.216 81.088 71.232C79.872 69.184 77.44 66.944 73.984 64.448C71.552 62.656 70.08 61.312 69.44 60.416C68.8 59.456 68.48 58.24 68.48 56.768V54.528zM59.072 36.992C57.92 38.08 57.344 39.68 57.344 41.664C57.344 43.776 57.856 45.376 59.008 46.464S61.76 48.064 63.936 48.064C65.984 48.064 67.584 47.488 68.736 46.4S70.464 43.712 70.464 41.664C70.464 39.744 69.888 38.144 68.736 37.056C67.584 35.904 65.984 35.328 63.936 35.328C61.824 35.328 60.224 35.904 59.072 36.992z" />
    <glyph glyph-name="editor-indent"
      unicode="&#xEA81;"
      horiz-adv-x="128" d="M12.8 96V108.8H70.4V96H12.8zM76.8 102.4V108.8H102.4V102.4H76.8zM76.8 83.2H89.6V96L115.2 73.6L89.6 51.2V64H76.8V83.2zM12.8 76.8V89.6H70.4V76.8H12.8zM25.6 57.6V70.4H70.4V57.6H25.6zM12.8 38.4V51.2H70.4V38.4H12.8zM76.8 38.4V44.8H102.4V38.4H76.8zM51.2 19.2V32H70.4V19.2H51.2z" />
    <glyph glyph-name="editor-insertmore"
      unicode="&#xEA82;"
      horiz-adv-x="128" d="M108.8 83.2V108.8H19.2V83.2H108.8zM38.4 57.6V70.4H19.2V57.6H38.4zM76.8 57.6V70.4H51.2V57.6H76.8zM108.8 57.6V70.4H89.6V57.6H108.8zM108.8 19.2V44.8H19.2V19.2H108.8z" />
    <glyph glyph-name="editor-italic"
      unicode="&#xEA83;"
      horiz-adv-x="128" d="M94.592 89.6H80.96L63.04 32H76.608L72.64 19.2H29.44L33.408 32H47.104L65.024 89.6H51.392L55.36 102.4H98.56z" />
    <glyph glyph-name="editor-justify"
      unicode="&#xEA84;"
      horiz-adv-x="128" d="M12.8 108.8H115.2V96H12.8V108.8zM12.8 83.2H115.2V70.4H12.8V83.2zM12.8 57.6H115.2V44.8H12.8V57.6zM12.8 32H115.2V19.2H12.8V32z" />
    <glyph glyph-name="editor-kitchensink"
      unicode="&#xEA85;"
      horiz-adv-x="128" d="M121.6 115.2V76.8H6.4V115.2H121.6zM115.2 83.2V108.8H12.8V83.2H115.2zM32 102.4V89.6H19.2V102.4H32zM51.2 102.4V89.6H38.4V102.4H51.2zM70.4 102.4V89.6H57.6V102.4H70.4zM89.6 102.4V89.6H76.8V102.4H89.6zM108.8 102.4V89.6H96V102.4H108.8zM121.6 70.4V12.8H6.4V70.4H121.6zM115.2 19.2V64H12.8V19.2H115.2zM32 57.6V44.8H19.2V57.6H32zM51.2 57.6V44.8H38.4V57.6H51.2zM70.4 57.6V44.8H57.6V57.6H70.4zM108.8 57.6V44.8H76.8V57.6H108.8zM70.4 38.4V25.6H19.2V38.4H70.4zM89.6 38.4V25.6H76.8V38.4H89.6zM108.8 38.4V25.6H96V38.4H108.8z" />
    <glyph glyph-name="editor-ltr"
      unicode="&#xEA86;"
      horiz-adv-x="128" d="M83.2 115.2H35.2C19.2 115.2 6.4 102.4 6.4 86.4S19.2 57.6 35.2 57.6H38.4V19.2C38.4 16 41.6 12.8 44.8 12.8S51.2 16 51.2 19.2V96C51.2 99.2 54.4 102.4 57.6 102.4S64 99.2 64 96V19.2C64 16 67.2 12.8 70.4 12.8S76.8 16 76.8 19.2V102.4H83.2C86.4 102.4 89.6 105.6 89.6 108.8S86.4 115.2 83.2 115.2zM89.6 89.6V38.4L121.6 64L89.6 89.6z" />
    <glyph glyph-name="editor-ol"
      unicode="&#xEA87;"
      horiz-adv-x="128" d="M35.2 83.2V108.8H30.784L22.528 102.208L25.088 98.944L28.032 101.312C28.416 101.632 29.056 102.208 29.952 103.104L29.824 100.416V83.2H35.2zM48 96H105.6V89.6H48V96zM40.128 51.52V56H29.12V56.256L32.384 59.328C34.496 61.312 36.032 62.784 36.864 63.872C37.76 64.96 38.4 65.984 38.784 67.008C39.232 68.032 39.424 69.12 39.424 70.272C39.424 71.616 39.104 72.832 38.4 73.856C37.76 74.88 36.8 75.648 35.584 76.224S32.96 77.12 31.424 77.12C30.208 77.12 29.12 76.992 28.16 76.736C27.2 76.544 26.304 76.16 25.472 75.776C24.704 75.328 23.616 74.56 22.4 73.536L25.28 70.08C26.304 70.912 27.264 71.552 28.16 72C29.12 72.448 30.08 72.64 31.04 72.64C31.936 72.64 32.704 72.448 33.28 71.936S34.112 70.656 34.112 69.632C34.112 68.992 33.984 68.352 33.728 67.712S33.088 66.368 32.512 65.6C31.936 64.896 30.656 63.552 28.8 61.632L22.464 55.232V51.52H40.128zM48 64H105.6V57.6H48V64zM39.744 38.72C39.744 40.64 38.976 42.176 37.376 43.264C35.84 44.352 33.664 44.928 30.976 44.928C27.648 44.928 24.832 44.096 22.464 42.368L25.024 38.528C26.112 39.232 27.072 39.744 27.968 40C28.864 40.32 29.696 40.448 30.592 40.448C33.024 40.448 34.304 39.488 34.304 37.504C34.304 36.224 33.856 35.264 32.896 34.752S30.464 33.984 28.416 33.984H26.432V29.76H28.416C30.592 29.76 32.192 29.504 33.216 28.992C34.176 28.48 34.688 27.584 34.688 26.368C34.688 24.96 34.24 24 33.408 23.36C32.512 22.72 31.168 22.4 29.376 22.4C28.16 22.4 26.944 22.592 25.728 22.912S23.424 23.68 22.4 24.192V19.456C24.576 18.496 27.136 18.048 29.952 18.048C33.344 18.048 35.968 18.752 37.76 20.16C39.616 21.568 40.512 23.488 40.512 26.048C40.512 27.776 39.936 29.12 38.848 30.144S36.16 31.808 34.112 32.064V32.192C35.84 32.576 37.248 33.408 38.272 34.56C39.232 35.712 39.744 37.056 39.744 38.72zM48 32H105.6V25.6H48V32z" />
    <glyph glyph-name="editor-ol-rtl"
      unicode="&#xEA88;"
      horiz-adv-x="128" d="M92.8 71.68C93.44 72.32 94.72 72.32 95.36 72.32C96 72.32 97.28 72.32 97.92 71.68C98.56 71.04 99.2 70.4 99.2 69.76C99.2 69.12 99.2 68.48 98.56 67.84C98.56 67.2 97.92 66.56 97.28 65.92L93.44 62.08L87.04 55.68V51.2H104.96V55.68H94.08L97.28 58.88L101.76 63.36C102.4 64 103.04 65.28 103.68 66.56C104.32 67.84 104.32 68.48 104.32 69.76S103.68 72.32 103.04 73.6C102.4 74.88 101.12 75.52 100.4800000000001 76.16C99.2000000000001 76.8 97.9200000000001 77.44 96 76.8C94.7200000000001 76.8 94.08 76.8 92.8 76.16C92.1600000000001 76.16 90.88 75.52 90.24 75.52C88.96 74.88 88.32 74.24 87.0400000000001 72.96L90.24 70.4C90.88 71.04 92.1600000000001 71.68 92.8 71.68zM103.68 30.08C102.4 31.36 100.48 32 99.2 32C101.12 32.64 102.4 33.28 103.04 34.56C104.32 35.84 104.32 37.12 104.32 38.4C104.32 40.32 103.68 42.24 101.76 42.88C99.84 44.16 97.92 44.8 95.36 44.8C92.16 44.8 89.6 44.16 87.04 42.24L89.6 38.4C90.24 39.04 91.52 39.68 92.8 39.68C93.44 39.68 94.72 40.32 95.36 40.32C97.92 40.32 99.2 39.04 99.2 37.12C99.2 35.84 98.56 35.2 97.92 34.56C96.64 33.92 94.72 33.92 93.44 33.92H91.52V29.44H93.44C95.36 29.44 96.64 29.44 98.56 28.8C99.84 28.16 99.84 27.52 99.84 26.24S99.2 23.68 98.56 23.04C97.28 22.4 96 21.76 94.72 21.76C93.44 21.76 92.16 21.76 90.88 22.4C89.6000000000001 22.4 88.32 23.04 87.68 23.68V19.2C90.24 17.92 92.8 17.92 95.36 17.92C97.9200000000001 17.92 101.12 18.56 103.04 19.84C104.96 21.12 105.6 23.68 105.6 25.6C105.6 27.52 104.96 28.8 103.68 30.08zM92.8 101.12C93.44 101.12 94.08 101.76 94.72 103.04V83.2H99.84V108.8H95.36L87.04 102.4L89.6 99.2L92.8 101.12zM22.4 89.6H80V96H22.4V89.6zM22.4 57.6H80V64H22.4V57.6zM22.4 25.6H80V32H22.4V25.6z" />
    <glyph glyph-name="editor-outdent"
      unicode="&#xEA89;"
      horiz-adv-x="128" d="M51.2 102.4V108.8H25.6V102.4H51.2zM115.2 96V108.8H57.6V96H115.2zM51.2 83.2H38.4V96L12.8 73.6L38.4 51.2V64H51.2V83.2zM115.2 76.8V89.6H57.6V76.8H115.2zM102.4 57.6V70.4H57.6V57.6H102.4zM115.2 38.4V51.2H57.6V38.4H115.2zM51.2 38.4V44.8H25.6V38.4H51.2zM76.8 19.2V32H57.6V19.2H76.8z" />
    <glyph glyph-name="editor-paragraph"
      unicode="&#xEA8A;"
      horiz-adv-x="128" d="M99.2 115.2H51.456C46.144 115.2 41.28 113.92 36.864 111.36C32.384 108.736 28.864 105.216 26.304 100.8C23.68 96.384 22.4 91.52 22.4 86.272S23.68 76.16 26.304 71.744C28.864 67.328 32.384 63.808 36.864 61.248C41.28 58.624 46.144 57.344 51.456 57.344H54.208V19.2C54.208 17.472 54.848 15.936 56.064 14.656C57.344 13.44 58.88 12.8 60.608 12.8C62.4 12.8 63.872 13.44 65.152 14.656C66.432 15.936 67.072 17.472 67.072 19.2V96C67.072 97.728 67.648 99.264 68.928 100.544C70.208 101.76 71.744 102.4 73.472 102.4S76.736 101.76 78.016 100.544C79.232 99.264 79.872 97.728 79.872 96V19.2C79.872 17.472 80.512 15.936 81.792 14.656C83.072 13.44 84.544 12.8 86.336 12.8C88.064 12.8 89.6 13.44 90.88 14.656C92.096 15.936 92.736 17.472 92.736 19.2V102.4H99.2C100.928 102.4 102.4 103.04 103.68 104.32C104.96 105.536 105.6 107.072 105.6 108.8S104.96 112.064 103.68 113.344C102.4 114.56 100.928 115.2 99.2 115.2z" />
    <glyph glyph-name="editor-paste-text"
      unicode="&#xEA8B;"
      horiz-adv-x="128" d="M79.232 115.2L96 96V89.6H32V96L48.896 115.2H79.232zM64 96C67.52 96 70.4 98.816 70.4 102.4C70.4 105.92 67.52 108.8 64 108.8S57.6 105.92 57.6 102.4C57.6 98.816 60.48 96 64 96zM98.88 102.4H108.8C112.32 102.4 115.2 99.52 115.2 96V19.2C115.2 15.616 112.32 12.8 108.8 12.8H19.2C15.68 12.8 12.8 15.616 12.8 19.2V96C12.8 99.52 15.68 102.4 19.2 102.4H29.12L25.6 98.368V83.2H102.4V98.368zM89.6 57.6V70.4H38.4V57.6H57.6V25.6H70.4V57.6H89.6z" />
    <glyph glyph-name="editor-paste-word"
      unicode="&#xEA8C;"
      horiz-adv-x="128" d="M79.232 115.2L96 96V89.6H32V96L48.896 115.2H79.232zM64 96C67.52 96 70.4 98.88 70.4 102.4S67.52 108.8 64 108.8S57.6 105.92 57.6 102.4S60.48 96 64 96zM115.2 19.2V96C115.2 99.52 112.32 102.4 108.8 102.4H98.944L102.4 98.368V83.2H25.6V98.432L29.12 102.4H19.2C15.68 102.4 12.8 99.52 12.8 96V19.2C12.8 15.68 15.68 12.8 19.2 12.8H108.8C112.32 12.8 115.2 15.68 115.2 19.2zM96 70.4L83.2 25.6H70.4L64 57.6L57.6 25.6H44.288L32 70.4H44.8L51.2 38.4L57.6 70.4H70.4L76.8 38.4L83.2 70.4H96z" />
    <glyph glyph-name="editor-quote"
      unicode="&#xEA8D;"
      horiz-adv-x="128" d="M59.4293190256933 43.392C59.4293190256933 48.128 58.1493190256933 52.224 55.5253190256933 55.552C51.5573190256933 60.544 43.8133190256933 61.184 39.3333190256933 60.16C37.4773190256933 70.72 46.4373190256933 84.16 58.0213190256933 89.92L49.1253190256933 102.4C31.6533190256933 94.08 14.4373190256933 75.008 17.3813190256933 50.88C19.2373190256933 35.648 28.0693190256933 25.6 40.5493190256933 25.6C45.9893190256933 25.6 50.5333190256933 27.2 54.1173190256933 30.4S59.4293190256933 37.952 59.4293190256933 43.392zM110.9493190256933 43.392C110.9493190256933 48.128 109.6693190256933 52.224 107.0453190256933 55.552C103.0133190256933 60.544 95.3333190256933 61.184 90.8533190256933 60.16C88.9973190256933 70.72 97.9573190256933 84.16 109.5413190256933 89.92L100.6453190256933 102.4C83.1733190256933 94.08 66.0213190256933 75.008 68.9653190256933 50.88C70.8213190256933 35.648 79.5893190256933 25.6 92.0693190256933 25.6C97.5093190256933 25.6 102.0533190256933 27.2 105.6373190256933 30.4S110.9493190256933 37.952 110.9493190256933 43.392z" />
    <glyph glyph-name="editor-removeformatting"
      unicode="&#xEA8E;"
      horiz-adv-x="128" d="M94.656 98.624L101.696 91.52C104.32 88.96 105.6 85.504 105.6 82.112V68.544C105.6 65.152 104.32 61.696 101.696 59.136L59.264 16.704C56.704 14.08 53.248 12.8 49.856 12.8S43.008 14.08 40.448 16.704L33.344 23.744L26.304 30.848C23.68 33.408 22.4 36.864 22.4 40.256V53.824C22.4 57.28 23.68 60.672 26.304 63.296L68.736 105.664C71.296 108.288 74.752 109.568 78.144 109.568S84.928 108.288 87.552 105.664zM54.912 36.544L96 77.632C98.496 80.128 98.496 84.224 96 86.784L82.304 100.48C81.088 101.696 79.424 102.336 77.696 102.336S74.368 101.696 73.152 100.48L32.064 59.392C29.568 56.832 29.568 52.736 32.064 50.24L45.76 36.544C48.192 34.112 52.416 34.112 54.912 36.544z" />
    <glyph glyph-name="editor-rtl"
      unicode="&#xEA8F;"
      horiz-adv-x="128" d="M83.2 115.2H35.2C19.2 115.2 6.4 102.4 6.4 86.4S19.2 57.6 35.2 57.6H38.4V19.2C38.4 16 41.6 12.8 44.8 12.8S51.2 16 51.2 19.2V96C51.2 99.2 54.4 102.4 57.6 102.4S64 99.2 64 96V19.2C64 16 67.2 12.8 70.4 12.8S76.8 16 76.8 19.2V102.4H83.2C86.4 102.4 89.6 105.6 89.6 108.8S86.4 115.2 83.2 115.2zM89.6 64L121.6 38.4V89.6L89.6 64z" />
    <glyph glyph-name="editor-spellcheck"
      unicode="&#xEA90;"
      horiz-adv-x="128" d="M101.376 110.336C102.976 110.336 104.512 110.08 105.92 109.632C107.392 109.184 108.736 108.608 110.016 108.032L112.256 113.216C108.928 114.88 105.344 115.712 101.44 115.712C97.728 115.712 94.464 114.88 91.712 113.344C88.96 111.744 86.848 109.44 85.376 106.432C83.904 103.488 83.2 99.968 83.2 96C83.2 89.664 84.672 84.8 87.68 81.408S95.04 76.352 100.608 76.352C104.448 76.352 107.84 76.928 110.848 78.016V83.392C109.184 82.88 107.584 82.496 106.112 82.176C104.576 81.856 102.976 81.664 101.376 81.664C97.6 81.664 94.72 82.88 92.8 85.312C90.752 87.68 89.792 91.264 89.792 95.936C89.792 100.416 90.816 103.936 92.864 106.496C94.976 109.056 97.792 110.336 101.376 110.336zM41.6 76.8H48.256L33.92 115.2H27.136L12.8 76.8H19.392L23.104 87.424H37.76zM51.2 115.2V76.8H65.088C69.376 76.8 72.704 77.76 75.136 79.744C77.568 81.664 78.72 84.352 78.72 87.808C78.72 90.368 78.08 92.416 76.8 93.888C75.584 95.424 73.6 96.384 70.848 96.896V97.152C73.088 97.536 74.688 98.496 75.84 99.968C76.992 101.504 77.632 103.36 77.632 105.6C77.632 108.928 76.416 111.36 74.048 112.896C71.744 114.432 67.904 115.2 62.592 115.2H51.2zM57.472 99.328V109.952H62.912C65.728 109.952 67.84 109.568 69.12 108.736C70.464 107.968 71.104 106.624 71.104 104.832C71.104 102.848 70.464 101.44 69.248 100.608C68.096 99.776 66.176 99.328 63.552 99.328H57.472zM36.096 92.8H24.96L28.416 102.784C29.312 105.344 30.016 107.648 30.464 109.824L31.424 106.496C31.872 105.024 32.256 103.936 32.512 103.232zM57.472 94.272H63.808C66.624 94.272 68.672 93.76 70.08 92.8C71.424 91.84 72.128 90.368 72.128 88.384C72.128 86.208 71.424 84.608 70.08 83.584S66.752 82.048 64.128 82.048H57.472V94.272zM25.6 44.8L57.6 12.8L115.2 64L108.8 70.4L57.6 32L32 51.2z" />
    <glyph glyph-name="editor-strikethrough"
      unicode="&#xEA91;"
      horiz-adv-x="128" d="M102.784 49.6C104.448 49.6 105.984 49.728 107.52 50.048C108.992 50.368 110.592 50.816 112.192 51.328V45.952C109.248 44.864 105.856 44.288 102.08 44.288C96.448 44.288 92.224 45.952 89.216 49.344C86.72 52.16 85.248 56 84.864 60.8H78.848C79.616 59.456 80 57.728 80 55.744C80 52.288 78.848 49.664 76.48 47.68C74.048 45.76 70.72 44.8 66.496 44.8H52.736V60.8H43.712L49.664 44.8H43.072L39.296 55.488H24.704L20.992 44.8H14.336L20.288 60.8H14.336V67.2H22.72L28.672 83.136H35.456L41.344 67.2H52.736V83.2H64.064C70.464 83.2 73.088 82.112 75.392 80.576C77.76 79.04 78.912 76.608 78.912 73.344C78.912 71.104 78.336 69.248 77.184 67.776L76.672 67.2H84.928C85.248 69.76 85.888 72.128 86.912 74.24C88.384 77.184 90.432 79.488 93.184 81.024C95.936 82.624 99.136 83.392 102.848 83.392C106.752 83.392 110.336 82.624 113.664 80.96L111.424 75.776C110.144 76.416 108.736 76.928 107.328 77.376S104.384 78.08 102.784 78.08C99.264 78.08 96.448 76.8 94.4 74.304C92.928 72.448 91.968 70.08 91.584 67.2H110.336V60.8H91.456C91.84 57.6 92.736 55.04 94.272 53.184C96.192 50.816 99.072 49.6 102.784 49.6zM29.952 70.656L28.8 67.2H35.456L34.048 71.104C33.792 71.808 33.472 72.896 32.96 74.368C32.512 75.904 32.192 76.992 32.064 77.632C31.552 75.52 30.912 73.216 29.952 70.656zM58.944 77.632V67.2H66.56C68.352 67.328 69.696 67.776 70.656 68.352C71.872 69.184 72.448 70.592 72.448 72.576C72.448 74.368 71.808 75.648 70.528 76.48C69.248 77.248 67.136 77.632 64.32 77.632H58.944zM37.632 60.736V60.8H26.56V60.736H37.632zM71.424 60.672L71.232 60.8H58.944V50.048H65.6C68.16 50.048 70.144 50.56 71.488 51.52C72.832 52.544 73.472 54.08 73.472 56.256C73.472 58.24 72.768 59.712 71.424 60.672z" />
    <glyph glyph-name="editor-table"
      unicode="&#xEA92;"
      horiz-adv-x="128" d="M115.2 19.2V108.8H12.8V19.2H115.2zM102.4 83.2H25.6V96H102.4V83.2zM57.6 57.6H25.6V70.4H57.6V57.6zM102.4 57.6H70.4V70.4H102.4V57.6zM57.6 32H25.6V44.8H57.6V32zM102.4 32H70.4V44.8H102.4V32z" />
    <glyph glyph-name="editor-textcolor"
      unicode="&#xEA93;"
      horiz-adv-x="128" d="M84.256 32H96.416L69.984 102.4H57.184L31.584 32H43.616L50.464 51.2H77.216zM74.464 61.056H54.048L63.584 92.16z" />
    <glyph glyph-name="editor-ul"
      unicode="&#xEA94;"
      horiz-adv-x="128" d="M32 83.2C26.688 83.2 22.4 87.488 22.4 92.8C22.4 98.048 26.688 102.4 32 102.4C37.248 102.4 41.6 98.048 41.6 92.8C41.6 87.488 37.248 83.2 32 83.2zM48 96H105.6V89.6H48V96zM32 51.2C26.688 51.2 22.4 55.488 22.4 60.8C22.4 66.048 26.688 70.4 32 70.4C37.248 70.4 41.6 66.048 41.6 60.8C41.6 55.488 37.248 51.2 32 51.2zM48 64H105.6V57.6H48V64zM32 19.2C26.688 19.2 22.4 23.488 22.4 28.8C22.4 34.048 26.688 38.4 32 38.4C37.248 38.4 41.6 34.048 41.6 28.8C41.6 23.488 37.248 19.2 32 19.2zM48 32H105.6V25.6H48V32z" />
    <glyph glyph-name="editor-underline"
      unicode="&#xEA95;"
      horiz-adv-x="128" d="M92.8 96H80V59.456C80 46.72 72.832 40.384 64.32 40.384C55.872 40.384 48 46.784 48 59.328V96H35.2V58.432C35.2 46.208 41.6 29.376 63.872 29.376C86.208 29.376 92.8 45.888 92.8 58.176V96zM92.8 12.8V25.6H35.2V12.8H92.8z" />
    <glyph glyph-name="editor-unlink"
      unicode="&#xEA96;"
      horiz-adv-x="128" d="M110.336 113.536C121.088 102.72 121.088 85.312 110.336 74.496L100.544 64.768C98.496 62.656 96.128 61.056 93.632 59.84L80 64L90.816 74.496L95.68 79.424L100.544 84.288C105.92 89.664 105.92 98.368 100.544 103.744C95.168 109.184 86.464 109.184 81.088 103.744L76.16 98.88L71.296 94.016L60.8 83.2L56.64 96.896C57.856 99.328 59.456 101.696 61.568 103.744L71.296 113.536C82.112 124.288 99.584 124.288 110.336 113.536zM9.6 102.4L60.8 64L22.4 115.2zM35.2 115.2L60.8 64L48 115.2H35.2zM9.6 89.6L60.8 64L9.6 76.8V89.6zM56.704 40.384L60.8 44.8L65.536 29.76L56.704 20.864C45.888 10.112 28.48 10.112 17.664 20.864C6.912 31.616 6.912 49.152 17.664 59.904L26.56 68.736L41.6 64L37.184 59.904L27.456 50.112C22.016 44.736 22.016 36.032 27.456 30.656C32.832 25.216 41.536 25.216 46.912 30.656zM112 25.6L60.8 64L99.2 12.8zM86.4 12.8L60.8 64L73.6 12.8H86.4zM112 38.4L60.8 64L112 51.2V38.4z" />
    <glyph glyph-name="editor-video"
      unicode="&#xEA97;"
      horiz-adv-x="128" d="M102.4 115.2H83.2V108.8H44.8V115.2H25.6V19.2H44.8V25.6H83.2V19.2H102.4V115.2zM38.4 108.8V102.4H32V108.8H38.4zM96 108.8V102.4H89.6V108.8H96zM83.2 102.4V70.4H44.8V102.4H83.2zM38.4 96V89.6H32V96H38.4zM96 96V89.6H89.6V96H96zM38.4 83.2V76.8H32V83.2H38.4zM96 83.2V76.8H89.6V83.2H96zM38.4 70.4V64H32V70.4H38.4zM96 70.4V64H89.6V70.4H96zM83.2 64V32H44.8V64H83.2zM38.4 57.6V51.2H32V57.6H38.4zM96 57.6V51.2H89.6V57.6H96zM38.4 44.8V38.4H32V44.8H38.4zM96 44.8V38.4H89.6V44.8H96zM38.4 32V25.6H32V32H38.4zM96 32V25.6H89.6V32H96z" />
    <glyph glyph-name="ellipsis"
      unicode="&#xEA98;"
      horiz-adv-x="128" d="M32 64C32 56.96 26.24 51.2 19.2 51.2S6.4 56.96 6.4 64S12.16 76.8 19.2 76.8S32 71.04 32 64zM108.8 76.8C101.76 76.8 96 71.04 96 64S101.76 51.2 108.8 51.2S121.6 56.96 121.6 64S115.84 76.8 108.8 76.8zM64 76.8C56.96 76.8 51.2 71.04 51.2 64S56.96 51.2 64 51.2S76.8 56.96 76.8 64S71.04 76.8 64 76.8z" />
    <glyph glyph-name="email"
      unicode="&#xEA99;"
      horiz-adv-x="128" d="M21.6 102.4H106.4C114.4 102.4 118.432 98.624 118.432 90.944V37.056C118.432 29.44 114.4 25.6 106.4 25.6H21.6C13.6 25.6 9.568 29.44 9.568 37.056V90.944C9.568 98.624 13.6 102.4 21.6 102.4zM63.968 47.36L107.104 82.752C108.64 84.032 109.856 86.976 107.936 89.6C106.08 92.224 102.688 92.288 100.448 90.688L63.968 65.984L27.552 90.688C25.312 92.288 21.92 92.224 20.064 89.6C18.144 86.976 19.36 84.032 20.896 82.752z" />
    <glyph glyph-name="email-alt"
      unicode="&#xEA9A;"
      horiz-adv-x="128" d="M118.432 35.2V92.8C118.432 98.112 114.144 102.4 108.832 102.4H19.168C13.856 102.4 9.568 98.112 9.568 92.8V35.2C9.568 29.888 13.856 25.6 19.168 25.6H108.832C114.144 25.6 118.432 29.888 118.432 35.2zM110.048 93.504C112.16 91.392 111.008 89.216 109.856 88.128L83.872 64.32L108.832 38.336C109.6 37.44 110.112 36.032 109.216 35.072C108.384 34.048 106.464 34.112 105.632 34.752L77.664 58.624L63.968 46.144L50.336 58.624L22.368 34.752C21.536 34.112 19.616 34.048 18.784 35.072C17.888 36.032 18.4 37.44 19.168 38.336L44.128 64.32L18.144 88.128C16.992 89.216 15.84 91.392 17.952 93.504S22.24 94.592 24.032 93.056L63.968 60.8L103.968 93.056C105.76 94.592 107.936 95.616 110.048 93.504z" />
    <glyph glyph-name="email-alt2"
      unicode="&#xEA9B;"
      horiz-adv-x="128" d="M102.4 120.96L25.6 90.24C18.56 87.68 12.8 78.72 12.8 71.04V15.36C12.8 7.68 18.56 3.84 25.6 6.4L102.4 37.12C109.44 39.68 115.2 48.64 115.2 56.32V112C115.2 119.68 109.44 123.52 102.4 120.96zM106.24 104.32L67.84 44.8L24.96 73.6C24.32 74.24 22.4 76.16 23.68 78.08C24.96 80.64 28.16 79.36 28.16 79.36L68.48 64.64S99.2 104.96 101.12 107.52C101.76 108.8 103.68 109.44 105.6 108.16C107.52 106.88 106.88 104.96 106.24 104.32z" />
    <glyph glyph-name="embed-audio"
      unicode="&#xEA9C;"
      horiz-adv-x="128" d="M108.8 102.4H19.2C12.16 102.4 6.4 96.64 6.4 89.6V38.4C6.4 31.36 12.16 25.6 19.2 25.6H108.8C115.84 25.6 121.6 31.36 121.6 38.4V89.6C121.6 96.64 115.84 102.4 108.8 102.4zM64 83.2H44.8V57.6C44.8 50.56 39.04 44.8 32 44.8S19.2 50.56 19.2 57.6S24.96 70.4 32 70.4C34.56 70.4 36.48 69.76 38.4 68.48V96H64V83.2zM89.6 60.8L80 51.2L89.6 41.6V32L70.4 51.2L89.6 70.4V60.8zM96 32V41.6L105.6 51.2L96 60.8V70.4L115.2 51.2L96 32z" />
    <glyph glyph-name="embed-generic"
      unicode="&#xEA9D;"
      horiz-adv-x="128" d="M108.8 102.4H19.2C12.16 102.4 6.4 96.64 6.4 89.6V38.4C6.4 31.36 12.16 25.6 19.2 25.6H108.8C115.84 25.6 121.6 31.36 121.6 38.4V89.6C121.6 96.64 115.84 102.4 108.8 102.4zM89.6 60.8L80 51.2L89.6 41.6V32L70.4 51.2L89.6 70.4V60.8zM96 32V41.6L105.6 51.2L96 60.8V70.4L115.2 51.2L96 32z" />
    </font>
</defs>
</svg>
